G04*
G04 #@! TF.GenerationSoftware,Altium Limited,Altium Designer,23.10.1 (27)*
G04*
G04 Layer_Physical_Order=4*
G04 Layer_Color=16711680*
%FSLAX44Y44*%
%MOMM*%
G71*
G04*
G04 #@! TF.SameCoordinates,EDDF8714-B4F6-4BBB-B34A-9CA9A18AB3C3*
G04*
G04*
G04 #@! TF.FilePolarity,Positive*
G04*
G01*
G75*
%ADD13C,0.2540*%
%ADD17R,1.0000X1.1000*%
%ADD22R,0.6000X0.5000*%
%ADD26R,1.7000X1.1000*%
%ADD47C,0.8130*%
%ADD49C,1.0000*%
%ADD51C,0.8128*%
%ADD52C,0.2997*%
G04:AMPARAMS|DCode=53|XSize=1.905mm|YSize=1.524mm|CornerRadius=0mm|HoleSize=0mm|Usage=FLASHONLY|Rotation=180.000|XOffset=0mm|YOffset=0mm|HoleType=Round|Shape=Octagon|*
%AMOCTAGOND53*
4,1,8,-0.9525,0.3810,-0.9525,-0.3810,-0.5715,-0.7620,0.5715,-0.7620,0.9525,-0.3810,0.9525,0.3810,0.5715,0.7620,-0.5715,0.7620,-0.9525,0.3810,0.0*
%
%ADD53OCTAGOND53*%

%ADD54C,1.3000*%
%ADD55C,1.8500*%
%ADD56R,1.8500X1.8500*%
%ADD57C,1.0000*%
%ADD58R,1.0000X1.0000*%
%ADD59C,1.5000*%
%ADD60R,1.5000X1.5000*%
%ADD61C,0.5080*%
%ADD62C,1.2700*%
%ADD70R,1.1000X1.7000*%
%ADD71R,0.5000X0.6000*%
%ADD72R,0.8000X0.9000*%
%ADD73R,0.9000X0.8000*%
G36*
X624222Y395308D02*
X624656Y393128D01*
X624812Y392895D01*
X624656Y392663D01*
X624222Y390482D01*
Y133095D01*
X624223Y43433D01*
X623324Y42536D01*
X7222Y43561D01*
Y512716D01*
X624222D01*
Y395308D01*
D02*
G37*
%LPC*%
G36*
X604901Y481330D02*
X591947D01*
X589637Y479020D01*
X570014D01*
Y479210D01*
X556966D01*
Y473764D01*
X556792Y472440D01*
X556966Y471116D01*
Y465162D01*
X570014D01*
Y465860D01*
X589129D01*
X591947Y463042D01*
X604901D01*
X609473Y467614D01*
Y476758D01*
X604901Y481330D01*
D02*
G37*
G36*
X211576Y470742D02*
X209990Y470426D01*
X208646Y469528D01*
X207748Y468184D01*
X207432Y466598D01*
X207748Y465012D01*
X208646Y463668D01*
X209990Y462770D01*
X211576Y462454D01*
X213162Y462770D01*
X214506Y463668D01*
X215404Y465012D01*
X215720Y466598D01*
X215404Y468184D01*
X214506Y469528D01*
X213162Y470426D01*
X211576Y470742D01*
D02*
G37*
G36*
X507492Y462360D02*
X505906Y462044D01*
X504562Y461146D01*
X503664Y459802D01*
X503348Y458216D01*
X503664Y456630D01*
X504562Y455286D01*
X505906Y454388D01*
X507492Y454072D01*
X509078Y454388D01*
X510422Y455286D01*
X511320Y456630D01*
X511636Y458216D01*
X511320Y459802D01*
X510422Y461146D01*
X509078Y462044D01*
X507492Y462360D01*
D02*
G37*
G36*
X26664Y472144D02*
X24308Y471834D01*
X22113Y470924D01*
X20228Y469478D01*
X18782Y467593D01*
X17872Y465398D01*
X17562Y463042D01*
X17872Y460686D01*
X18782Y458491D01*
X20228Y456606D01*
X22113Y455160D01*
X24308Y454250D01*
X26664Y453940D01*
X29020Y454250D01*
X31215Y455160D01*
X33100Y456606D01*
X34546Y458491D01*
X35456Y460686D01*
X35766Y463042D01*
X35456Y465398D01*
X34546Y467593D01*
X33100Y469478D01*
X31215Y470924D01*
X29020Y471834D01*
X26664Y472144D01*
D02*
G37*
G36*
X604901Y455930D02*
X591947D01*
X588367Y452350D01*
X570522D01*
Y453302D01*
X557474D01*
Y439254D01*
X564408D01*
X564896Y439190D01*
X590399D01*
X591947Y437642D01*
X604901D01*
X609473Y442214D01*
Y451358D01*
X604901Y455930D01*
D02*
G37*
G36*
X509911Y439379D02*
X508325Y439063D01*
X506981Y438165D01*
X506083Y436821D01*
X505768Y435235D01*
X506083Y433649D01*
X506981Y432305D01*
X508325Y431407D01*
X509911Y431091D01*
X511497Y431407D01*
X512841Y432305D01*
X513739Y433649D01*
X514055Y435235D01*
X513739Y436821D01*
X512841Y438165D01*
X511497Y439063D01*
X509911Y439379D01*
D02*
G37*
G36*
X604901Y430530D02*
X591947D01*
X588875Y427458D01*
X570014D01*
Y428410D01*
X556966D01*
Y414362D01*
X563138D01*
X563626Y414298D01*
X589891D01*
X591947Y412242D01*
X604901D01*
X609473Y416814D01*
Y425958D01*
X604901Y430530D01*
D02*
G37*
G36*
X242824Y423140D02*
X241121Y422916D01*
X239534Y422259D01*
X238171Y421213D01*
X237918Y420883D01*
X236648Y421314D01*
Y423084D01*
X223600D01*
Y410036D01*
X236648D01*
Y411806D01*
X237918Y412237D01*
X238171Y411907D01*
X239534Y410861D01*
X241121Y410204D01*
X242824Y409980D01*
X244527Y410204D01*
X246114Y410861D01*
X247477Y411907D01*
X248523Y413270D01*
X249180Y414857D01*
X249404Y416560D01*
X249180Y418263D01*
X248523Y419850D01*
X247477Y421213D01*
X246114Y422259D01*
X244527Y422916D01*
X242824Y423140D01*
D02*
G37*
G36*
X304038Y423394D02*
X302335Y423170D01*
X300748Y422513D01*
X299385Y421467D01*
X298386Y420165D01*
X297701Y420065D01*
X297675D01*
X296990Y420165D01*
X295991Y421467D01*
X294628Y422513D01*
X293041Y423170D01*
X291338Y423394D01*
X289635Y423170D01*
X288048Y422513D01*
X286685Y421467D01*
X285639Y420104D01*
X284982Y418517D01*
X284758Y416814D01*
X284982Y415111D01*
X285639Y413524D01*
X286685Y412161D01*
X288048Y411115D01*
X289635Y410458D01*
X291338Y410234D01*
X293041Y410458D01*
X294628Y411115D01*
X295991Y412161D01*
X296990Y413463D01*
X297675Y413563D01*
X297701D01*
X298386Y413463D01*
X299385Y412161D01*
X300748Y411115D01*
X302335Y410458D01*
X304038Y410234D01*
X305741Y410458D01*
X307328Y411115D01*
X308691Y412161D01*
X308944Y412491D01*
X310214Y412060D01*
Y410290D01*
X323262D01*
Y423338D01*
X310214D01*
Y421568D01*
X308944Y421137D01*
X308691Y421467D01*
X307328Y422513D01*
X305741Y423170D01*
X304038Y423394D01*
D02*
G37*
G36*
X47625Y426212D02*
X34671D01*
X30099Y421640D01*
Y412496D01*
X34671Y407924D01*
X47625D01*
X50189Y410488D01*
X66684D01*
X67172Y410552D01*
X72446D01*
Y413930D01*
X73040Y415365D01*
X73264Y417068D01*
X73040Y418771D01*
X72446Y420206D01*
Y424600D01*
X59398D01*
Y423648D01*
X50189D01*
X47625Y426212D01*
D02*
G37*
G36*
X120903Y412069D02*
X119317Y411753D01*
X117973Y410855D01*
X117075Y409511D01*
X116759Y407925D01*
X117075Y406339D01*
X117973Y404995D01*
X119317Y404097D01*
X120903Y403781D01*
X122489Y404097D01*
X123833Y404995D01*
X124731Y406339D01*
X125047Y407925D01*
X124731Y409511D01*
X123833Y410855D01*
X122489Y411753D01*
X120903Y412069D01*
D02*
G37*
G36*
X507492Y411560D02*
X505906Y411244D01*
X504562Y410346D01*
X503664Y409002D01*
X503348Y407416D01*
X503664Y405830D01*
X504562Y404486D01*
X505906Y403588D01*
X507492Y403272D01*
X509078Y403588D01*
X510422Y404486D01*
X511320Y405830D01*
X511636Y407416D01*
X511320Y409002D01*
X510422Y410346D01*
X509078Y411244D01*
X507492Y411560D01*
D02*
G37*
G36*
X378460Y437722D02*
X376874Y437406D01*
X375530Y436508D01*
X374632Y435164D01*
X374316Y433578D01*
X374632Y431992D01*
X375530Y430648D01*
X375611Y430594D01*
Y410654D01*
X375530Y410600D01*
X374632Y409256D01*
X374316Y407670D01*
X374632Y406084D01*
X375063Y405439D01*
X374384Y404169D01*
X374142D01*
X373052Y403952D01*
X372128Y403334D01*
X371014Y402888D01*
X367339Y406564D01*
Y421422D01*
X367339Y421422D01*
X367122Y422512D01*
X366504Y423437D01*
X366504Y423437D01*
X364254Y425686D01*
X363330Y426304D01*
X362240Y426521D01*
X362240Y426521D01*
X341566D01*
X341512Y426602D01*
X340168Y427500D01*
X338582Y427816D01*
X336996Y427500D01*
X335652Y426602D01*
X334754Y425258D01*
X334438Y423672D01*
X334754Y422086D01*
X335652Y420742D01*
X336996Y419844D01*
X338582Y419528D01*
X340168Y419844D01*
X341512Y420742D01*
X341566Y420823D01*
X361060D01*
X361641Y420242D01*
Y413558D01*
X360371Y413173D01*
X360054Y413648D01*
X358710Y414546D01*
X357124Y414862D01*
X355538Y414546D01*
X354194Y413648D01*
X353296Y412304D01*
X352980Y410718D01*
X353296Y409132D01*
X354194Y407788D01*
X354761Y407409D01*
Y404644D01*
X354761Y404644D01*
X354978Y403554D01*
X355596Y402630D01*
X359477Y398748D01*
X359084Y397346D01*
X358012Y396629D01*
X357114Y395285D01*
X356798Y393699D01*
X357114Y392114D01*
X358012Y390769D01*
X358093Y390715D01*
Y387696D01*
X351934D01*
Y373648D01*
X358610D01*
X358928Y373173D01*
X359944Y372157D01*
X360868Y371539D01*
X361958Y371323D01*
X363048Y371539D01*
X363972Y372157D01*
X364590Y373081D01*
X364702Y373648D01*
X371982D01*
Y387696D01*
X363791D01*
Y390715D01*
X363872Y390769D01*
X364588Y391841D01*
X365991Y392235D01*
X367810Y390416D01*
X367810Y390416D01*
X368734Y389798D01*
X369824Y389581D01*
X369824Y389581D01*
X422238D01*
X437014Y374805D01*
X436966Y374561D01*
X437281Y372976D01*
X438179Y371631D01*
X439524Y370733D01*
X441109Y370418D01*
X442695Y370733D01*
X444039Y371631D01*
X444900Y372920D01*
X445051Y373084D01*
X446252Y373364D01*
X451359Y368256D01*
X450982Y366838D01*
X449952Y366149D01*
X449898Y366068D01*
X437988D01*
X436274Y367213D01*
X434094Y367647D01*
X431914Y367213D01*
X430065Y365978D01*
X430062Y365973D01*
X427570D01*
Y357925D01*
X428396D01*
Y349831D01*
X428830Y347651D01*
X430065Y345803D01*
X431914Y344568D01*
X433496Y344253D01*
Y339733D01*
X447544D01*
Y346909D01*
X451743D01*
X451819Y346832D01*
X451856Y346648D01*
X452754Y345303D01*
X454098Y344405D01*
X455684Y344090D01*
X457270Y344405D01*
X458614Y345303D01*
X459512Y346648D01*
X459828Y348233D01*
X459512Y349819D01*
X458614Y351163D01*
X457270Y352062D01*
X455684Y352377D01*
X454410Y352124D01*
X454013Y352389D01*
X452923Y352606D01*
X452923Y352606D01*
X447544D01*
Y359781D01*
X448570Y360371D01*
X449898D01*
X449952Y360289D01*
X451296Y359391D01*
X452882Y359076D01*
X454468Y359391D01*
X455812Y360289D01*
X456500Y361320D01*
X457919Y361697D01*
X466797Y352819D01*
Y342582D01*
X466716Y342528D01*
X465818Y341184D01*
X465502Y339598D01*
X465818Y338012D01*
X466716Y336668D01*
X468060Y335770D01*
X469646Y335454D01*
X471232Y335770D01*
X472576Y336668D01*
X473474Y338012D01*
X473790Y339598D01*
X473474Y341184D01*
X472576Y342528D01*
X472495Y342582D01*
Y353999D01*
X472278Y355089D01*
X471660Y356013D01*
X471660Y356013D01*
X424339Y403334D01*
X423415Y403952D01*
X422325Y404169D01*
X422325Y404169D01*
X382536D01*
X381857Y405439D01*
X382288Y406084D01*
X382604Y407670D01*
X382288Y409256D01*
X381390Y410600D01*
X381309Y410654D01*
Y430594D01*
X381390Y430648D01*
X382288Y431992D01*
X382604Y433578D01*
X382288Y435164D01*
X381390Y436508D01*
X380046Y437406D01*
X378460Y437722D01*
D02*
G37*
G36*
X604901Y405130D02*
X591947D01*
X588621Y401804D01*
X565404D01*
X564916Y401740D01*
X557474D01*
Y387692D01*
X570522D01*
Y388644D01*
X590145D01*
X591947Y386842D01*
X604901D01*
X609473Y391414D01*
Y400558D01*
X604901Y405130D01*
D02*
G37*
G36*
X47625Y400812D02*
X34671D01*
X30099Y396240D01*
Y387096D01*
X34671Y382524D01*
X47625D01*
X48157Y383056D01*
X66176D01*
X67879Y383280D01*
X68106Y383374D01*
X73090D01*
Y397422D01*
X60042D01*
Y396216D01*
X52197D01*
Y396240D01*
X47625Y400812D01*
D02*
G37*
G36*
X507492Y386160D02*
X505906Y385844D01*
X504562Y384946D01*
X503664Y383602D01*
X503348Y382016D01*
X503664Y380430D01*
X504562Y379086D01*
X505906Y378188D01*
X507492Y377872D01*
X509078Y378188D01*
X510422Y379086D01*
X511320Y380430D01*
X511636Y382016D01*
X511320Y383602D01*
X510422Y384946D01*
X509078Y385844D01*
X507492Y386160D01*
D02*
G37*
G36*
X604901Y379730D02*
X591947D01*
X588875Y376658D01*
X570522D01*
Y377102D01*
X557474D01*
Y363054D01*
X570522D01*
Y363498D01*
X589891D01*
X591947Y361442D01*
X604901D01*
X609473Y366014D01*
Y375158D01*
X604901Y379730D01*
D02*
G37*
G36*
X122451Y382073D02*
X120865Y381757D01*
X119521Y380859D01*
X118623Y379515D01*
X118307Y377929D01*
X118623Y376343D01*
X119521Y374999D01*
X120865Y374101D01*
X122451Y373785D01*
X124037Y374101D01*
X125381Y374999D01*
X126279Y376343D01*
X126595Y377929D01*
X126279Y379515D01*
X125381Y380859D01*
X124037Y381757D01*
X122451Y382073D01*
D02*
G37*
G36*
X240292Y377923D02*
X238197Y377647D01*
X236245Y376838D01*
X234569Y375552D01*
X233283Y373876D01*
X232883Y372911D01*
X228822D01*
Y374353D01*
X220774D01*
Y365305D01*
X228822D01*
Y366748D01*
X232883D01*
X233283Y365783D01*
X234569Y364107D01*
X236245Y362820D01*
X238197Y362012D01*
X240292Y361736D01*
X242387Y362012D01*
X244339Y362820D01*
X246015Y364107D01*
X247301Y365783D01*
X248109Y367735D01*
X248385Y369829D01*
X248109Y371924D01*
X247301Y373876D01*
X246015Y375552D01*
X244339Y376838D01*
X242387Y377647D01*
X240292Y377923D01*
D02*
G37*
G36*
X47625Y375412D02*
X34671D01*
X30099Y370840D01*
Y361696D01*
X34671Y357124D01*
X47625D01*
X50189Y359688D01*
X63890D01*
X64378Y359752D01*
X71684D01*
Y373800D01*
X58636D01*
Y372848D01*
X50189D01*
X47625Y375412D01*
D02*
G37*
G36*
X509756Y363023D02*
X508170Y362708D01*
X506826Y361810D01*
X505928Y360466D01*
X505612Y358880D01*
X505928Y357294D01*
X506826Y355950D01*
X508170Y355052D01*
X509756Y354736D01*
X511342Y355052D01*
X512686Y355950D01*
X513584Y357294D01*
X513899Y358880D01*
X513584Y360466D01*
X512686Y361810D01*
X511342Y362708D01*
X509756Y363023D01*
D02*
G37*
G36*
X604901Y354330D02*
X591947D01*
X587859Y350242D01*
X571030D01*
Y351194D01*
X557982D01*
Y337146D01*
X566948D01*
X567436Y337082D01*
X590907D01*
X591947Y336042D01*
X604901D01*
X609473Y340614D01*
Y349758D01*
X604901Y354330D01*
D02*
G37*
G36*
X117522Y357284D02*
X115936Y356968D01*
X114592Y356070D01*
X113694Y354726D01*
X113378Y353140D01*
X113694Y351554D01*
X114592Y350210D01*
X115936Y349312D01*
X117522Y348996D01*
X119108Y349312D01*
X120452Y350210D01*
X121350Y351554D01*
X121666Y353140D01*
X121350Y354726D01*
X120452Y356070D01*
X119108Y356968D01*
X117522Y357284D01*
D02*
G37*
G36*
X240292Y346923D02*
X238197Y346647D01*
X236245Y345838D01*
X234569Y344552D01*
X233283Y342876D01*
X232883Y341911D01*
X228822D01*
Y343353D01*
X220774D01*
Y334305D01*
X228822D01*
Y335748D01*
X232883D01*
X233283Y334783D01*
X234569Y333107D01*
X236245Y331820D01*
X238197Y331012D01*
X240292Y330736D01*
X242387Y331012D01*
X244339Y331820D01*
X246015Y333107D01*
X247301Y334783D01*
X248109Y336735D01*
X248385Y338829D01*
X248109Y340924D01*
X247301Y342876D01*
X246015Y344552D01*
X244339Y345838D01*
X242387Y346647D01*
X240292Y346923D01*
D02*
G37*
G36*
X47625Y350012D02*
X34671D01*
X30099Y345440D01*
Y336296D01*
X34671Y331724D01*
X47625D01*
X49935Y334034D01*
X57874D01*
Y333590D01*
X70922D01*
Y340185D01*
X70978Y340614D01*
X70922Y341043D01*
Y347638D01*
X57874D01*
Y347194D01*
X50443D01*
X47625Y350012D01*
D02*
G37*
G36*
X507492Y335360D02*
X505906Y335044D01*
X504562Y334146D01*
X503664Y332802D01*
X503348Y331216D01*
X503664Y329630D01*
X504562Y328286D01*
X505906Y327388D01*
X507492Y327072D01*
X509078Y327388D01*
X510422Y328286D01*
X511320Y329630D01*
X511636Y331216D01*
X511320Y332802D01*
X510422Y334146D01*
X509078Y335044D01*
X507492Y335360D01*
D02*
G37*
G36*
X604901Y328930D02*
X591947D01*
X589637Y326620D01*
X570268D01*
Y327064D01*
X557220D01*
Y313016D01*
X570268D01*
Y313460D01*
X589129D01*
X591947Y310642D01*
X604901D01*
X609473Y315214D01*
Y324358D01*
X604901Y328930D01*
D02*
G37*
G36*
X121164Y331290D02*
X119578Y330974D01*
X118234Y330076D01*
X117336Y328732D01*
X117020Y327146D01*
X117336Y325560D01*
X118234Y324216D01*
X119578Y323318D01*
X121164Y323003D01*
X122750Y323318D01*
X124094Y324216D01*
X124992Y325560D01*
X125308Y327146D01*
X124992Y328732D01*
X124094Y330076D01*
X122750Y330974D01*
X121164Y331290D01*
D02*
G37*
G36*
X309126Y336858D02*
X309126Y336858D01*
X259088D01*
X257998Y336641D01*
X257074Y336024D01*
X257074Y336024D01*
X240682Y319632D01*
X238006Y319984D01*
X235193Y319614D01*
X232572Y318528D01*
X230322Y316801D01*
X228595Y314551D01*
X227509Y311930D01*
X227139Y309117D01*
X227509Y306305D01*
X228595Y303684D01*
X230322Y301433D01*
X232572Y299706D01*
X235193Y298621D01*
X238006Y298250D01*
X240819Y298621D01*
X243439Y299706D01*
X245690Y301433D01*
X247417Y303684D01*
X248503Y306305D01*
X248873Y309117D01*
X248503Y311930D01*
X247417Y314551D01*
X245785Y316678D01*
X260268Y331161D01*
X307946D01*
X318209Y320897D01*
X318190Y320801D01*
X318506Y319216D01*
X319404Y317871D01*
X320748Y316973D01*
X322334Y316658D01*
X322638Y316718D01*
X323698Y316002D01*
X322926Y315226D01*
X322588Y315293D01*
X321002Y314978D01*
X319658Y314079D01*
X318760Y312735D01*
X318444Y311149D01*
X318760Y309564D01*
X319658Y308219D01*
X321002Y307321D01*
X322588Y307006D01*
X324174Y307321D01*
X325518Y308219D01*
X326416Y309564D01*
X326453Y309748D01*
X328613Y311909D01*
X332323D01*
Y308537D01*
X332304D01*
Y305362D01*
X324791D01*
X324791Y305362D01*
X323701Y305145D01*
X322777Y304528D01*
X322741Y304492D01*
X322072Y304625D01*
X320486Y304310D01*
X319142Y303411D01*
X318244Y302067D01*
X317928Y300481D01*
X318244Y298896D01*
X319142Y297551D01*
X320486Y296653D01*
X322072Y296338D01*
X323658Y296653D01*
X325002Y297551D01*
X325900Y298896D01*
X326053Y299665D01*
X332304D01*
Y296489D01*
X343352D01*
Y300868D01*
X343717Y302705D01*
Y314757D01*
X343544Y315630D01*
X343544Y320781D01*
X343544Y322051D01*
Y332921D01*
X332496D01*
Y329746D01*
X328430D01*
X328430Y329746D01*
X327340Y329529D01*
X326416Y328912D01*
X326416Y328912D01*
X322430Y324926D01*
X322334Y324945D01*
X322238Y324926D01*
X311140Y336024D01*
X310216Y336641D01*
X309126Y336858D01*
D02*
G37*
G36*
X47625Y324612D02*
X34671D01*
X30099Y320040D01*
Y310896D01*
X34671Y306324D01*
X47625D01*
X49935Y308634D01*
X58890D01*
Y308444D01*
X71938D01*
Y322492D01*
X58890D01*
Y321794D01*
X50443D01*
X47625Y324612D01*
D02*
G37*
G36*
X510074Y312542D02*
X508488Y312226D01*
X507144Y311328D01*
X506246Y309984D01*
X505930Y308398D01*
X506246Y306812D01*
X507144Y305468D01*
X508488Y304570D01*
X510074Y304254D01*
X511660Y304570D01*
X513004Y305468D01*
X513902Y306812D01*
X514218Y308398D01*
X513902Y309984D01*
X513004Y311328D01*
X511660Y312226D01*
X510074Y312542D01*
D02*
G37*
G36*
X604901Y303530D02*
X591947D01*
X589637Y301220D01*
X570776D01*
Y301410D01*
X557728D01*
Y287362D01*
X570776D01*
Y288060D01*
X589129D01*
X591947Y285242D01*
X604901D01*
X609473Y289814D01*
Y298958D01*
X604901Y303530D01*
D02*
G37*
G36*
X123952Y304372D02*
X122366Y304056D01*
X121022Y303158D01*
X120124Y301814D01*
X119808Y300228D01*
X120124Y298642D01*
X121022Y297298D01*
X122366Y296400D01*
X123952Y296084D01*
X125538Y296400D01*
X126882Y297298D01*
X127780Y298642D01*
X128096Y300228D01*
X127780Y301814D01*
X126882Y303158D01*
X125538Y304056D01*
X123952Y304372D01*
D02*
G37*
G36*
X47625Y299212D02*
X34671D01*
X30099Y294640D01*
Y285496D01*
X34671Y280924D01*
X47625D01*
X50189Y283488D01*
X59906D01*
Y281774D01*
X72954D01*
Y288157D01*
X73040Y288365D01*
X73264Y290068D01*
X73040Y291771D01*
X72954Y291979D01*
Y295822D01*
X69841D01*
X68387Y296424D01*
X66684Y296648D01*
X50189D01*
X47625Y299212D01*
D02*
G37*
G36*
X117637Y286303D02*
X116051Y285987D01*
X114707Y285089D01*
X113809Y283745D01*
X113493Y282159D01*
X113809Y280573D01*
X114707Y279229D01*
X116051Y278331D01*
X117637Y278015D01*
X119223Y278331D01*
X120567Y279229D01*
X121465Y280573D01*
X121781Y282159D01*
X121465Y283745D01*
X120567Y285089D01*
X119223Y285987D01*
X117637Y286303D01*
D02*
G37*
G36*
X507492Y284560D02*
X505906Y284244D01*
X504562Y283346D01*
X503664Y282002D01*
X503348Y280416D01*
X503664Y278830D01*
X504562Y277486D01*
X505906Y276588D01*
X507492Y276272D01*
X509078Y276588D01*
X510422Y277486D01*
X511320Y278830D01*
X511636Y280416D01*
X511320Y282002D01*
X510422Y283346D01*
X509078Y284244D01*
X507492Y284560D01*
D02*
G37*
G36*
X604901Y278130D02*
X591947D01*
X588367Y274550D01*
X570014D01*
Y274994D01*
X556966D01*
Y260946D01*
X570014D01*
Y261390D01*
X590399D01*
X591947Y259842D01*
X604901D01*
X609473Y264414D01*
Y273558D01*
X604901Y278130D01*
D02*
G37*
G36*
X47625Y273812D02*
X34671D01*
X30099Y269240D01*
Y260096D01*
X34671Y255524D01*
X47625D01*
X50189Y258088D01*
X59398D01*
Y257644D01*
X72446D01*
Y261530D01*
X73040Y262965D01*
X73264Y264668D01*
X73040Y266371D01*
X72446Y267806D01*
Y271692D01*
X59398D01*
Y271248D01*
X50189D01*
X47625Y273812D01*
D02*
G37*
G36*
X412870Y285097D02*
X400820D01*
X398640Y284663D01*
X396791Y283428D01*
X395556Y281580D01*
X395227Y279923D01*
X391304D01*
Y265875D01*
X398479D01*
Y262318D01*
X398398Y262263D01*
X397500Y260919D01*
X397184Y259333D01*
X397500Y257748D01*
X398398Y256403D01*
X399742Y255505D01*
X401328Y255190D01*
X402914Y255505D01*
X404258Y256403D01*
X405156Y257748D01*
X405472Y259333D01*
X405156Y260919D01*
X404258Y262263D01*
X404177Y262318D01*
Y265875D01*
X410671D01*
Y262318D01*
X410590Y262263D01*
X409692Y260919D01*
X409376Y259333D01*
X409692Y257748D01*
X410590Y256403D01*
X411934Y255505D01*
X413520Y255190D01*
X415106Y255505D01*
X416450Y256403D01*
X417348Y257748D01*
X417664Y259333D01*
X417348Y260919D01*
X416450Y262263D01*
X416369Y262318D01*
Y273622D01*
X425632D01*
Y284670D01*
X415016D01*
X412870Y285097D01*
D02*
G37*
G36*
X509626Y261293D02*
X508040Y260978D01*
X506696Y260079D01*
X505797Y258735D01*
X505482Y257150D01*
X505797Y255564D01*
X506696Y254219D01*
X508040Y253321D01*
X509626Y253006D01*
X511211Y253321D01*
X512556Y254219D01*
X513454Y255564D01*
X513769Y257150D01*
X513454Y258735D01*
X512556Y260079D01*
X511211Y260978D01*
X509626Y261293D01*
D02*
G37*
G36*
X116172Y256779D02*
X114587Y256464D01*
X113242Y255566D01*
X112344Y254221D01*
X112029Y252636D01*
X112344Y251050D01*
X113242Y249706D01*
X114587Y248808D01*
X116172Y248492D01*
X117758Y248808D01*
X119102Y249706D01*
X120000Y251050D01*
X120316Y252636D01*
X120000Y254221D01*
X119102Y255566D01*
X117758Y256464D01*
X116172Y256779D01*
D02*
G37*
G36*
X604901Y252730D02*
X591947D01*
X589637Y250420D01*
X565912D01*
X565424Y250356D01*
X556966D01*
Y236308D01*
X570014D01*
Y237260D01*
X589129D01*
X591947Y234442D01*
X604901D01*
X609473Y239014D01*
Y248158D01*
X604901Y252730D01*
D02*
G37*
G36*
X47625Y248412D02*
X34671D01*
X30099Y243840D01*
Y234696D01*
X34671Y230124D01*
X47625D01*
X50189Y232688D01*
X60160D01*
Y232498D01*
X73208D01*
Y238839D01*
X73264Y239268D01*
X73208Y239697D01*
Y246546D01*
X60160D01*
Y245848D01*
X50189D01*
X47625Y248412D01*
D02*
G37*
G36*
X507492Y233760D02*
X505906Y233444D01*
X504562Y232546D01*
X503664Y231202D01*
X503348Y229616D01*
X503664Y228030D01*
X504562Y226686D01*
X505906Y225788D01*
X507492Y225472D01*
X509078Y225788D01*
X510422Y226686D01*
X511320Y228030D01*
X511636Y229616D01*
X511320Y231202D01*
X510422Y232546D01*
X509078Y233444D01*
X507492Y233760D01*
D02*
G37*
G36*
X119126Y230204D02*
X117540Y229888D01*
X116196Y228990D01*
X115298Y227646D01*
X114982Y226060D01*
X115298Y224474D01*
X116196Y223130D01*
X117540Y222232D01*
X119126Y221916D01*
X120712Y222232D01*
X122056Y223130D01*
X122954Y224474D01*
X123270Y226060D01*
X122954Y227646D01*
X122056Y228990D01*
X120712Y229888D01*
X119126Y230204D01*
D02*
G37*
G36*
X604901Y227330D02*
X591947D01*
X589383Y224766D01*
X567436D01*
X566948Y224702D01*
X556966D01*
Y210654D01*
X570014D01*
Y211606D01*
X589383D01*
X591947Y209042D01*
X604901D01*
X609473Y213614D01*
Y222758D01*
X604901Y227330D01*
D02*
G37*
G36*
X47625Y223012D02*
X34671D01*
X30099Y218440D01*
Y209296D01*
X34671Y204724D01*
X47625D01*
X50189Y207288D01*
X60668D01*
Y206336D01*
X73716D01*
Y220384D01*
X67172D01*
X66684Y220448D01*
X50189D01*
X47625Y223012D01*
D02*
G37*
G36*
X510258Y211126D02*
X508673Y210811D01*
X507328Y209912D01*
X506430Y208568D01*
X506115Y206982D01*
X506430Y205397D01*
X507328Y204052D01*
X508673Y203154D01*
X510258Y202839D01*
X511844Y203154D01*
X513188Y204052D01*
X514087Y205397D01*
X514402Y206982D01*
X514087Y208568D01*
X513188Y209912D01*
X511844Y210811D01*
X510258Y211126D01*
D02*
G37*
G36*
X604901Y201930D02*
X591947D01*
X589129Y199112D01*
X570268D01*
Y199302D01*
X557220D01*
Y185254D01*
X570268D01*
Y185952D01*
X589637D01*
X591947Y183642D01*
X604901D01*
X609473Y188214D01*
Y197358D01*
X604901Y201930D01*
D02*
G37*
G36*
X117730Y204931D02*
X116144Y204616D01*
X114800Y203718D01*
X113902Y202374D01*
X113586Y200788D01*
X113902Y199202D01*
X114800Y197858D01*
X116144Y196960D01*
X117730Y196644D01*
X119316Y196960D01*
X120660Y197858D01*
X121558Y199202D01*
X121873Y200788D01*
X121558Y202374D01*
X120660Y203718D01*
X119316Y204616D01*
X117730Y204931D01*
D02*
G37*
G36*
X47625Y197612D02*
X34671D01*
X30099Y193040D01*
Y183896D01*
X34671Y179324D01*
X47625D01*
X50189Y181888D01*
X60922D01*
Y181444D01*
X73970D01*
Y195492D01*
X60922D01*
Y195048D01*
X50189D01*
X47625Y197612D01*
D02*
G37*
G36*
X111505Y186009D02*
X109919Y185693D01*
X108575Y184795D01*
X107677Y183451D01*
X107361Y181865D01*
X107677Y180279D01*
X108575Y178935D01*
X109919Y178037D01*
X111505Y177721D01*
X113091Y178037D01*
X114435Y178935D01*
X115333Y180279D01*
X115649Y181865D01*
X115333Y183451D01*
X114435Y184795D01*
X113091Y185693D01*
X111505Y186009D01*
D02*
G37*
G36*
X510225Y185692D02*
X508639Y185377D01*
X507295Y184479D01*
X506396Y183134D01*
X506081Y181549D01*
X506396Y179963D01*
X507295Y178619D01*
X508639Y177720D01*
X510225Y177405D01*
X511810Y177720D01*
X513155Y178619D01*
X514053Y179963D01*
X514368Y181549D01*
X514053Y183134D01*
X513155Y184479D01*
X511810Y185377D01*
X510225Y185692D01*
D02*
G37*
G36*
X604901Y176530D02*
X591947D01*
X589637Y174220D01*
X570522D01*
Y174410D01*
X557474D01*
Y160362D01*
X570522D01*
Y161060D01*
X589129D01*
X591947Y158242D01*
X604901D01*
X609473Y162814D01*
Y171958D01*
X604901Y176530D01*
D02*
G37*
G36*
X47625Y172212D02*
X34671D01*
X30099Y167640D01*
Y158496D01*
X34671Y153924D01*
X47625D01*
X50189Y156488D01*
X66684D01*
X67172Y156552D01*
X73090D01*
Y161744D01*
X73264Y163068D01*
X73090Y164392D01*
Y170600D01*
X60042D01*
Y169648D01*
X50189D01*
X47625Y172212D01*
D02*
G37*
G36*
X511049Y161117D02*
X509463Y160801D01*
X508119Y159903D01*
X507221Y158559D01*
X506905Y156973D01*
X507221Y155387D01*
X508119Y154043D01*
X509463Y153145D01*
X511049Y152829D01*
X512635Y153145D01*
X513979Y154043D01*
X514877Y155387D01*
X515193Y156973D01*
X514877Y158559D01*
X513979Y159903D01*
X512635Y160801D01*
X511049Y161117D01*
D02*
G37*
G36*
X118109Y156799D02*
X116523Y156483D01*
X115179Y155585D01*
X114281Y154241D01*
X113965Y152655D01*
X114281Y151069D01*
X115179Y149725D01*
X116523Y148827D01*
X118109Y148511D01*
X119695Y148827D01*
X121039Y149725D01*
X121937Y151069D01*
X122253Y152655D01*
X121937Y154241D01*
X121039Y155585D01*
X119695Y156483D01*
X118109Y156799D01*
D02*
G37*
G36*
X604901Y151130D02*
X591947D01*
X588621Y147804D01*
X570776D01*
Y148248D01*
X557728D01*
Y134200D01*
X570776D01*
Y134644D01*
X590145D01*
X591947Y132842D01*
X604901D01*
X609473Y137414D01*
Y146558D01*
X604901Y151130D01*
D02*
G37*
G36*
X47625Y146812D02*
X34671D01*
X30099Y142240D01*
Y133096D01*
X34671Y128524D01*
X47625D01*
X50189Y131088D01*
X60414D01*
Y130390D01*
X73462D01*
Y144438D01*
X60414D01*
Y144248D01*
X50189D01*
X47625Y146812D01*
D02*
G37*
G36*
X508216Y132883D02*
X506630Y132568D01*
X505286Y131670D01*
X504388Y130325D01*
X504072Y128740D01*
X504388Y127154D01*
X505286Y125810D01*
X506630Y124911D01*
X508216Y124596D01*
X509801Y124911D01*
X511146Y125810D01*
X512044Y127154D01*
X512359Y128740D01*
X512044Y130325D01*
X511146Y131670D01*
X509801Y132568D01*
X508216Y132883D01*
D02*
G37*
G36*
X604901Y125730D02*
X591947D01*
X587605Y121388D01*
X569252D01*
Y121832D01*
X556204D01*
Y107784D01*
X569252D01*
Y108228D01*
X591161D01*
X591947Y107442D01*
X604901D01*
X609473Y112014D01*
Y121158D01*
X604901Y125730D01*
D02*
G37*
G36*
X100838Y129112D02*
X99252Y128796D01*
X97908Y127898D01*
X97010Y126554D01*
X96694Y124968D01*
X97010Y123382D01*
X97908Y122038D01*
X99252Y121140D01*
X100838Y120824D01*
X102424Y121140D01*
X103768Y122038D01*
X104666Y123382D01*
X104982Y124968D01*
X104666Y126554D01*
X103768Y127898D01*
X102424Y128796D01*
X100838Y129112D01*
D02*
G37*
G36*
X47625Y121412D02*
X34671D01*
X30099Y116840D01*
Y107696D01*
X34671Y103124D01*
X47625D01*
X50189Y105688D01*
X60160D01*
Y105498D01*
X73208D01*
Y111839D01*
X73264Y112268D01*
X73208Y112697D01*
Y119546D01*
X60160D01*
Y118848D01*
X50189D01*
X47625Y121412D01*
D02*
G37*
G36*
X507492Y106760D02*
X505906Y106444D01*
X504562Y105546D01*
X503664Y104202D01*
X503348Y102616D01*
X503664Y101030D01*
X504562Y99686D01*
X505906Y98788D01*
X507492Y98472D01*
X509078Y98788D01*
X510422Y99686D01*
X511320Y101030D01*
X511636Y102616D01*
X511320Y104202D01*
X510422Y105546D01*
X509078Y106444D01*
X507492Y106760D01*
D02*
G37*
G36*
X604901Y100330D02*
X591947D01*
X588367Y96750D01*
X568998D01*
Y97194D01*
X555950D01*
Y83146D01*
X568998D01*
Y83590D01*
X590399D01*
X591947Y82042D01*
X604901D01*
X609473Y86614D01*
Y95758D01*
X604901Y100330D01*
D02*
G37*
G36*
X128270Y104982D02*
X126684Y104666D01*
X125340Y103768D01*
X124442Y102424D01*
X124126Y100838D01*
X124442Y99252D01*
X125340Y97908D01*
X126684Y97010D01*
X128270Y96694D01*
X129856Y97010D01*
X131200Y97908D01*
X132098Y99252D01*
X132414Y100838D01*
X132098Y102424D01*
X131200Y103768D01*
X129856Y104666D01*
X128270Y104982D01*
D02*
G37*
G36*
X90208Y93892D02*
X77160D01*
Y79844D01*
X90208D01*
Y81042D01*
X123568D01*
X124206Y80915D01*
X126387Y81349D01*
X128235Y82585D01*
X129471Y84433D01*
X129904Y86614D01*
X129471Y88795D01*
X128235Y90643D01*
X128108Y90770D01*
X126260Y92006D01*
X124079Y92439D01*
X90208D01*
Y93892D01*
D02*
G37*
G36*
X47625Y96012D02*
X34671D01*
X30099Y91440D01*
Y82296D01*
X34671Y77724D01*
X47625D01*
X50189Y80288D01*
X60160D01*
Y79844D01*
X73208D01*
Y86440D01*
X73264Y86868D01*
X73208Y87296D01*
Y93892D01*
X60160D01*
Y93448D01*
X50189D01*
X47625Y96012D01*
D02*
G37*
G36*
X519684Y86186D02*
X518098Y85870D01*
X516754Y84972D01*
X515856Y83628D01*
X515540Y82042D01*
X515856Y80456D01*
X516754Y79112D01*
X518098Y78214D01*
X519684Y77898D01*
X521270Y78214D01*
X522614Y79112D01*
X523512Y80456D01*
X523828Y82042D01*
X523512Y83628D01*
X522614Y84972D01*
X521270Y85870D01*
X519684Y86186D01*
D02*
G37*
%LPD*%
D13*
X361958Y352043D02*
Y360171D01*
X401836Y293907D02*
Y311149D01*
X401328Y293399D02*
X413378D01*
X83684Y86868D02*
X83938Y86614D01*
X360942Y375187D02*
Y393699D01*
X364490Y405384D02*
Y421422D01*
X338582Y423672D02*
X362240D01*
X364490Y421422D01*
X357124Y410718D02*
X357610Y410232D01*
X370296Y399578D02*
X372400D01*
X364490Y405384D02*
X370296Y399578D01*
X372400D02*
X374142Y401320D01*
X357610Y404644D02*
Y410232D01*
Y404644D02*
X369824Y392430D01*
X374142Y401320D02*
X422325D01*
X469646Y353999D01*
Y339598D02*
Y353999D01*
X441109Y374561D02*
Y374739D01*
X423418Y392430D02*
X441109Y374739D01*
X378460Y407670D02*
Y433578D01*
X369824Y392430D02*
X423418D01*
X435364Y363219D02*
X452882D01*
X454447Y348233D02*
X455684D01*
X434020Y349757D02*
X452923D01*
X454447Y348233D01*
X434094Y361949D02*
X435364Y363219D01*
X322759Y300481D02*
X324791Y302513D01*
X322072Y300481D02*
X322759D01*
X324791Y302513D02*
X337828D01*
X401328Y259333D02*
Y279399D01*
X224798Y349311D02*
Y359829D01*
X400820Y346201D02*
X401146Y346527D01*
X420020Y349757D02*
X420094Y349831D01*
X413378Y293399D02*
X413520Y293257D01*
X401328Y293399D02*
X401836Y293907D01*
X361958Y352043D02*
X369070Y344931D01*
X223568Y350541D02*
X224798Y349311D01*
X211060Y350541D02*
X223568D01*
X224798Y348829D02*
Y349311D01*
X210574Y351027D02*
X211060Y350541D01*
X351828Y302513D02*
X352020Y302705D01*
X413520Y259333D02*
Y279257D01*
X413378Y279399D02*
X413520Y279257D01*
X434020Y349757D02*
X434094Y349831D01*
X360942Y375187D02*
X361958Y374171D01*
X337828Y302513D02*
X338020Y302705D01*
X323825Y311149D02*
X327433Y314757D01*
X322588Y311149D02*
X323825D01*
X327433Y314757D02*
X338020D01*
X238006Y309117D02*
Y312927D01*
X259088Y334009D01*
X309126D01*
X322334Y320801D01*
X328430Y326897D01*
X338020D01*
X496316Y119888D02*
X496660D01*
D17*
X83684Y239522D02*
D03*
X66684D02*
D03*
X84192Y213360D02*
D03*
X67192D02*
D03*
X66684Y86868D02*
D03*
X83684D02*
D03*
X83566Y163576D02*
D03*
X66566D02*
D03*
X83684Y112522D02*
D03*
X66684D02*
D03*
X83938Y137414D02*
D03*
X66938D02*
D03*
X84446Y188468D02*
D03*
X67446D02*
D03*
X83430Y288798D02*
D03*
X66430D02*
D03*
X82922Y264668D02*
D03*
X65922D02*
D03*
X81398Y340614D02*
D03*
X64398D02*
D03*
X82414Y315468D02*
D03*
X65414D02*
D03*
X82922Y417576D02*
D03*
X65922D02*
D03*
X82160Y366776D02*
D03*
X65160D02*
D03*
X83566Y390398D02*
D03*
X66566D02*
D03*
X563490Y472186D02*
D03*
X546490D02*
D03*
X563998Y446278D02*
D03*
X546998D02*
D03*
X563490Y421386D02*
D03*
X546490D02*
D03*
X563998Y394716D02*
D03*
X546998D02*
D03*
X563998Y370078D02*
D03*
X546998D02*
D03*
X564506Y344170D02*
D03*
X547506D02*
D03*
X563744Y320040D02*
D03*
X546744D02*
D03*
X564252Y294386D02*
D03*
X547252D02*
D03*
X563490Y267970D02*
D03*
X546490D02*
D03*
X563490Y243332D02*
D03*
X546490D02*
D03*
X563490Y217678D02*
D03*
X546490D02*
D03*
X563744Y192278D02*
D03*
X546744D02*
D03*
X563998Y167386D02*
D03*
X546998D02*
D03*
X564252Y141224D02*
D03*
X547252D02*
D03*
X562728Y114808D02*
D03*
X545728D02*
D03*
X562474Y90170D02*
D03*
X545474D02*
D03*
D22*
X422094Y361949D02*
D03*
X432094D02*
D03*
D26*
X401328Y272899D02*
D03*
Y299899D02*
D03*
X361958Y380672D02*
D03*
Y353671D02*
D03*
D47*
X124079Y86741D02*
X124206Y86614D01*
X84065Y86741D02*
X124079D01*
X500978Y471170D02*
X547252D01*
X500978Y445770D02*
X547252D01*
X500978Y420370D02*
X547252D01*
X500978Y369570D02*
X547252D01*
X500978Y318770D02*
X547252D01*
X500978Y394970D02*
X547252D01*
X500978Y242570D02*
X547252D01*
X500978Y217170D02*
X547252D01*
X500978Y293370D02*
X547252D01*
X546490Y267970D02*
X547252D01*
X500978D02*
X546490D01*
X500978Y166370D02*
X547252D01*
X500978Y140970D02*
X547252D01*
X500978Y115570D02*
X547252D01*
X500978Y191770D02*
X547252D01*
X493522Y91440D02*
X545728D01*
X84065Y213741D02*
X124079D01*
X84065Y188341D02*
X101641D01*
X83938Y86614D02*
X84065Y86741D01*
Y137541D02*
X102224D01*
X84065Y112141D02*
X119228D01*
X102224Y137541D02*
X105831Y133933D01*
X84065Y162941D02*
X124079D01*
X84065Y288589D02*
X84274Y288798D01*
X101222D01*
X83857Y264541D02*
X101716D01*
X101222Y288798D02*
X102712Y290288D01*
X101641Y188341D02*
X103294Y189994D01*
X101716Y264541D02*
X105323Y260933D01*
X84065Y239141D02*
X124079D01*
X103294Y189994D02*
X117346D01*
X105323Y260933D02*
X123182D01*
X105831Y133933D02*
X123182D01*
X117346Y189994D02*
X124206Y183134D01*
X123182Y133933D02*
X123308Y134060D01*
X102712Y290288D02*
X121990D01*
X124243Y288035D01*
X123801Y366141D02*
X124206Y365736D01*
X84065Y366141D02*
X123801D01*
X84065Y315341D02*
X123833D01*
X84065Y340741D02*
X124079D01*
X123833Y315341D02*
X124216Y314957D01*
X84065Y391541D02*
X120113D01*
X84065Y416941D02*
X124079D01*
X120113Y391541D02*
X120224Y391652D01*
X496660Y170688D02*
X500978Y166370D01*
X496660Y424688D02*
X500978Y420370D01*
X496660Y475488D02*
X500978Y471170D01*
X496660Y450088D02*
X500978Y445770D01*
X496660Y399288D02*
X500978Y394970D01*
X496660Y373888D02*
X500978Y369570D01*
Y344170D02*
X547252D01*
X496660Y348488D02*
X500978Y344170D01*
X496660Y323088D02*
X500978Y318770D01*
X496660Y297688D02*
X500978Y293370D01*
X496660Y272288D02*
X500978Y267970D01*
X496660Y246888D02*
X500978Y242570D01*
X496660Y221488D02*
X500978Y217170D01*
X496660Y196088D02*
X500978Y191770D01*
X496660Y145288D02*
X500978Y140970D01*
X496660Y119888D02*
X500978Y115570D01*
D49*
X41148Y137668D02*
X66684D01*
X41148Y112268D02*
X66684D01*
X41148Y163068D02*
X66684D01*
X41148Y86868D02*
X66684D01*
X41148Y188468D02*
X66684D01*
X41148Y213868D02*
X66684D01*
X41148Y239268D02*
X66684D01*
X41148Y264668D02*
X66684D01*
X41148Y290068D02*
X66684D01*
X38862Y315214D02*
X64398D01*
X38862Y340614D02*
X64398D01*
X38354Y366268D02*
X63890D01*
X40640Y389636D02*
X66176D01*
X41148Y417068D02*
X66684D01*
X565404Y395224D02*
X598814D01*
X563372Y472440D02*
X596782D01*
X564896Y445770D02*
X598306D01*
X563626Y420878D02*
X597036D01*
X565658Y370078D02*
X599068D01*
X567436Y343662D02*
X600846D01*
X567182Y320040D02*
X600592D01*
X566166Y294640D02*
X599576D01*
X567944Y267970D02*
X601354D01*
X565912Y243840D02*
X599322D01*
X567436Y218186D02*
X600846D01*
X567182Y192532D02*
X600592D01*
X568198Y167640D02*
X601608D01*
X565404Y141224D02*
X598814D01*
X563626Y114808D02*
X597036D01*
X565150Y90170D02*
X598560D01*
D51*
X420094Y349831D02*
Y361949D01*
X415259Y346527D02*
X418053Y349321D01*
X401146Y346527D02*
X415259D01*
X434094Y349831D02*
Y361949D01*
X401328Y279399D02*
X412870D01*
X400820D02*
X401328D01*
X420020Y349385D02*
Y349757D01*
X418053Y349321D02*
X419956D01*
X420020Y349385D01*
X352020Y314757D02*
X373694D01*
X378976Y320039D01*
X352020Y302705D02*
Y314757D01*
Y326897D01*
X338020Y302705D02*
Y314757D01*
D52*
X224798Y338829D02*
X240292D01*
X224798Y369829D02*
X240292D01*
D53*
X41148Y417068D02*
D03*
Y391668D02*
D03*
Y366268D02*
D03*
Y340868D02*
D03*
Y315468D02*
D03*
Y290068D02*
D03*
Y264668D02*
D03*
Y239268D02*
D03*
Y213868D02*
D03*
Y188468D02*
D03*
Y163068D02*
D03*
Y137668D02*
D03*
Y112268D02*
D03*
Y86868D02*
D03*
X598424Y91186D02*
D03*
Y116586D02*
D03*
Y141986D02*
D03*
Y167386D02*
D03*
Y192786D02*
D03*
Y218186D02*
D03*
Y243586D02*
D03*
Y268986D02*
D03*
Y294386D02*
D03*
Y319786D02*
D03*
Y345186D02*
D03*
Y370586D02*
D03*
Y395986D02*
D03*
Y421386D02*
D03*
Y446786D02*
D03*
Y472186D02*
D03*
D54*
X240292Y338829D02*
D03*
Y369829D02*
D03*
D55*
X238006Y309117D02*
D03*
D56*
Y258317D02*
D03*
D57*
X255524Y416560D02*
D03*
X242824D02*
D03*
X278638Y416814D02*
D03*
X291338D02*
D03*
X304038D02*
D03*
D58*
X230124Y416560D02*
D03*
X316738Y416814D02*
D03*
D59*
X26664Y463042D02*
D03*
D60*
Y488442D02*
D03*
D61*
X124206Y86614D02*
D03*
X137414Y85344D02*
D03*
X128270Y100838D02*
D03*
X117730Y200788D02*
D03*
X100838Y124968D02*
D03*
X111505Y181865D02*
D03*
X116172Y252636D02*
D03*
X124243Y288035D02*
D03*
X118109Y152655D02*
D03*
X119126Y226060D02*
D03*
X119228Y112141D02*
D03*
X123182Y260933D02*
D03*
X123308Y134060D02*
D03*
X124206Y183134D02*
D03*
Y162814D02*
D03*
Y213614D02*
D03*
Y239014D02*
D03*
Y365736D02*
D03*
Y416814D02*
D03*
X117522Y353140D02*
D03*
X120224Y391652D02*
D03*
X120903Y407925D02*
D03*
X121164Y327146D02*
D03*
X122451Y377929D02*
D03*
X123952Y300228D02*
D03*
X124206Y340614D02*
D03*
X124216Y314957D02*
D03*
X117637Y282159D02*
D03*
X519684Y82042D02*
D03*
X511049Y156973D02*
D03*
X441109Y374561D02*
D03*
X357124Y410718D02*
D03*
X338582Y423672D02*
D03*
X378460Y433578D02*
D03*
Y407670D02*
D03*
X469646Y339598D02*
D03*
X496316Y424688D02*
D03*
X507492Y102616D02*
D03*
X508216Y128740D02*
D03*
X510225Y181549D02*
D03*
X510258Y206982D02*
D03*
X507492Y229616D02*
D03*
X509626Y257150D02*
D03*
X510074Y308398D02*
D03*
X507492Y331216D02*
D03*
X509756Y358880D02*
D03*
X509911Y435235D02*
D03*
X452882Y363219D02*
D03*
X455684Y348233D02*
D03*
X322072Y300481D02*
D03*
X400820Y346201D02*
D03*
X401836Y311149D02*
D03*
X369070Y344931D02*
D03*
X210574Y351027D02*
D03*
X282202Y278891D02*
D03*
X378976Y320039D02*
D03*
X401328Y259333D02*
D03*
X413520D02*
D03*
X360942Y393699D02*
D03*
X322588Y311149D02*
D03*
X322334Y320801D02*
D03*
X496316Y475488D02*
D03*
X507492Y458216D02*
D03*
X496316Y450088D02*
D03*
X507492Y407416D02*
D03*
X496316Y399288D02*
D03*
X507492Y382016D02*
D03*
X496316Y373888D02*
D03*
Y348488D02*
D03*
Y323088D02*
D03*
Y297688D02*
D03*
X507492Y280416D02*
D03*
X496316Y272288D02*
D03*
Y246888D02*
D03*
Y221488D02*
D03*
Y196088D02*
D03*
Y170688D02*
D03*
Y145288D02*
D03*
Y119888D02*
D03*
X493522Y91440D02*
D03*
X211576Y466598D02*
D03*
X141980Y488188D02*
D03*
D62*
X245358Y441198D02*
D03*
D70*
X440520Y349757D02*
D03*
X413520D02*
D03*
D71*
X224798Y348829D02*
D03*
Y338829D02*
D03*
Y369829D02*
D03*
Y359829D02*
D03*
D72*
X338020Y326897D02*
D03*
X352020D02*
D03*
Y314757D02*
D03*
X338020D02*
D03*
X351828Y302513D02*
D03*
X337828D02*
D03*
D73*
X419608Y279146D02*
D03*
Y293146D02*
D03*
M02*
