G04*
G04 #@! TF.GenerationSoftware,Altium Limited,Altium Designer,23.10.1 (27)*
G04*
G04 Layer_Physical_Order=3*
G04 Layer_Color=128*
%FSLAX44Y44*%
%MOMM*%
G71*
G04*
G04 #@! TF.SameCoordinates,EDDF8714-B4F6-4BBB-B34A-9CA9A18AB3C3*
G04*
G04*
G04 #@! TF.FilePolarity,Negative*
G04*
G01*
G75*
%ADD62C,1.2700*%
%ADD63C,1.0160*%
%ADD64C,2.0160*%
%ADD65C,1.7160*%
%ADD66C,2.1160*%
%ADD67C,1.6160*%
%ADD68C,1.9160*%
%ADD69C,1.7272*%
D62*
X137414Y85344D02*
D03*
X124243Y288035D02*
D03*
X119228Y112141D02*
D03*
X123182Y260933D02*
D03*
X123308Y134060D02*
D03*
X124206Y183134D02*
D03*
Y162814D02*
D03*
Y213614D02*
D03*
Y239014D02*
D03*
Y365736D02*
D03*
Y416814D02*
D03*
X120224Y391652D02*
D03*
X124206Y340614D02*
D03*
X124216Y314957D02*
D03*
X441109Y374561D02*
D03*
X357124Y410718D02*
D03*
X338582Y423672D02*
D03*
X378460Y433578D02*
D03*
Y407670D02*
D03*
X469646Y339598D02*
D03*
X496316Y424688D02*
D03*
X400820Y346201D02*
D03*
X401836Y311149D02*
D03*
X369070Y344931D02*
D03*
X210574Y351027D02*
D03*
X282202Y278891D02*
D03*
X378976Y320039D02*
D03*
X322334Y320801D02*
D03*
X496316Y475488D02*
D03*
Y450088D02*
D03*
Y399288D02*
D03*
Y373888D02*
D03*
Y348488D02*
D03*
Y323088D02*
D03*
Y297688D02*
D03*
Y272288D02*
D03*
Y246888D02*
D03*
Y221488D02*
D03*
Y196088D02*
D03*
Y170688D02*
D03*
Y145288D02*
D03*
Y119888D02*
D03*
X493522Y91440D02*
D03*
X141980Y488188D02*
D03*
D63*
X632206Y32755D02*
G03*
X636280Y36823I7J4068D01*
G01*
D02*
G03*
X633988Y40483I-4068J-0D01*
G01*
X633988Y390482D02*
G03*
X633195Y392895I-4068J-0D01*
G01*
Y392895D02*
G03*
X633988Y395308I-3275J2413D01*
G01*
Y514892D02*
G03*
X636020Y518414I-2036J3522D01*
G01*
Y518414D02*
G03*
X633914Y521977I-4068J-0D01*
G01*
Y521977D02*
G03*
X626057Y522482I-3994J-769D01*
G01*
X1524D02*
G03*
X-2544Y518414I0J-4068D01*
G01*
X-2544Y37873D02*
G03*
X1517Y33805I4068J0D01*
G01*
X1517D02*
X632206Y32755D01*
X633988Y134365D02*
X633988Y40483D01*
X633988Y134365D02*
Y390482D01*
X633988Y395308D02*
Y514892D01*
X1524Y522482D02*
X626057D01*
X-2544Y37873D02*
Y518414D01*
D64*
X41148Y417068D02*
D03*
Y391668D02*
D03*
Y366268D02*
D03*
Y340868D02*
D03*
Y315468D02*
D03*
Y290068D02*
D03*
Y264668D02*
D03*
Y239268D02*
D03*
Y213868D02*
D03*
Y188468D02*
D03*
Y163068D02*
D03*
Y137668D02*
D03*
Y112268D02*
D03*
Y86868D02*
D03*
X598424Y91186D02*
D03*
Y116586D02*
D03*
Y141986D02*
D03*
Y167386D02*
D03*
Y192786D02*
D03*
Y218186D02*
D03*
Y243586D02*
D03*
Y268986D02*
D03*
Y294386D02*
D03*
Y319786D02*
D03*
Y345186D02*
D03*
Y370586D02*
D03*
Y395986D02*
D03*
Y421386D02*
D03*
Y446786D02*
D03*
Y472186D02*
D03*
D65*
X240292Y338829D02*
D03*
Y369829D02*
D03*
D66*
X238006Y309117D02*
D03*
Y258317D02*
D03*
D67*
X255524Y416560D02*
D03*
X242824D02*
D03*
X278638Y416814D02*
D03*
X291338D02*
D03*
X304038D02*
D03*
D68*
X26664Y463042D02*
D03*
Y488442D02*
D03*
D69*
X245358Y441198D02*
D03*
M02*
