G04*
G04 #@! TF.GenerationSoftware,Altium Limited,Altium Designer,23.10.1 (27)*
G04*
G04 Layer_Color=12632256*
%FSLAX44Y44*%
%MOMM*%
G71*
G04*
G04 #@! TF.SameCoordinates,EDDF8714-B4F6-4BBB-B34A-9CA9A18AB3C3*
G04*
G04*
G04 #@! TF.FilePolarity,Positive*
G04*
G01*
G75*
G04:AMPARAMS|DCode=53|XSize=1.905mm|YSize=1.524mm|CornerRadius=0mm|HoleSize=0mm|Usage=FLASHONLY|Rotation=180.000|XOffset=0mm|YOffset=0mm|HoleType=Round|Shape=Octagon|*
%AMOCTAGOND53*
4,1,8,-0.9525,0.3810,-0.9525,-0.3810,-0.5715,-0.7620,0.5715,-0.7620,0.9525,-0.3810,0.9525,0.3810,0.5715,0.7620,-0.5715,0.7620,-0.9525,0.3810,0.0*
%
%ADD53OCTAGOND53*%

%ADD54C,1.3000*%
%ADD55C,1.8500*%
%ADD56R,1.8500X1.8500*%
%ADD57C,1.0000*%
%ADD58R,1.0000X1.0000*%
%ADD59C,1.5000*%
%ADD60R,1.5000X1.5000*%
D53*
X41148Y417068D02*
D03*
Y391668D02*
D03*
Y366268D02*
D03*
Y340868D02*
D03*
Y315468D02*
D03*
Y290068D02*
D03*
Y264668D02*
D03*
Y239268D02*
D03*
Y213868D02*
D03*
Y188468D02*
D03*
Y163068D02*
D03*
Y137668D02*
D03*
Y112268D02*
D03*
Y86868D02*
D03*
X598424Y91186D02*
D03*
Y116586D02*
D03*
Y141986D02*
D03*
Y167386D02*
D03*
Y192786D02*
D03*
Y218186D02*
D03*
Y243586D02*
D03*
Y268986D02*
D03*
Y294386D02*
D03*
Y319786D02*
D03*
Y345186D02*
D03*
Y370586D02*
D03*
Y395986D02*
D03*
Y421386D02*
D03*
Y446786D02*
D03*
Y472186D02*
D03*
D54*
X240292Y338829D02*
D03*
Y369829D02*
D03*
D55*
X238006Y309117D02*
D03*
D56*
Y258317D02*
D03*
D57*
X255524Y416560D02*
D03*
X242824D02*
D03*
X278638Y416814D02*
D03*
X291338D02*
D03*
X304038D02*
D03*
D58*
X230124Y416560D02*
D03*
X316738Y416814D02*
D03*
D59*
X26664Y463042D02*
D03*
D60*
Y488442D02*
D03*
M02*
