G04*
G04 #@! TF.GenerationSoftware,Altium Limited,Altium Designer,23.10.1 (27)*
G04*
G04 Layer_Color=128*
%FSLAX44Y44*%
%MOMM*%
G71*
G04*
G04 #@! TF.SameCoordinates,EDDF8714-B4F6-4BBB-B34A-9CA9A18AB3C3*
G04*
G04*
G04 #@! TF.FilePolarity,Positive*
G04*
G01*
G75*
%ADD17R,1.0000X1.1000*%
%ADD22R,0.6000X0.5000*%
%ADD26R,1.7000X1.1000*%
%ADD70R,1.1000X1.7000*%
%ADD71R,0.5000X0.6000*%
%ADD72R,0.8000X0.9000*%
%ADD73R,0.9000X0.8000*%
D17*
X83684Y239522D02*
D03*
X66684D02*
D03*
X84192Y213360D02*
D03*
X67192D02*
D03*
X66684Y86868D02*
D03*
X83684D02*
D03*
X83566Y163576D02*
D03*
X66566D02*
D03*
X83684Y112522D02*
D03*
X66684D02*
D03*
X83938Y137414D02*
D03*
X66938D02*
D03*
X84446Y188468D02*
D03*
X67446D02*
D03*
X83430Y288798D02*
D03*
X66430D02*
D03*
X82922Y264668D02*
D03*
X65922D02*
D03*
X81398Y340614D02*
D03*
X64398D02*
D03*
X82414Y315468D02*
D03*
X65414D02*
D03*
X82922Y417576D02*
D03*
X65922D02*
D03*
X82160Y366776D02*
D03*
X65160D02*
D03*
X83566Y390398D02*
D03*
X66566D02*
D03*
X563490Y472186D02*
D03*
X546490D02*
D03*
X563998Y446278D02*
D03*
X546998D02*
D03*
X563490Y421386D02*
D03*
X546490D02*
D03*
X563998Y394716D02*
D03*
X546998D02*
D03*
X563998Y370078D02*
D03*
X546998D02*
D03*
X564506Y344170D02*
D03*
X547506D02*
D03*
X563744Y320040D02*
D03*
X546744D02*
D03*
X564252Y294386D02*
D03*
X547252D02*
D03*
X563490Y267970D02*
D03*
X546490D02*
D03*
X563490Y243332D02*
D03*
X546490D02*
D03*
X563490Y217678D02*
D03*
X546490D02*
D03*
X563744Y192278D02*
D03*
X546744D02*
D03*
X563998Y167386D02*
D03*
X546998D02*
D03*
X564252Y141224D02*
D03*
X547252D02*
D03*
X562728Y114808D02*
D03*
X545728D02*
D03*
X562474Y90170D02*
D03*
X545474D02*
D03*
D22*
X422094Y361949D02*
D03*
X432094D02*
D03*
D26*
X401328Y272899D02*
D03*
Y299899D02*
D03*
X361958Y380672D02*
D03*
Y353671D02*
D03*
D70*
X440520Y349757D02*
D03*
X413520D02*
D03*
D71*
X224798Y348829D02*
D03*
Y338829D02*
D03*
Y369829D02*
D03*
Y359829D02*
D03*
D72*
X338020Y326897D02*
D03*
X352020D02*
D03*
Y314757D02*
D03*
X338020D02*
D03*
X351828Y302513D02*
D03*
X337828D02*
D03*
D73*
X419608Y279146D02*
D03*
Y293146D02*
D03*
M02*
