G04*
G04 #@! TF.GenerationSoftware,Altium Limited,Altium Designer,23.10.1 (27)*
G04*
G04 Layer_Color=2752767*
%FSLAX44Y44*%
%MOMM*%
G71*
G04*
G04 #@! TF.SameCoordinates,EDDF8714-B4F6-4BBB-B34A-9CA9A18AB3C3*
G04*
G04*
G04 #@! TF.FilePolarity,Positive*
G04*
G01*
G75*
%ADD15C,0.1270*%
%ADD80C,0.1693*%
D15*
X36068Y411988D02*
X38608D01*
X41148Y414528D01*
X43688Y411988D01*
X46228D01*
Y414528D01*
X43688Y417068D01*
X46228Y419608D01*
Y422148D01*
X43688D01*
X41148Y419608D01*
X38608Y422148D01*
X36068D01*
Y419608D01*
X38608Y417068D01*
X36068Y414528D01*
Y411988D01*
Y386588D02*
X38608D01*
X41148Y389128D01*
X43688Y386588D01*
X46228D01*
Y389128D01*
X43688Y391668D01*
X46228Y394208D01*
Y396748D01*
X43688D01*
X41148Y394208D01*
X38608Y396748D01*
X36068D01*
Y394208D01*
X38608Y391668D01*
X36068Y389128D01*
Y386588D01*
Y361188D02*
X38608D01*
X41148Y363728D01*
X43688Y361188D01*
X46228D01*
Y363728D01*
X43688Y366268D01*
X46228Y368808D01*
Y371348D01*
X43688D01*
X41148Y368808D01*
X38608Y371348D01*
X36068D01*
Y368808D01*
X38608Y366268D01*
X36068Y363728D01*
Y361188D01*
Y335788D02*
X38608D01*
X41148Y338328D01*
X43688Y335788D01*
X46228D01*
Y338328D01*
X43688Y340868D01*
X46228Y343408D01*
Y345948D01*
X43688D01*
X41148Y343408D01*
X38608Y345948D01*
X36068D01*
Y343408D01*
X38608Y340868D01*
X36068Y338328D01*
Y335788D01*
Y310388D02*
X38608D01*
X41148Y312928D01*
X43688Y310388D01*
X46228D01*
Y312928D01*
X43688Y315468D01*
X46228Y318008D01*
Y320548D01*
X43688D01*
X41148Y318008D01*
X38608Y320548D01*
X36068D01*
Y318008D01*
X38608Y315468D01*
X36068Y312928D01*
Y310388D01*
Y284988D02*
X38608D01*
X41148Y287528D01*
X43688Y284988D01*
X46228D01*
Y287528D01*
X43688Y290068D01*
X46228Y292608D01*
Y295148D01*
X43688D01*
X41148Y292608D01*
X38608Y295148D01*
X36068D01*
Y292608D01*
X38608Y290068D01*
X36068Y287528D01*
Y284988D01*
Y259588D02*
X38608D01*
X41148Y262128D01*
X43688Y259588D01*
X46228D01*
Y262128D01*
X43688Y264668D01*
X46228Y267208D01*
Y269748D01*
X43688D01*
X41148Y267208D01*
X38608Y269748D01*
X36068D01*
Y267208D01*
X38608Y264668D01*
X36068Y262128D01*
Y259588D01*
Y234188D02*
X38608D01*
X41148Y236728D01*
X43688Y234188D01*
X46228D01*
Y236728D01*
X43688Y239268D01*
X46228Y241808D01*
Y244348D01*
X43688D01*
X41148Y241808D01*
X38608Y244348D01*
X36068D01*
Y241808D01*
X38608Y239268D01*
X36068Y236728D01*
Y234188D01*
Y208788D02*
X38608D01*
X41148Y211328D01*
X43688Y208788D01*
X46228D01*
Y211328D01*
X43688Y213868D01*
X46228Y216408D01*
Y218948D01*
X43688D01*
X41148Y216408D01*
X38608Y218948D01*
X36068D01*
Y216408D01*
X38608Y213868D01*
X36068Y211328D01*
Y208788D01*
Y183388D02*
X38608D01*
X41148Y185928D01*
X43688Y183388D01*
X46228D01*
Y185928D01*
X43688Y188468D01*
X46228Y191008D01*
Y193548D01*
X43688D01*
X41148Y191008D01*
X38608Y193548D01*
X36068D01*
Y191008D01*
X38608Y188468D01*
X36068Y185928D01*
Y183388D01*
Y157988D02*
X38608D01*
X41148Y160528D01*
X43688Y157988D01*
X46228D01*
Y160528D01*
X43688Y163068D01*
X46228Y165608D01*
Y168148D01*
X43688D01*
X41148Y165608D01*
X38608Y168148D01*
X36068D01*
Y165608D01*
X38608Y163068D01*
X36068Y160528D01*
Y157988D01*
Y132588D02*
X38608D01*
X41148Y135128D01*
X43688Y132588D01*
X46228D01*
Y135128D01*
X43688Y137668D01*
X46228Y140208D01*
Y142748D01*
X43688D01*
X41148Y140208D01*
X38608Y142748D01*
X36068D01*
Y140208D01*
X38608Y137668D01*
X36068Y135128D01*
Y132588D01*
Y107188D02*
X38608D01*
X41148Y109728D01*
X43688Y107188D01*
X46228D01*
Y109728D01*
X43688Y112268D01*
X46228Y114808D01*
Y117348D01*
X43688D01*
X41148Y114808D01*
X38608Y117348D01*
X36068D01*
Y114808D01*
X38608Y112268D01*
X36068Y109728D01*
Y107188D01*
Y81788D02*
X38608D01*
X41148Y84328D01*
X43688Y81788D01*
X46228D01*
Y84328D01*
X43688Y86868D01*
X46228Y89408D01*
Y91948D01*
X43688D01*
X41148Y89408D01*
X38608Y91948D01*
X36068D01*
Y89408D01*
X38608Y86868D01*
X36068Y84328D01*
Y81788D01*
X240292Y333749D02*
X242832Y336289D01*
X245372D01*
X242832Y338829D01*
X245372Y341369D01*
X242832D01*
X240292Y343909D01*
X237752Y341369D01*
X235212D01*
X237752Y338829D01*
X235212Y336289D01*
X237752D01*
X240292Y333749D01*
Y364749D02*
X242832Y367289D01*
X245372D01*
X242832Y369829D01*
X245372Y372369D01*
X242832D01*
X240292Y374909D01*
X237752Y372369D01*
X235212D01*
X237752Y369829D01*
X235212Y367289D01*
X237752D01*
X240292Y364749D01*
X238006Y304037D02*
X232926Y314197D01*
X243086D01*
X238006Y304037D01*
Y253237D02*
X232926Y263397D01*
X243086D01*
X238006Y253237D01*
X593344Y86106D02*
X595884D01*
X598424Y88646D01*
X600964Y86106D01*
X603504D01*
Y88646D01*
X600964Y91186D01*
X603504Y93726D01*
Y96266D01*
X600964D01*
X598424Y93726D01*
X595884Y96266D01*
X593344D01*
Y93726D01*
X595884Y91186D01*
X593344Y88646D01*
Y86106D01*
Y111506D02*
X595884D01*
X598424Y114046D01*
X600964Y111506D01*
X603504D01*
Y114046D01*
X600964Y116586D01*
X603504Y119126D01*
Y121666D01*
X600964D01*
X598424Y119126D01*
X595884Y121666D01*
X593344D01*
Y119126D01*
X595884Y116586D01*
X593344Y114046D01*
Y111506D01*
Y136906D02*
X595884D01*
X598424Y139446D01*
X600964Y136906D01*
X603504D01*
Y139446D01*
X600964Y141986D01*
X603504Y144526D01*
Y147066D01*
X600964D01*
X598424Y144526D01*
X595884Y147066D01*
X593344D01*
Y144526D01*
X595884Y141986D01*
X593344Y139446D01*
Y136906D01*
Y162306D02*
X595884D01*
X598424Y164846D01*
X600964Y162306D01*
X603504D01*
Y164846D01*
X600964Y167386D01*
X603504Y169926D01*
Y172466D01*
X600964D01*
X598424Y169926D01*
X595884Y172466D01*
X593344D01*
Y169926D01*
X595884Y167386D01*
X593344Y164846D01*
Y162306D01*
Y187706D02*
X595884D01*
X598424Y190246D01*
X600964Y187706D01*
X603504D01*
Y190246D01*
X600964Y192786D01*
X603504Y195326D01*
Y197866D01*
X600964D01*
X598424Y195326D01*
X595884Y197866D01*
X593344D01*
Y195326D01*
X595884Y192786D01*
X593344Y190246D01*
Y187706D01*
Y213106D02*
X595884D01*
X598424Y215646D01*
X600964Y213106D01*
X603504D01*
Y215646D01*
X600964Y218186D01*
X603504Y220726D01*
Y223266D01*
X600964D01*
X598424Y220726D01*
X595884Y223266D01*
X593344D01*
Y220726D01*
X595884Y218186D01*
X593344Y215646D01*
Y213106D01*
Y238506D02*
X595884D01*
X598424Y241046D01*
X600964Y238506D01*
X603504D01*
Y241046D01*
X600964Y243586D01*
X603504Y246126D01*
Y248666D01*
X600964D01*
X598424Y246126D01*
X595884Y248666D01*
X593344D01*
Y246126D01*
X595884Y243586D01*
X593344Y241046D01*
Y238506D01*
Y263906D02*
X595884D01*
X598424Y266446D01*
X600964Y263906D01*
X603504D01*
Y266446D01*
X600964Y268986D01*
X603504Y271526D01*
Y274066D01*
X600964D01*
X598424Y271526D01*
X595884Y274066D01*
X593344D01*
Y271526D01*
X595884Y268986D01*
X593344Y266446D01*
Y263906D01*
Y289306D02*
X595884D01*
X598424Y291846D01*
X600964Y289306D01*
X603504D01*
Y291846D01*
X600964Y294386D01*
X603504Y296926D01*
Y299466D01*
X600964D01*
X598424Y296926D01*
X595884Y299466D01*
X593344D01*
Y296926D01*
X595884Y294386D01*
X593344Y291846D01*
Y289306D01*
Y314706D02*
X595884D01*
X598424Y317246D01*
X600964Y314706D01*
X603504D01*
Y317246D01*
X600964Y319786D01*
X603504Y322326D01*
Y324866D01*
X600964D01*
X598424Y322326D01*
X595884Y324866D01*
X593344D01*
Y322326D01*
X595884Y319786D01*
X593344Y317246D01*
Y314706D01*
Y340106D02*
X595884D01*
X598424Y342646D01*
X600964Y340106D01*
X603504D01*
Y342646D01*
X600964Y345186D01*
X603504Y347726D01*
Y350266D01*
X600964D01*
X598424Y347726D01*
X595884Y350266D01*
X593344D01*
Y347726D01*
X595884Y345186D01*
X593344Y342646D01*
Y340106D01*
Y365506D02*
X595884D01*
X598424Y368046D01*
X600964Y365506D01*
X603504D01*
Y368046D01*
X600964Y370586D01*
X603504Y373126D01*
Y375666D01*
X600964D01*
X598424Y373126D01*
X595884Y375666D01*
X593344D01*
Y373126D01*
X595884Y370586D01*
X593344Y368046D01*
Y365506D01*
Y390906D02*
X595884D01*
X598424Y393446D01*
X600964Y390906D01*
X603504D01*
Y393446D01*
X600964Y395986D01*
X603504Y398526D01*
Y401066D01*
X600964D01*
X598424Y398526D01*
X595884Y401066D01*
X593344D01*
Y398526D01*
X595884Y395986D01*
X593344Y393446D01*
Y390906D01*
Y416306D02*
X595884D01*
X598424Y418846D01*
X600964Y416306D01*
X603504D01*
Y418846D01*
X600964Y421386D01*
X603504Y423926D01*
Y426466D01*
X600964D01*
X598424Y423926D01*
X595884Y426466D01*
X593344D01*
Y423926D01*
X595884Y421386D01*
X593344Y418846D01*
Y416306D01*
Y441706D02*
X595884D01*
X598424Y444246D01*
X600964Y441706D01*
X603504D01*
Y444246D01*
X600964Y446786D01*
X603504Y449326D01*
Y451866D01*
X600964D01*
X598424Y449326D01*
X595884Y451866D01*
X593344D01*
Y449326D01*
X595884Y446786D01*
X593344Y444246D01*
Y441706D01*
Y467106D02*
X595884D01*
X598424Y469646D01*
X600964Y467106D01*
X603504D01*
Y469646D01*
X600964Y472186D01*
X603504Y474726D01*
Y477266D01*
X600964D01*
X598424Y474726D01*
X595884Y477266D01*
X593344D01*
Y474726D01*
X595884Y472186D01*
X593344Y469646D01*
Y467106D01*
X21584Y457962D02*
Y468122D01*
X31744D01*
Y457962D01*
X21584D01*
Y483362D02*
Y493522D01*
X31744D01*
Y483362D01*
X21584D01*
X121666Y84074D02*
Y81534D01*
X126746D01*
Y84074D01*
X129286D01*
Y89154D01*
X126746D01*
Y91694D01*
X121666D01*
Y89154D01*
X119126D01*
Y84074D01*
X121666D01*
X134874Y82804D02*
Y80264D01*
X139954D01*
Y82804D01*
X142494D01*
Y87884D01*
X139954D01*
Y90424D01*
X134874D01*
Y87884D01*
X132334D01*
Y82804D01*
X134874D01*
X125730Y98298D02*
Y95758D01*
X130810D01*
Y98298D01*
X133350D01*
Y103378D01*
X130810D01*
Y105918D01*
X125730D01*
Y103378D01*
X123190D01*
Y98298D01*
X125730D01*
X115190Y198248D02*
Y195708D01*
X120270D01*
Y198248D01*
X122810D01*
Y203328D01*
X120270D01*
Y205868D01*
X115190D01*
Y203328D01*
X112650D01*
Y198248D01*
X115190D01*
X98298Y122428D02*
Y119888D01*
X103378D01*
Y122428D01*
X105918D01*
Y127508D01*
X103378D01*
Y130048D01*
X98298D01*
Y127508D01*
X95758D01*
Y122428D01*
X98298D01*
X108965Y179325D02*
Y176785D01*
X114045D01*
Y179325D01*
X116585D01*
Y184405D01*
X114045D01*
Y186945D01*
X108965D01*
Y184405D01*
X106425D01*
Y179325D01*
X108965D01*
X113632Y250096D02*
Y247556D01*
X118712D01*
Y250096D01*
X121252D01*
Y255176D01*
X118712D01*
Y257716D01*
X113632D01*
Y255176D01*
X111092D01*
Y250096D01*
X113632D01*
X121703Y285495D02*
Y282955D01*
X126783D01*
Y285495D01*
X129323D01*
Y290575D01*
X126783D01*
Y293115D01*
X121703D01*
Y290575D01*
X119163D01*
Y285495D01*
X121703D01*
X115569Y150115D02*
Y147575D01*
X120649D01*
Y150115D01*
X123189D01*
Y155195D01*
X120649D01*
Y157735D01*
X115569D01*
Y155195D01*
X113029D01*
Y150115D01*
X115569D01*
X116586Y223520D02*
Y220980D01*
X121666D01*
Y223520D01*
X124206D01*
Y228600D01*
X121666D01*
Y231140D01*
X116586D01*
Y228600D01*
X114046D01*
Y223520D01*
X116586D01*
X116688Y109601D02*
Y107061D01*
X121768D01*
Y109601D01*
X124308D01*
Y114681D01*
X121768D01*
Y117221D01*
X116688D01*
Y114681D01*
X114148D01*
Y109601D01*
X116688D01*
X120642Y258393D02*
Y255853D01*
X125722D01*
Y258393D01*
X128262D01*
Y263473D01*
X125722D01*
Y266013D01*
X120642D01*
Y263473D01*
X118102D01*
Y258393D01*
X120642D01*
X120768Y131520D02*
Y128980D01*
X125849D01*
Y131520D01*
X128389D01*
Y136600D01*
X125849D01*
Y139140D01*
X120768D01*
Y136600D01*
X118229D01*
Y131520D01*
X120768D01*
X121666Y180594D02*
Y178054D01*
X126746D01*
Y180594D01*
X129286D01*
Y185674D01*
X126746D01*
Y188214D01*
X121666D01*
Y185674D01*
X119126D01*
Y180594D01*
X121666D01*
Y160274D02*
Y157734D01*
X126746D01*
Y160274D01*
X129286D01*
Y165354D01*
X126746D01*
Y167894D01*
X121666D01*
Y165354D01*
X119126D01*
Y160274D01*
X121666D01*
Y211074D02*
Y208534D01*
X126746D01*
Y211074D01*
X129286D01*
Y216154D01*
X126746D01*
Y218694D01*
X121666D01*
Y216154D01*
X119126D01*
Y211074D01*
X121666D01*
Y236474D02*
Y233934D01*
X126746D01*
Y236474D01*
X129286D01*
Y241554D01*
X126746D01*
Y244094D01*
X121666D01*
Y241554D01*
X119126D01*
Y236474D01*
X121666D01*
Y363196D02*
Y360656D01*
X126746D01*
Y363196D01*
X129286D01*
Y368276D01*
X126746D01*
Y370816D01*
X121666D01*
Y368276D01*
X119126D01*
Y363196D01*
X121666D01*
Y414274D02*
Y411734D01*
X126746D01*
Y414274D01*
X129286D01*
Y419354D01*
X126746D01*
Y421894D01*
X121666D01*
Y419354D01*
X119126D01*
Y414274D01*
X121666D01*
X114982Y350600D02*
Y348060D01*
X120062D01*
Y350600D01*
X122602D01*
Y355680D01*
X120062D01*
Y358220D01*
X114982D01*
Y355680D01*
X112442D01*
Y350600D01*
X114982D01*
X117684Y389112D02*
Y386572D01*
X122764D01*
Y389112D01*
X125304D01*
Y394192D01*
X122764D01*
Y396732D01*
X117684D01*
Y394192D01*
X115144D01*
Y389112D01*
X117684D01*
X118363Y405385D02*
Y402845D01*
X123443D01*
Y405385D01*
X125983D01*
Y410465D01*
X123443D01*
Y413005D01*
X118363D01*
Y410465D01*
X115823D01*
Y405385D01*
X118363D01*
X118624Y324606D02*
Y322066D01*
X123704D01*
Y324606D01*
X126244D01*
Y329686D01*
X123704D01*
Y332226D01*
X118624D01*
Y329686D01*
X116084D01*
Y324606D01*
X118624D01*
X119911Y375389D02*
Y372849D01*
X124991D01*
Y375389D01*
X127531D01*
Y380469D01*
X124991D01*
Y383009D01*
X119911D01*
Y380469D01*
X117371D01*
Y375389D01*
X119911D01*
X121412Y297688D02*
Y295148D01*
X126492D01*
Y297688D01*
X129032D01*
Y302768D01*
X126492D01*
Y305308D01*
X121412D01*
Y302768D01*
X118872D01*
Y297688D01*
X121412D01*
X121666Y338074D02*
Y335534D01*
X126746D01*
Y338074D01*
X129286D01*
Y343154D01*
X126746D01*
Y345694D01*
X121666D01*
Y343154D01*
X119126D01*
Y338074D01*
X121666D01*
X121676Y312417D02*
Y309877D01*
X126756D01*
Y312417D01*
X129296D01*
Y317497D01*
X126756D01*
Y320037D01*
X121676D01*
Y317497D01*
X119136D01*
Y312417D01*
X121676D01*
X115097Y279619D02*
Y277079D01*
X120177D01*
Y279619D01*
X122717D01*
Y284699D01*
X120177D01*
Y287239D01*
X115097D01*
Y284699D01*
X112557D01*
Y279619D01*
X115097D01*
X517144Y79502D02*
Y76962D01*
X522224D01*
Y79502D01*
X524764D01*
Y84582D01*
X522224D01*
Y87122D01*
X517144D01*
Y84582D01*
X514604D01*
Y79502D01*
X517144D01*
X508509Y154433D02*
Y151893D01*
X513589D01*
Y154433D01*
X516129D01*
Y159513D01*
X513589D01*
Y162053D01*
X508509D01*
Y159513D01*
X505969D01*
Y154433D01*
X508509D01*
X438569Y372021D02*
Y369481D01*
X443649D01*
Y372021D01*
X446189D01*
Y377101D01*
X443649D01*
Y379641D01*
X438569D01*
Y377101D01*
X436029D01*
Y372021D01*
X438569D01*
X354584Y408178D02*
Y405638D01*
X359664D01*
Y408178D01*
X362204D01*
Y413258D01*
X359664D01*
Y415798D01*
X354584D01*
Y413258D01*
X352044D01*
Y408178D01*
X354584D01*
X336042Y421132D02*
Y418592D01*
X341122D01*
Y421132D01*
X343662D01*
Y426212D01*
X341122D01*
Y428752D01*
X336042D01*
Y426212D01*
X333502D01*
Y421132D01*
X336042D01*
X375920Y431038D02*
Y428498D01*
X381000D01*
Y431038D01*
X383540D01*
Y436118D01*
X381000D01*
Y438658D01*
X375920D01*
Y436118D01*
X373380D01*
Y431038D01*
X375920D01*
Y405130D02*
Y402590D01*
X381000D01*
Y405130D01*
X383540D01*
Y410210D01*
X381000D01*
Y412750D01*
X375920D01*
Y410210D01*
X373380D01*
Y405130D01*
X375920D01*
X467106Y337058D02*
Y334518D01*
X472186D01*
Y337058D01*
X474726D01*
Y342138D01*
X472186D01*
Y344678D01*
X467106D01*
Y342138D01*
X464566D01*
Y337058D01*
X467106D01*
X493776Y422148D02*
Y419608D01*
X498856D01*
Y422148D01*
X501396D01*
Y427228D01*
X498856D01*
Y429768D01*
X493776D01*
Y427228D01*
X491236D01*
Y422148D01*
X493776D01*
X504952Y100076D02*
Y97536D01*
X510032D01*
Y100076D01*
X512572D01*
Y105156D01*
X510032D01*
Y107696D01*
X504952D01*
Y105156D01*
X502412D01*
Y100076D01*
X504952D01*
X505676Y126200D02*
Y123660D01*
X510756D01*
Y126200D01*
X513296D01*
Y131280D01*
X510756D01*
Y133820D01*
X505676D01*
Y131280D01*
X503136D01*
Y126200D01*
X505676D01*
X507685Y179009D02*
Y176469D01*
X512765D01*
Y179009D01*
X515305D01*
Y184089D01*
X512765D01*
Y186629D01*
X507685D01*
Y184089D01*
X505145D01*
Y179009D01*
X507685D01*
X507718Y204442D02*
Y201902D01*
X512798D01*
Y204442D01*
X515338D01*
Y209522D01*
X512798D01*
Y212062D01*
X507718D01*
Y209522D01*
X505178D01*
Y204442D01*
X507718D01*
X504952Y227076D02*
Y224536D01*
X510032D01*
Y227076D01*
X512572D01*
Y232156D01*
X510032D01*
Y234696D01*
X504952D01*
Y232156D01*
X502412D01*
Y227076D01*
X504952D01*
X507085Y254610D02*
Y252069D01*
X512165D01*
Y254610D01*
X514706D01*
Y259690D01*
X512165D01*
Y262229D01*
X507085D01*
Y259690D01*
X504546D01*
Y254610D01*
X507085D01*
X507534Y305858D02*
Y303318D01*
X512614D01*
Y305858D01*
X515154D01*
Y310938D01*
X512614D01*
Y313478D01*
X507534D01*
Y310938D01*
X504994D01*
Y305858D01*
X507534D01*
X504952Y328676D02*
Y326136D01*
X510032D01*
Y328676D01*
X512572D01*
Y333756D01*
X510032D01*
Y336296D01*
X504952D01*
Y333756D01*
X502412D01*
Y328676D01*
X504952D01*
X507216Y356340D02*
Y353800D01*
X512296D01*
Y356340D01*
X514836D01*
Y361420D01*
X512296D01*
Y363960D01*
X507216D01*
Y361420D01*
X504676D01*
Y356340D01*
X507216D01*
X507371Y432695D02*
Y430155D01*
X512451D01*
Y432695D01*
X514991D01*
Y437775D01*
X512451D01*
Y440315D01*
X507371D01*
Y437775D01*
X504831D01*
Y432695D01*
X507371D01*
X450342Y360679D02*
Y358139D01*
X455422D01*
Y360679D01*
X457962D01*
Y365759D01*
X455422D01*
Y368299D01*
X450342D01*
Y365759D01*
X447802D01*
Y360679D01*
X450342D01*
X453144Y345693D02*
Y343153D01*
X458224D01*
Y345693D01*
X460764D01*
Y350773D01*
X458224D01*
Y353313D01*
X453144D01*
Y350773D01*
X450604D01*
Y345693D01*
X453144D01*
X319532Y297941D02*
Y295401D01*
X324612D01*
Y297941D01*
X327152D01*
Y303021D01*
X324612D01*
Y305561D01*
X319532D01*
Y303021D01*
X316992D01*
Y297941D01*
X319532D01*
X398280Y343661D02*
Y341121D01*
X403360D01*
Y343661D01*
X405900D01*
Y348741D01*
X403360D01*
Y351281D01*
X398280D01*
Y348741D01*
X395740D01*
Y343661D01*
X398280D01*
X399296Y308609D02*
Y306069D01*
X404376D01*
Y308609D01*
X406916D01*
Y313689D01*
X404376D01*
Y316229D01*
X399296D01*
Y313689D01*
X396756D01*
Y308609D01*
X399296D01*
X366530Y342391D02*
Y339851D01*
X371610D01*
Y342391D01*
X374150D01*
Y347471D01*
X371610D01*
Y350011D01*
X366530D01*
Y347471D01*
X363990D01*
Y342391D01*
X366530D01*
X208034Y348487D02*
Y345947D01*
X213114D01*
Y348487D01*
X215654D01*
Y353567D01*
X213114D01*
Y356107D01*
X208034D01*
Y353567D01*
X205494D01*
Y348487D01*
X208034D01*
X279662Y276351D02*
Y273811D01*
X284742D01*
Y276351D01*
X287282D01*
Y281431D01*
X284742D01*
Y283971D01*
X279662D01*
Y281431D01*
X277122D01*
Y276351D01*
X279662D01*
X376436Y317499D02*
Y314959D01*
X381516D01*
Y317499D01*
X384056D01*
Y322579D01*
X381516D01*
Y325119D01*
X376436D01*
Y322579D01*
X373896D01*
Y317499D01*
X376436D01*
X398788Y256793D02*
Y254253D01*
X403868D01*
Y256793D01*
X406408D01*
Y261873D01*
X403868D01*
Y264413D01*
X398788D01*
Y261873D01*
X396248D01*
Y256793D01*
X398788D01*
X410980D02*
Y254253D01*
X416060D01*
Y256793D01*
X418600D01*
Y261873D01*
X416060D01*
Y264413D01*
X410980D01*
Y261873D01*
X408440D01*
Y256793D01*
X410980D01*
X358402Y391159D02*
Y388619D01*
X363482D01*
Y391159D01*
X366022D01*
Y396239D01*
X363482D01*
Y398779D01*
X358402D01*
Y396239D01*
X355862D01*
Y391159D01*
X358402D01*
X320048Y308609D02*
Y306069D01*
X325128D01*
Y308609D01*
X327668D01*
Y313689D01*
X325128D01*
Y316229D01*
X320048D01*
Y313689D01*
X317508D01*
Y308609D01*
X320048D01*
X319794Y318261D02*
Y315721D01*
X324874D01*
Y318261D01*
X327414D01*
Y323341D01*
X324874D01*
Y325881D01*
X319794D01*
Y323341D01*
X317254D01*
Y318261D01*
X319794D01*
X493776Y472948D02*
Y470408D01*
X498856D01*
Y472948D01*
X501396D01*
Y478028D01*
X498856D01*
Y480568D01*
X493776D01*
Y478028D01*
X491236D01*
Y472948D01*
X493776D01*
X504952Y455676D02*
Y453136D01*
X510032D01*
Y455676D01*
X512572D01*
Y460756D01*
X510032D01*
Y463296D01*
X504952D01*
Y460756D01*
X502412D01*
Y455676D01*
X504952D01*
X493776Y447548D02*
Y445008D01*
X498856D01*
Y447548D01*
X501396D01*
Y452628D01*
X498856D01*
Y455168D01*
X493776D01*
Y452628D01*
X491236D01*
Y447548D01*
X493776D01*
X504952Y404876D02*
Y402336D01*
X510032D01*
Y404876D01*
X512572D01*
Y409956D01*
X510032D01*
Y412496D01*
X504952D01*
Y409956D01*
X502412D01*
Y404876D01*
X504952D01*
X493776Y396748D02*
Y394208D01*
X498856D01*
Y396748D01*
X501396D01*
Y401828D01*
X498856D01*
Y404368D01*
X493776D01*
Y401828D01*
X491236D01*
Y396748D01*
X493776D01*
X504952Y379476D02*
Y376936D01*
X510032D01*
Y379476D01*
X512572D01*
Y384556D01*
X510032D01*
Y387096D01*
X504952D01*
Y384556D01*
X502412D01*
Y379476D01*
X504952D01*
X493776Y371348D02*
Y368808D01*
X498856D01*
Y371348D01*
X501396D01*
Y376428D01*
X498856D01*
Y378968D01*
X493776D01*
Y376428D01*
X491236D01*
Y371348D01*
X493776D01*
Y345948D02*
Y343408D01*
X498856D01*
Y345948D01*
X501396D01*
Y351028D01*
X498856D01*
Y353568D01*
X493776D01*
Y351028D01*
X491236D01*
Y345948D01*
X493776D01*
Y320548D02*
Y318008D01*
X498856D01*
Y320548D01*
X501396D01*
Y325628D01*
X498856D01*
Y328168D01*
X493776D01*
Y325628D01*
X491236D01*
Y320548D01*
X493776D01*
Y295148D02*
Y292608D01*
X498856D01*
Y295148D01*
X501396D01*
Y300228D01*
X498856D01*
Y302768D01*
X493776D01*
Y300228D01*
X491236D01*
Y295148D01*
X493776D01*
X504952Y277876D02*
Y275336D01*
X510032D01*
Y277876D01*
X512572D01*
Y282956D01*
X510032D01*
Y285496D01*
X504952D01*
Y282956D01*
X502412D01*
Y277876D01*
X504952D01*
X493776Y269748D02*
Y267208D01*
X498856D01*
Y269748D01*
X501396D01*
Y274828D01*
X498856D01*
Y277368D01*
X493776D01*
Y274828D01*
X491236D01*
Y269748D01*
X493776D01*
Y244348D02*
Y241808D01*
X498856D01*
Y244348D01*
X501396D01*
Y249428D01*
X498856D01*
Y251968D01*
X493776D01*
Y249428D01*
X491236D01*
Y244348D01*
X493776D01*
Y218948D02*
Y216408D01*
X498856D01*
Y218948D01*
X501396D01*
Y224028D01*
X498856D01*
Y226568D01*
X493776D01*
Y224028D01*
X491236D01*
Y218948D01*
X493776D01*
Y193548D02*
Y191008D01*
X498856D01*
Y193548D01*
X501396D01*
Y198628D01*
X498856D01*
Y201168D01*
X493776D01*
Y198628D01*
X491236D01*
Y193548D01*
X493776D01*
Y168148D02*
Y165608D01*
X498856D01*
Y168148D01*
X501396D01*
Y173228D01*
X498856D01*
Y175768D01*
X493776D01*
Y173228D01*
X491236D01*
Y168148D01*
X493776D01*
Y142748D02*
Y140208D01*
X498856D01*
Y142748D01*
X501396D01*
Y147828D01*
X498856D01*
Y150368D01*
X493776D01*
Y147828D01*
X491236D01*
Y142748D01*
X493776D01*
Y117348D02*
Y114808D01*
X498856D01*
Y117348D01*
X501396D01*
Y122428D01*
X498856D01*
Y124968D01*
X493776D01*
Y122428D01*
X491236D01*
Y117348D01*
X493776D01*
X490982Y88900D02*
Y86360D01*
X496062D01*
Y88900D01*
X498602D01*
Y93980D01*
X496062D01*
Y96520D01*
X490982D01*
Y93980D01*
X488442D01*
Y88900D01*
X490982D01*
X240278Y436118D02*
X242818Y441198D01*
X240278Y446278D01*
X245358Y443738D01*
X250438Y446278D01*
X247898Y441198D01*
X250438Y436118D01*
X245358Y438658D01*
X240278Y436118D01*
X209036Y464058D02*
Y461518D01*
X214116D01*
Y464058D01*
X216656D01*
Y469138D01*
X214116D01*
Y471678D01*
X209036D01*
Y469138D01*
X206496D01*
Y464058D01*
X209036D01*
X139440Y485648D02*
Y483108D01*
X144520D01*
Y485648D01*
X147060D01*
Y490728D01*
X144520D01*
Y493268D01*
X139440D01*
Y490728D01*
X136900D01*
Y485648D01*
X139440D01*
D80*
X260604Y416560D02*
G03*
X260604Y416560I-5080J0D01*
G01*
X247904D02*
G03*
X247904Y416560I-5080J0D01*
G01*
X235204D02*
G03*
X235204Y416560I-5080J0D01*
G01*
X283718Y416814D02*
G03*
X283718Y416814I-5080J0D01*
G01*
X296418D02*
G03*
X296418Y416814I-5080J0D01*
G01*
X309118D02*
G03*
X309118Y416814I-5080J0D01*
G01*
X321818D02*
G03*
X321818Y416814I-5080J0D01*
G01*
M02*
