G04*
G04 #@! TF.GenerationSoftware,Altium Limited,Altium Designer,23.10.1 (27)*
G04*
G04 Layer_Physical_Order=1*
G04 Layer_Color=255*
%FSLAX44Y44*%
%MOMM*%
G71*
G04*
G04 #@! TF.SameCoordinates,EDDF8714-B4F6-4BBB-B34A-9CA9A18AB3C3*
G04*
G04*
G04 #@! TF.FilePolarity,Positive*
G04*
G01*
G75*
%ADD13C,0.2540*%
%ADD17R,1.0000X1.1000*%
%ADD18R,0.7000X0.9000*%
%ADD19O,0.3000X2.1000*%
%ADD20O,2.1000X0.3000*%
%ADD21R,1.1000X1.3000*%
%ADD22R,0.6000X0.5000*%
%ADD23R,1.3000X1.6000*%
%ADD24R,2.2000X3.3000*%
%ADD25R,2.2000X1.0000*%
%ADD26R,1.7000X1.1000*%
%ADD47C,0.8130*%
%ADD48C,1.0922*%
%ADD49C,1.0000*%
%ADD50C,0.9906*%
%ADD51C,0.8128*%
%ADD52C,0.2997*%
G04:AMPARAMS|DCode=53|XSize=1.905mm|YSize=1.524mm|CornerRadius=0mm|HoleSize=0mm|Usage=FLASHONLY|Rotation=180.000|XOffset=0mm|YOffset=0mm|HoleType=Round|Shape=Octagon|*
%AMOCTAGOND53*
4,1,8,-0.9525,0.3810,-0.9525,-0.3810,-0.5715,-0.7620,0.5715,-0.7620,0.9525,-0.3810,0.9525,0.3810,0.5715,0.7620,-0.5715,0.7620,-0.9525,0.3810,0.0*
%
%ADD53OCTAGOND53*%

%ADD54C,1.3000*%
%ADD55C,1.8500*%
%ADD56R,1.8500X1.8500*%
%ADD57C,1.0000*%
%ADD58R,1.0000X1.0000*%
%ADD59C,1.5000*%
%ADD60R,1.5000X1.5000*%
%ADD61C,0.5080*%
%ADD62C,1.2700*%
G36*
X623259Y395308D02*
X623486Y393584D01*
X623771Y392895D01*
X623486Y392206D01*
X623259Y390482D01*
Y133095D01*
X623259Y44398D01*
X622360Y43501D01*
X8185Y44523D01*
Y511753D01*
X623259D01*
Y395308D01*
D02*
G37*
%LPC*%
G36*
X605409Y482346D02*
X591439D01*
X589138Y480045D01*
X571030D01*
Y480480D01*
X555950D01*
Y466165D01*
X554030D01*
Y480480D01*
X538950D01*
Y477578D01*
X520192D01*
X518468Y477351D01*
X516861Y476685D01*
X515481Y475627D01*
X502781Y462927D01*
X501722Y461547D01*
X501057Y459940D01*
X501031Y459741D01*
X499663Y459080D01*
X498525Y459307D01*
X485845D01*
X484358Y459011D01*
X483098Y458169D01*
X443849Y418921D01*
X373344D01*
X371857Y418625D01*
X370597Y417783D01*
X369109Y416295D01*
X368267Y415035D01*
X367971Y413548D01*
Y404230D01*
X367256Y403933D01*
X366701Y403831D01*
X365469Y404655D01*
X363982Y404951D01*
X359794D01*
X359541Y406221D01*
X360002Y406411D01*
X361431Y407840D01*
X362204Y409707D01*
Y411729D01*
X361431Y413596D01*
X361009Y414018D01*
Y425232D01*
X360713Y426719D01*
X359871Y427979D01*
X356536Y431314D01*
X357022Y432487D01*
X373370D01*
X373444Y432413D01*
X374153Y430700D01*
X375582Y429271D01*
X377449Y428498D01*
X379470D01*
X381338Y429271D01*
X382767Y430700D01*
X383540Y432567D01*
Y434589D01*
X382767Y436456D01*
X381338Y437885D01*
X379470Y438658D01*
X378186D01*
X377725Y439119D01*
X376465Y439961D01*
X374979Y440257D01*
X305149D01*
X303662Y439961D01*
X303344Y439749D01*
X279478D01*
Y442904D01*
X267398D01*
Y428824D01*
X279478D01*
Y431979D01*
X299350D01*
X299836Y430806D01*
X293162Y424131D01*
X292331Y424354D01*
X290345D01*
X288428Y423840D01*
X286708Y422848D01*
X285305Y421444D01*
X284312Y419724D01*
X283798Y417807D01*
Y415821D01*
X284312Y413904D01*
X285305Y412184D01*
X286708Y410780D01*
X288428Y409788D01*
X290345Y409274D01*
X292331D01*
X294248Y409788D01*
X295968Y410780D01*
X296843Y411656D01*
X297688Y412040D01*
X298533Y411656D01*
X299408Y410780D01*
X301128Y409788D01*
X303045Y409274D01*
X305031D01*
X306948Y409788D01*
X307928Y410353D01*
X309198Y409620D01*
Y409274D01*
X324278D01*
Y424354D01*
X325546Y424359D01*
X332401D01*
X333502Y423258D01*
Y422662D01*
X334275Y420794D01*
X335704Y419365D01*
X337571Y418592D01*
X339593D01*
X341460Y419365D01*
X342889Y420794D01*
X343662Y422662D01*
Y424683D01*
X342889Y426550D01*
X342285Y427153D01*
X342811Y428423D01*
X348439D01*
X353239Y423623D01*
Y414018D01*
X352817Y413596D01*
X352044Y411729D01*
Y409707D01*
X352817Y407840D01*
X354246Y406411D01*
X354707Y406221D01*
X354454Y404951D01*
X128113D01*
X127312Y405951D01*
X127341Y406221D01*
X127565Y407925D01*
X127338Y409649D01*
X126672Y411256D01*
X125614Y412636D01*
X115963Y422287D01*
X114583Y423345D01*
X112976Y424011D01*
X111252Y424238D01*
X90208D01*
Y425616D01*
X75128D01*
Y415162D01*
X73916Y414628D01*
X73208Y415196D01*
Y425616D01*
X58128D01*
Y424673D01*
X50688D01*
X48133Y427228D01*
X34163D01*
X29083Y422148D01*
Y411988D01*
X34163Y406908D01*
X48133D01*
X50688Y409463D01*
X65414D01*
X65969Y409536D01*
X67714D01*
X70926Y406324D01*
X72187Y405482D01*
X73673Y405186D01*
X86144D01*
X92746Y398584D01*
X92439Y397541D01*
X92272Y397314D01*
X90462D01*
Y398692D01*
X75382D01*
Y385647D01*
X73462D01*
Y398692D01*
X68160D01*
X67382Y399014D01*
X65414Y399273D01*
X50688D01*
X48133Y401828D01*
X34163D01*
X29083Y396748D01*
Y386588D01*
X34163Y381508D01*
X48133D01*
X50688Y384063D01*
X58382D01*
Y382612D01*
X62244D01*
X62333Y382162D01*
X63175Y380902D01*
X65062Y379015D01*
X66322Y378173D01*
X67809Y377877D01*
X83253D01*
X85395Y375735D01*
X84909Y374562D01*
X74874D01*
Y362642D01*
X72954D01*
Y365774D01*
X73019Y366268D01*
X72954Y366762D01*
Y374562D01*
X57874D01*
Y373873D01*
X50688D01*
X48133Y376428D01*
X34163D01*
X29083Y371348D01*
Y361188D01*
X34163Y356108D01*
X48133D01*
X50688Y358663D01*
X57874D01*
Y358482D01*
X61584D01*
X61825Y357270D01*
X62667Y356010D01*
X63928Y355168D01*
X65414Y354872D01*
X74421D01*
X74770Y354639D01*
X76257Y354343D01*
X78567D01*
X83337Y349573D01*
X82851Y348400D01*
X73858D01*
Y333831D01*
X71938D01*
Y348400D01*
X56858D01*
Y348219D01*
X50942D01*
X48133Y351028D01*
X34163D01*
X29083Y345948D01*
Y335788D01*
X34163Y330708D01*
X48133D01*
X50434Y333009D01*
X56858D01*
Y332320D01*
X60611D01*
X60809Y331321D01*
X61651Y330061D01*
X64513Y327199D01*
X65774Y326357D01*
X67260Y326061D01*
X86187D01*
X87567Y324681D01*
X87081Y323508D01*
X74366D01*
Y309701D01*
X72446D01*
Y323508D01*
X57366D01*
Y322819D01*
X50942D01*
X48133Y325628D01*
X34163D01*
X29083Y320548D01*
Y310388D01*
X34163Y305308D01*
X48133D01*
X50434Y307609D01*
X57366D01*
Y307428D01*
X61026D01*
X61317Y305962D01*
X62159Y304702D01*
X63792Y303069D01*
X65052Y302227D01*
X66539Y301931D01*
X78909D01*
X82829Y298011D01*
X82343Y296838D01*
X75890D01*
Y283539D01*
X73970D01*
Y296838D01*
X68180D01*
X67132Y297272D01*
X65163Y297532D01*
X50829D01*
X48133Y300228D01*
X34163D01*
X29083Y295148D01*
Y284988D01*
X34163Y279908D01*
X48133D01*
X50546Y282321D01*
X58890D01*
Y280758D01*
X62545D01*
Y279908D01*
X62841Y278421D01*
X63683Y277161D01*
X63937Y276907D01*
X65198Y276065D01*
X66684Y275769D01*
X80433D01*
X82067Y274135D01*
X81581Y272962D01*
X75382D01*
Y259663D01*
X73462D01*
Y262555D01*
X73522Y262700D01*
X73781Y264668D01*
X73522Y266636D01*
X73462Y266781D01*
Y272962D01*
X58382D01*
Y272273D01*
X50688D01*
X48133Y274828D01*
X34163D01*
X29083Y269748D01*
Y259588D01*
X34163Y254508D01*
X48133D01*
X50688Y257063D01*
X58382D01*
Y256882D01*
X62038D01*
Y256032D01*
X62333Y254545D01*
X63175Y253285D01*
X63429Y253031D01*
X64690Y252189D01*
X66176Y251893D01*
X82211D01*
X85369Y248735D01*
X84883Y247562D01*
X76144D01*
Y234263D01*
X74224D01*
Y237155D01*
X74284Y237300D01*
X74543Y239268D01*
X74284Y241236D01*
X74224Y241381D01*
Y247562D01*
X59144D01*
Y246873D01*
X50688D01*
X48133Y249428D01*
X34163D01*
X29083Y244348D01*
Y234188D01*
X34163Y229108D01*
X48133D01*
X50688Y231663D01*
X59144D01*
Y231482D01*
X62972D01*
X63095Y230865D01*
X63937Y229604D01*
X65910Y227631D01*
X67171Y226789D01*
X68657Y226493D01*
X84497D01*
X87909Y223081D01*
X87423Y221908D01*
X76398D01*
Y211454D01*
X75186Y210920D01*
X74478Y211488D01*
Y221908D01*
X59398D01*
Y221332D01*
X50829D01*
X48133Y224028D01*
X34163D01*
X29083Y218948D01*
Y208788D01*
X34163Y203708D01*
X48133D01*
X50546Y206122D01*
X59398D01*
Y205828D01*
X68984D01*
X73398Y201414D01*
X74499Y200679D01*
X74670Y200305D01*
X74694Y200184D01*
X74778Y199253D01*
X73397Y197872D01*
X72555Y196612D01*
X72534Y196508D01*
X59398D01*
Y196073D01*
X50688D01*
X48133Y198628D01*
X34163D01*
X29083Y193548D01*
Y183388D01*
X34163Y178308D01*
X48133D01*
X50688Y180863D01*
X59398D01*
Y180428D01*
X74478D01*
Y183568D01*
X75251Y183934D01*
X76398Y183139D01*
Y180428D01*
X91478D01*
Y181806D01*
X102142D01*
X106328Y177621D01*
X105802Y176351D01*
X76082D01*
X74596Y176055D01*
X73335Y175213D01*
X69484Y171362D01*
X59398D01*
Y170673D01*
X50688D01*
X48133Y173228D01*
X34163D01*
X29083Y168148D01*
Y157988D01*
X34163Y152908D01*
X48133D01*
X50688Y155463D01*
X59398D01*
Y155282D01*
X74478D01*
Y162575D01*
X74543Y163068D01*
X74478Y163561D01*
Y165202D01*
X75186Y165770D01*
X76398Y165236D01*
Y155282D01*
X91478D01*
Y156406D01*
X104937D01*
X110489Y150854D01*
X110002Y149681D01*
X75320D01*
X73833Y149385D01*
X72573Y148543D01*
X69484Y145454D01*
X59398D01*
Y145132D01*
X50829D01*
X48133Y147828D01*
X34163D01*
X29083Y142748D01*
Y132588D01*
X34163Y127508D01*
X48133D01*
X50546Y129922D01*
X59398D01*
Y129374D01*
X74478D01*
Y139294D01*
X75186Y139862D01*
X76398Y139328D01*
Y129374D01*
X82057D01*
X89441Y121989D01*
X88955Y120816D01*
X76144D01*
Y110362D01*
X74932Y109828D01*
X74224Y110396D01*
Y120816D01*
X59144D01*
Y119873D01*
X50688D01*
X48133Y122428D01*
X34163D01*
X29083Y117348D01*
Y107188D01*
X34163Y102108D01*
X48133D01*
X50688Y104663D01*
X66176D01*
X66731Y104736D01*
X68730D01*
X81051Y92415D01*
X82311Y91573D01*
X83798Y91277D01*
X89489D01*
X91057Y89709D01*
X92317Y88867D01*
X93804Y88571D01*
X118493D01*
X119126Y87624D01*
Y85604D01*
X119899Y83736D01*
X121328Y82307D01*
X123195Y81534D01*
X125217D01*
X127084Y82307D01*
X128513Y83736D01*
X129286Y85604D01*
Y87624D01*
X129919Y88571D01*
X133641D01*
X135128Y88867D01*
X136388Y89709D01*
X137876Y91197D01*
X138718Y92457D01*
X139014Y93944D01*
Y131488D01*
X173801Y166275D01*
X174454Y166180D01*
X174710Y165697D01*
X174840Y164840D01*
X141779Y131779D01*
X140937Y130519D01*
X140641Y129032D01*
Y67131D01*
X98969D01*
X88677Y77423D01*
X87416Y78265D01*
X85930Y78561D01*
X75637D01*
X74478Y78828D01*
Y86374D01*
X74543Y86868D01*
X74478Y87362D01*
Y94908D01*
X59398D01*
Y94473D01*
X50688D01*
X48133Y97028D01*
X34163D01*
X29083Y91948D01*
Y81788D01*
X34163Y76708D01*
X48133D01*
X50688Y79263D01*
X59398D01*
Y78828D01*
X63053D01*
Y74676D01*
X63349Y73189D01*
X64191Y71929D01*
X65451Y71087D01*
X66938Y70791D01*
X84321D01*
X94613Y60499D01*
X95873Y59657D01*
X97360Y59361D01*
X143038D01*
X144525Y59657D01*
X145785Y60499D01*
X147273Y61987D01*
X148115Y63247D01*
X148411Y64734D01*
Y127423D01*
X179409Y158421D01*
X325374D01*
X326861Y158717D01*
X328121Y159559D01*
X364189Y195627D01*
X365031Y196887D01*
X365327Y198374D01*
Y226525D01*
X395696Y256895D01*
X396942Y256647D01*
X397021Y256456D01*
X398450Y255027D01*
X400317Y254253D01*
X402338D01*
X404206Y255027D01*
X405635Y256456D01*
X406408Y258323D01*
Y259685D01*
X407243Y260519D01*
X408440Y259921D01*
Y258323D01*
X409213Y256456D01*
X410642Y255027D01*
X412509Y254253D01*
X414530D01*
X416398Y255027D01*
X417827Y256456D01*
X418600Y258323D01*
Y260344D01*
X417827Y262211D01*
X416398Y263640D01*
X414530Y264413D01*
X412509D01*
X411117Y263837D01*
X409982Y264639D01*
X410039Y264925D01*
Y267210D01*
X416179Y273350D01*
X417021Y274610D01*
X417197Y275496D01*
X417323Y275685D01*
X417637Y277261D01*
Y294423D01*
X417927Y295352D01*
X418856Y295642D01*
X436018D01*
X437197Y295877D01*
X440817D01*
X448235Y288459D01*
Y108664D01*
X448531Y107177D01*
X449373Y105917D01*
X483107Y72183D01*
X484367Y71341D01*
X485854Y71045D01*
X560986D01*
X562472Y71341D01*
X563733Y72183D01*
X565221Y73671D01*
X566063Y74931D01*
X566358Y76418D01*
Y82130D01*
X570014D01*
Y82565D01*
X589900D01*
X591439Y81026D01*
X605409D01*
X610489Y86106D01*
Y96266D01*
X605409Y101346D01*
X591439D01*
X587868Y97775D01*
X570014D01*
Y98210D01*
X554934D01*
Y90664D01*
X554869Y90170D01*
X554934Y89676D01*
Y82130D01*
X558589D01*
Y78815D01*
X526639D01*
X525934Y79871D01*
X526119Y80318D01*
X526197Y80912D01*
X528629Y83343D01*
X537934D01*
Y82130D01*
X553014D01*
Y88817D01*
X553179Y89216D01*
X553406Y90940D01*
Y91440D01*
X553179Y93164D01*
X553014Y93563D01*
Y98210D01*
X541315D01*
X540829Y99383D01*
X542717Y101271D01*
X561724D01*
X563211Y101567D01*
X564471Y102409D01*
X566373Y104311D01*
X567215Y105571D01*
X567453Y106768D01*
X570522D01*
Y107203D01*
X590662D01*
X591439Y106426D01*
X605409D01*
X610489Y111506D01*
Y121666D01*
X605409Y126746D01*
X591439D01*
X587106Y122413D01*
X570522D01*
Y122848D01*
X555442D01*
Y109041D01*
X553522D01*
Y113193D01*
X553687Y113592D01*
X553914Y115316D01*
X553687Y117040D01*
X553522Y117439D01*
Y122848D01*
X547825D01*
X547339Y124021D01*
X551808Y128490D01*
X565150D01*
X566637Y128786D01*
X567897Y129628D01*
X568739Y130888D01*
X569035Y132375D01*
Y132930D01*
X571792D01*
Y133619D01*
X589646D01*
X591439Y131826D01*
X605409D01*
X610489Y136906D01*
Y147066D01*
X605409Y152146D01*
X591439D01*
X588122Y148829D01*
X571792D01*
Y149010D01*
X556712D01*
Y141718D01*
X556647Y141224D01*
X556712Y140730D01*
Y136259D01*
X554792D01*
Y149010D01*
X544275D01*
X543789Y150183D01*
X547623Y154017D01*
X566674D01*
X568161Y154313D01*
X569421Y155155D01*
X570263Y156415D01*
X570559Y157902D01*
Y159092D01*
X571284D01*
Y160035D01*
X588630D01*
X591439Y157226D01*
X605409D01*
X610489Y162306D01*
Y172466D01*
X605409Y177546D01*
X591439D01*
X589138Y175245D01*
X567808D01*
X567253Y175172D01*
X556204D01*
Y161786D01*
X554284D01*
Y175172D01*
X544910D01*
X544424Y176345D01*
X546820Y178741D01*
X562138D01*
X563625Y179037D01*
X564885Y179879D01*
X566373Y181367D01*
X567215Y182627D01*
X567511Y184114D01*
Y184238D01*
X571030D01*
Y184927D01*
X589138D01*
X591439Y182626D01*
X605409D01*
X610489Y187706D01*
Y197866D01*
X605409Y202946D01*
X591439D01*
X588630Y200137D01*
X571030D01*
Y200318D01*
X555950D01*
Y186511D01*
X554030D01*
Y200318D01*
X540601D01*
X540075Y201588D01*
X542374Y203887D01*
X563662D01*
X565149Y204183D01*
X566409Y205025D01*
X567897Y206513D01*
X568739Y207773D01*
X569035Y209260D01*
Y210146D01*
X570776D01*
Y210581D01*
X588884D01*
X591439Y208026D01*
X605409D01*
X610489Y213106D01*
Y223266D01*
X605409Y228346D01*
X591439D01*
X588884Y225791D01*
X570776D01*
Y226226D01*
X555696D01*
Y211657D01*
X553776D01*
Y215868D01*
X553914Y216916D01*
X553776Y217964D01*
Y226226D01*
X538696D01*
Y223578D01*
X524307D01*
X523821Y224751D01*
X528865Y229795D01*
X563408D01*
X564895Y230091D01*
X566155Y230933D01*
X567643Y232421D01*
X568485Y233681D01*
X568781Y235168D01*
Y235546D01*
X570776D01*
Y236235D01*
X588630D01*
X591439Y233426D01*
X605409D01*
X610489Y238506D01*
Y248666D01*
X605409Y253746D01*
X591439D01*
X589138Y251445D01*
X570776D01*
Y251626D01*
X555696D01*
Y237565D01*
X553776D01*
Y241268D01*
X553914Y242316D01*
X553776Y243364D01*
Y251626D01*
X544275D01*
X543789Y252799D01*
X545423Y254433D01*
X562002D01*
X563489Y254729D01*
X564749Y255571D01*
X566237Y257059D01*
X567079Y258319D01*
X567374Y259806D01*
Y259930D01*
X571030D01*
Y260365D01*
X589900D01*
X591439Y258826D01*
X605409D01*
X610489Y263906D01*
Y274066D01*
X605409Y279146D01*
X591439D01*
X587868Y275575D01*
X571030D01*
Y276010D01*
X555950D01*
Y262203D01*
X554030D01*
Y276010D01*
X538950D01*
Y274378D01*
X524307D01*
X523821Y275551D01*
X528357Y280087D01*
X562138D01*
X563625Y280383D01*
X564885Y281225D01*
X566373Y282713D01*
X567215Y283973D01*
X567511Y285460D01*
Y286346D01*
X571538D01*
Y287035D01*
X588630D01*
X591439Y284226D01*
X605409D01*
X610489Y289306D01*
Y299466D01*
X605409Y304546D01*
X591439D01*
X589138Y302245D01*
X571538D01*
Y302426D01*
X556458D01*
Y287857D01*
X554538D01*
Y302426D01*
X543871D01*
X543385Y303599D01*
X545781Y305995D01*
X562510D01*
X563997Y306291D01*
X565257Y307133D01*
X566745Y308621D01*
X567587Y309881D01*
X567882Y311368D01*
Y311746D01*
X571538D01*
Y312435D01*
X588630D01*
X591439Y309626D01*
X605409D01*
X610489Y314706D01*
Y324866D01*
X605409Y329946D01*
X591439D01*
X589138Y327645D01*
X571538D01*
Y327826D01*
X556458D01*
Y313765D01*
X554538D01*
Y327826D01*
X539458D01*
Y325178D01*
X524307D01*
X523821Y326351D01*
X527849Y330379D01*
X563662D01*
X565149Y330675D01*
X566409Y331517D01*
X567897Y333005D01*
X568739Y334265D01*
X569035Y335752D01*
Y335876D01*
X571792D01*
Y336057D01*
X590408D01*
X591439Y335026D01*
X605409D01*
X610489Y340106D01*
Y350266D01*
X605409Y355346D01*
X591439D01*
X587360Y351267D01*
X571792D01*
Y351956D01*
X556712D01*
Y338149D01*
X554792D01*
Y351956D01*
X542762D01*
X542276Y353129D01*
X545180Y356033D01*
X565440D01*
X566927Y356329D01*
X568187Y357171D01*
X569675Y358659D01*
X570517Y359919D01*
X570813Y361406D01*
Y362292D01*
X571284D01*
Y362473D01*
X589392D01*
X591439Y360426D01*
X605409D01*
X610489Y365506D01*
Y375666D01*
X605409Y380746D01*
X591439D01*
X588376Y377683D01*
X571284D01*
Y378372D01*
X556204D01*
Y363803D01*
X554284D01*
Y378372D01*
X539204D01*
Y375978D01*
X524307D01*
X523821Y377151D01*
X527849Y381179D01*
X562510D01*
X563997Y381475D01*
X565257Y382317D01*
X566745Y383805D01*
X567587Y385065D01*
X567882Y386552D01*
Y386930D01*
X571538D01*
Y387619D01*
X589646D01*
X591439Y385826D01*
X605409D01*
X610489Y390906D01*
Y401066D01*
X605409Y406146D01*
X591439D01*
X588122Y402829D01*
X571538D01*
Y403010D01*
X556458D01*
Y388949D01*
X554538D01*
Y403010D01*
X539458D01*
Y401378D01*
X524307D01*
X523821Y402551D01*
X527341Y406071D01*
X562900D01*
X564387Y406367D01*
X565647Y407209D01*
X567135Y408697D01*
X567977Y409957D01*
X568273Y411444D01*
Y412838D01*
X571030D01*
Y413273D01*
X589392D01*
X591439Y411226D01*
X605409D01*
X610489Y416306D01*
Y426466D01*
X605409Y431546D01*
X591439D01*
X588376Y428483D01*
X571030D01*
Y428918D01*
X555950D01*
Y413841D01*
X554030D01*
Y428918D01*
X538950D01*
Y426778D01*
X536250D01*
X535764Y427951D01*
X539792Y431979D01*
X564170D01*
X565657Y432275D01*
X566917Y433117D01*
X568405Y434605D01*
X569247Y435865D01*
X569543Y437352D01*
Y437984D01*
X571284D01*
Y438165D01*
X589900D01*
X591439Y436626D01*
X605409D01*
X610489Y441706D01*
Y451866D01*
X605409Y456946D01*
X591439D01*
X587868Y453375D01*
X571284D01*
Y454064D01*
X556204D01*
Y439749D01*
X554284D01*
Y454064D01*
X539204D01*
Y452178D01*
X524307D01*
X523821Y453351D01*
X528865Y458395D01*
X562138D01*
X563625Y458691D01*
X564885Y459533D01*
X566373Y461021D01*
X567215Y462281D01*
X567511Y463768D01*
Y464400D01*
X571030D01*
Y464835D01*
X588630D01*
X591439Y462026D01*
X605409D01*
X610489Y467106D01*
Y477266D01*
X605409Y482346D01*
D02*
G37*
G36*
X254962Y496442D02*
X254042D01*
X253692Y496442D01*
X235962D01*
Y492818D01*
X231134D01*
X229410Y492591D01*
X227803Y491926D01*
X226423Y490867D01*
X208815Y473259D01*
X186000D01*
Y485384D01*
X158920D01*
Y474054D01*
X93402D01*
X91446Y473796D01*
X89623Y473041D01*
X88058Y471840D01*
X87057Y470536D01*
X68766D01*
X68282Y470600D01*
X67798Y470536D01*
X67242D01*
X66758Y470600D01*
X51042D01*
X50772Y470827D01*
X50134Y471772D01*
X50361Y472910D01*
X50065Y474397D01*
X49223Y475657D01*
X48677Y476203D01*
X47417Y477045D01*
X45930Y477341D01*
X44443Y477045D01*
X43183Y476203D01*
X42341Y474943D01*
X42045Y473456D01*
X42259Y472382D01*
X41503Y471112D01*
X32766D01*
X30539Y472398D01*
X27986Y473082D01*
X25342D01*
X22789Y472398D01*
X20499Y471076D01*
X18630Y469207D01*
X17308Y466917D01*
X16624Y464364D01*
Y461720D01*
X17308Y459167D01*
X18630Y456877D01*
X20499Y455008D01*
X22789Y453686D01*
X25342Y453002D01*
X27986D01*
X30539Y453686D01*
X32766Y454972D01*
X37214D01*
Y454456D01*
X63415D01*
Y449439D01*
X63672Y447483D01*
X64427Y445660D01*
X65628Y444095D01*
X71431Y438292D01*
X72997Y437091D01*
X74819Y436336D01*
X76775Y436078D01*
X100760D01*
Y435944D01*
X127840D01*
Y451024D01*
X114821D01*
X113532Y451194D01*
X79906D01*
X78530Y452569D01*
Y454456D01*
X100442D01*
Y458804D01*
X127500D01*
Y458938D01*
X158920D01*
Y447304D01*
X186000D01*
Y459937D01*
X211569D01*
X211576Y459936D01*
X213300Y460163D01*
X214907Y460829D01*
X216287Y461887D01*
X233894Y479494D01*
X235962D01*
Y475362D01*
X253692D01*
X254042Y475362D01*
X254962D01*
X255312Y475362D01*
X257340D01*
Y473074D01*
X254962D01*
Y451994D01*
X273042D01*
Y473074D01*
X270664D01*
Y475362D01*
X273042D01*
Y496442D01*
X255312D01*
X254962Y496442D01*
D02*
G37*
G36*
X264478Y442904D02*
X252398D01*
Y434318D01*
X242180Y424100D01*
X241831D01*
X239914Y423586D01*
X238934Y423021D01*
X237664Y423754D01*
Y424100D01*
X222584D01*
Y409020D01*
X237664D01*
Y409366D01*
X238934Y410099D01*
X239914Y409534D01*
X241831Y409020D01*
X243817D01*
X245734Y409534D01*
X247454Y410527D01*
X248857Y411930D01*
X249850Y413650D01*
X250364Y415567D01*
Y417553D01*
X249850Y419470D01*
X249370Y420302D01*
X257892Y428824D01*
X264478D01*
Y442904D01*
D02*
G37*
%LPD*%
G36*
X499844Y448610D02*
X501104Y447768D01*
X502590Y447472D01*
X511068D01*
X511553Y446299D01*
X505200Y439946D01*
X504142Y438566D01*
X503476Y436959D01*
X503249Y435235D01*
X503474Y433531D01*
X503481Y433458D01*
X502673Y432485D01*
X501617Y432425D01*
X496954Y437087D01*
X495694Y437929D01*
X494207Y438225D01*
X492721Y437929D01*
X491460Y437087D01*
X468468Y414095D01*
X451670D01*
X451184Y415268D01*
X487454Y451537D01*
X496916D01*
X499844Y448610D01*
D02*
G37*
G36*
X497424Y425629D02*
X498685Y424787D01*
X500171Y424492D01*
X513487D01*
X513973Y423318D01*
X502781Y412127D01*
X501722Y410747D01*
X501127Y409310D01*
X499884Y408757D01*
X499748Y408893D01*
X498488Y409735D01*
X497001Y410031D01*
X477051D01*
X476565Y411204D01*
X494207Y428846D01*
X497424Y425629D01*
D02*
G37*
G36*
X499844Y397810D02*
X501104Y396968D01*
X502590Y396672D01*
X511068D01*
X511553Y395499D01*
X502781Y386727D01*
X501735Y385363D01*
X501592Y385187D01*
X500200Y384989D01*
X499278Y385605D01*
X497792Y385901D01*
X487765D01*
X472578Y401088D01*
X473064Y402261D01*
X495392D01*
X499844Y397810D01*
D02*
G37*
G36*
X501904Y372410D02*
X503164Y371568D01*
X504651Y371272D01*
X511068D01*
X511553Y370099D01*
X505045Y363591D01*
X503986Y362211D01*
X503792Y361740D01*
X502294Y361442D01*
X486875Y376861D01*
X487401Y378131D01*
X496183D01*
X501904Y372410D01*
D02*
G37*
G36*
X356360Y395911D02*
X355862Y394710D01*
Y393426D01*
X355771Y393335D01*
X354929Y392075D01*
X354633Y390588D01*
Y378440D01*
X354399Y377261D01*
Y360100D01*
X354109Y359171D01*
X353180Y358881D01*
X336018D01*
X334442Y358567D01*
X333105Y357674D01*
X332212Y356338D01*
X331899Y354761D01*
X332048Y354013D01*
X330877Y353387D01*
X311524Y372741D01*
X310188Y373634D01*
X308612Y373947D01*
X308612Y373947D01*
X248353D01*
X247526Y375380D01*
X245843Y377063D01*
X243781Y378253D01*
X241482Y378869D01*
X239102D01*
X236803Y378253D01*
X234741Y377063D01*
X233058Y375380D01*
X231868Y373319D01*
X231252Y371020D01*
Y368639D01*
X231868Y366340D01*
X233058Y364279D01*
X234741Y362596D01*
X236803Y361405D01*
X237924Y361105D01*
X238304Y359688D01*
X237380Y358765D01*
X236488Y357429D01*
X236174Y355853D01*
X236174Y355853D01*
Y346890D01*
X234741Y346063D01*
X233058Y344380D01*
X231868Y342319D01*
X231252Y340020D01*
Y337639D01*
X231868Y335340D01*
X233058Y333279D01*
X234741Y331596D01*
X236803Y330406D01*
X239102Y329789D01*
X241482D01*
X243781Y330406D01*
X245843Y331596D01*
X247526Y333279D01*
X248716Y335340D01*
X249332Y337639D01*
Y340020D01*
X248716Y342319D01*
X247526Y344380D01*
X245843Y346063D01*
X244410Y346890D01*
Y354148D01*
X251452Y361190D01*
X305034D01*
X319558Y346666D01*
X319072Y345493D01*
X289181D01*
X287605Y345180D01*
X286269Y344287D01*
X286269Y344287D01*
X285000Y343017D01*
X284107Y341682D01*
X283794Y340106D01*
X282579Y339811D01*
X280870D01*
Y329731D01*
X280870D01*
X280435Y328641D01*
X278370D01*
Y310561D01*
X294450D01*
Y328641D01*
X292385D01*
X291950Y329731D01*
X291950D01*
Y335375D01*
X292029Y335773D01*
Y337258D01*
X320196D01*
X322405Y335048D01*
X321919Y333875D01*
X316470D01*
X316470Y333875D01*
X314894Y333562D01*
X313558Y332669D01*
X313558Y332669D01*
X311802Y330913D01*
X310910Y329577D01*
X310596Y328002D01*
X310596Y328002D01*
Y305641D01*
X296370D01*
Y287561D01*
X298870D01*
Y277661D01*
X300158D01*
Y264231D01*
X312238D01*
Y278311D01*
X309950D01*
Y284982D01*
X311220Y285367D01*
X311802Y284496D01*
X315753Y280546D01*
Y279995D01*
X315752Y279994D01*
X315835Y279581D01*
X315158Y278311D01*
X315158D01*
Y264231D01*
X318956D01*
X319442Y263058D01*
X283281Y226897D01*
X207847D01*
Y370876D01*
X207551Y372363D01*
X206709Y373623D01*
X205221Y375111D01*
X203961Y375953D01*
X202474Y376249D01*
X141018D01*
X139531Y375953D01*
X138271Y375111D01*
X138115Y374955D01*
X129661D01*
X128860Y375955D01*
X128889Y376225D01*
X129113Y377929D01*
X128886Y379653D01*
X128221Y381260D01*
X127162Y382640D01*
X114439Y395363D01*
X113724Y395911D01*
X114155Y397181D01*
X355580D01*
X356360Y395911D01*
D02*
G37*
G36*
X364633Y388547D02*
Y378440D01*
X364399Y377261D01*
Y359261D01*
X364712Y357685D01*
X365605Y356349D01*
X366942Y355456D01*
X368518Y355142D01*
X370094Y355456D01*
X371018Y356073D01*
X371942Y355456D01*
X373518Y355142D01*
X375094Y355456D01*
X376018Y356073D01*
X376942Y355456D01*
X378518Y355142D01*
X380094Y355456D01*
X381018Y356073D01*
X381942Y355456D01*
X383518Y355142D01*
X385094Y355456D01*
X386018Y356073D01*
X386942Y355456D01*
X388518Y355142D01*
X390094Y355456D01*
X391018Y356073D01*
X391942Y355456D01*
X393518Y355142D01*
X395094Y355456D01*
X396018Y356073D01*
X396942Y355456D01*
X398518Y355142D01*
X400094Y355456D01*
X401018Y356073D01*
X401942Y355456D01*
X403518Y355142D01*
X405094Y355456D01*
X406018Y356073D01*
X406942Y355456D01*
X408518Y355142D01*
X410094Y355456D01*
X411018Y356073D01*
X411942Y355456D01*
X413518Y355142D01*
X413899Y354761D01*
X414212Y353185D01*
X415105Y351849D01*
X416442Y350956D01*
X418018Y350642D01*
X436018D01*
X437177Y350873D01*
X447551D01*
X448604Y349819D01*
X448118Y348646D01*
X437197D01*
X436018Y348881D01*
X418018D01*
X416442Y348567D01*
X415105Y347674D01*
X414212Y346338D01*
X413899Y344761D01*
X414212Y343185D01*
X414829Y342261D01*
X414212Y341338D01*
X413899Y339761D01*
X414212Y338185D01*
X414830Y337261D01*
X414212Y336338D01*
X413899Y334761D01*
X414212Y333185D01*
X414829Y332261D01*
X414212Y331338D01*
X413899Y329761D01*
X414212Y328185D01*
X414829Y327261D01*
X414212Y326338D01*
X413899Y324761D01*
X414212Y323185D01*
X414830Y322261D01*
X414212Y321338D01*
X413899Y319761D01*
X414212Y318185D01*
X414829Y317261D01*
X414212Y316338D01*
X413899Y314761D01*
X414212Y313185D01*
X414830Y312261D01*
X414212Y311338D01*
X413899Y309761D01*
X414212Y308185D01*
X414829Y307261D01*
X414212Y306338D01*
X413899Y304761D01*
X414212Y303185D01*
X414829Y302261D01*
X414212Y301338D01*
X413899Y299761D01*
X413518Y299381D01*
X411942Y299067D01*
X410605Y298174D01*
X409712Y296838D01*
X409399Y295261D01*
Y278097D01*
X408904Y277584D01*
X408712Y277597D01*
X407637Y278293D01*
Y295261D01*
X407324Y296838D01*
X406431Y298174D01*
X405094Y299067D01*
X403518Y299381D01*
X401942Y299067D01*
X401018Y298450D01*
X400094Y299067D01*
X398518Y299381D01*
X396942Y299067D01*
X396018Y298450D01*
X395094Y299067D01*
X393518Y299381D01*
X391942Y299067D01*
X391018Y298450D01*
X390094Y299067D01*
X388518Y299381D01*
X386942Y299067D01*
X386018Y298450D01*
X385094Y299067D01*
X383518Y299381D01*
X381942Y299067D01*
X381018Y298450D01*
X380094Y299067D01*
X378518Y299381D01*
X376942Y299067D01*
X376018Y298450D01*
X375094Y299067D01*
X373518Y299381D01*
X371942Y299067D01*
X371018Y298450D01*
X370094Y299067D01*
X368518Y299381D01*
X366942Y299067D01*
X366018Y298450D01*
X365094Y299067D01*
X363518Y299381D01*
X361942Y299067D01*
X361018Y298450D01*
X360094Y299067D01*
X358518Y299381D01*
X358137Y299761D01*
X357824Y301338D01*
X357206Y302261D01*
X357824Y303185D01*
X358137Y304761D01*
X357824Y306338D01*
X357206Y307261D01*
X357824Y308185D01*
X358137Y309761D01*
X357824Y311338D01*
X357206Y312261D01*
X357824Y313185D01*
X358137Y314761D01*
X357824Y316338D01*
X356931Y317674D01*
X355594Y318567D01*
X354018Y318881D01*
X336018D01*
X334819Y318642D01*
X328702D01*
X328176Y319912D01*
X329136Y320873D01*
X334859D01*
X336018Y320642D01*
X354018D01*
X355594Y320956D01*
X356931Y321849D01*
X357824Y323185D01*
X358137Y324761D01*
X357824Y326338D01*
X357206Y327261D01*
X357824Y328185D01*
X358137Y329761D01*
X357824Y331338D01*
X357206Y332261D01*
X357824Y333185D01*
X358137Y334761D01*
X357824Y336338D01*
X357206Y337261D01*
X357824Y338185D01*
X358137Y339761D01*
X357824Y341338D01*
X357206Y342261D01*
X357824Y343185D01*
X358137Y344761D01*
X357824Y346338D01*
X357206Y347261D01*
X357824Y348185D01*
X358137Y349761D01*
X357824Y351338D01*
X357206Y352261D01*
X357824Y353185D01*
X358137Y354761D01*
X358518Y355142D01*
X360094Y355456D01*
X361431Y356349D01*
X362324Y357685D01*
X362637Y359261D01*
Y377261D01*
X362403Y378440D01*
Y388523D01*
X363547Y389109D01*
X364633Y388547D01*
D02*
G37*
G36*
X116863Y368323D02*
X118123Y367481D01*
X119610Y367185D01*
X139724D01*
X141211Y367481D01*
X142471Y368323D01*
X142627Y368479D01*
X200077D01*
Y348601D01*
X198807Y348075D01*
X197855Y349028D01*
X196595Y349870D01*
X195108Y350166D01*
X124732D01*
X123931Y351166D01*
X123960Y351436D01*
X124184Y353140D01*
X123957Y354864D01*
X123291Y356471D01*
X122233Y357851D01*
X110080Y370003D01*
X110606Y371273D01*
X113913D01*
X116863Y368323D01*
D02*
G37*
G36*
X503475Y349274D02*
X504735Y348432D01*
X506222Y348136D01*
X513331D01*
X513817Y346963D01*
X502781Y335927D01*
X501735Y334563D01*
X501564Y334352D01*
X500290Y334211D01*
X487247Y347255D01*
Y363843D01*
X488420Y364329D01*
X503475Y349274D01*
D02*
G37*
G36*
X192711Y328030D02*
X191538Y327544D01*
X191215Y327867D01*
X189955Y328709D01*
X188468Y329005D01*
X165934D01*
X164448Y328709D01*
X163316Y327953D01*
X162778D01*
X161291Y327657D01*
X160031Y326815D01*
X159427Y326211D01*
X128646D01*
X127826Y327146D01*
X127599Y328870D01*
X126933Y330477D01*
X125875Y331857D01*
X116508Y341223D01*
X116994Y342396D01*
X192711D01*
Y328030D01*
D02*
G37*
G36*
X501904Y321610D02*
X503164Y320768D01*
X504651Y320472D01*
X511068D01*
X511553Y319299D01*
X505363Y313109D01*
X504305Y311729D01*
X503639Y310122D01*
X503252Y309845D01*
X502702Y309955D01*
X499449D01*
X483183Y326221D01*
Y338672D01*
X484356Y339158D01*
X501904Y321610D01*
D02*
G37*
G36*
X495093Y303323D02*
X496353Y302481D01*
X497840Y302185D01*
X501093D01*
X504486Y298792D01*
X505746Y297950D01*
X507233Y297654D01*
X513649D01*
X514136Y296481D01*
X502781Y285127D01*
X501722Y283747D01*
X501057Y282140D01*
X501014Y281813D01*
X500586Y281507D01*
X498941D01*
X493089Y287359D01*
Y303532D01*
X494359Y304058D01*
X495093Y303323D01*
D02*
G37*
G36*
X159165Y278110D02*
X157895Y277584D01*
X157433Y278047D01*
X156173Y278889D01*
X154686Y279185D01*
X124847D01*
X124046Y280185D01*
X124075Y280455D01*
X124299Y282159D01*
X124072Y283883D01*
X123406Y285490D01*
X122348Y286870D01*
X120960Y288258D01*
X120976Y288387D01*
X121529Y289484D01*
X159165D01*
Y278110D01*
D02*
G37*
G36*
X494585Y274875D02*
X495845Y274033D01*
X497332Y273737D01*
X498977D01*
X501904Y270810D01*
X503164Y269968D01*
X504651Y269672D01*
X511068D01*
X511553Y268499D01*
X504915Y261860D01*
X503868Y260496D01*
X503698Y260285D01*
X502424Y260145D01*
X487501Y275068D01*
Y280300D01*
X488674Y280786D01*
X494585Y274875D01*
D02*
G37*
G36*
X504392Y247189D02*
X505652Y246347D01*
X507139Y246051D01*
X512846D01*
X513333Y244878D01*
X502781Y234327D01*
X501756Y232990D01*
X501572Y232803D01*
X500308Y232642D01*
X482675Y250275D01*
Y267247D01*
X483848Y267733D01*
X504392Y247189D01*
D02*
G37*
G36*
X186833Y216372D02*
X186912Y215975D01*
X185870Y214705D01*
X171340D01*
X166935Y219110D01*
Y291881D01*
X166639Y293368D01*
X165797Y294628D01*
X164309Y296116D01*
X163049Y296958D01*
X161562Y297254D01*
X131162D01*
X130361Y298254D01*
X130390Y298524D01*
X130614Y300228D01*
X130387Y301952D01*
X129721Y303559D01*
X128663Y304939D01*
X118372Y315229D01*
X118858Y316402D01*
X124005D01*
X125492Y316698D01*
X126752Y317540D01*
X127653Y318441D01*
X161036D01*
X162523Y318737D01*
X163783Y319579D01*
X164387Y320183D01*
X164882D01*
X166369Y320479D01*
X167501Y321235D01*
X186833D01*
Y216372D01*
D02*
G37*
G36*
X497789Y224173D02*
X497886Y224028D01*
X501904Y220010D01*
X503164Y219168D01*
X504651Y218872D01*
X511068D01*
X511553Y217699D01*
X505548Y211693D01*
X504501Y210329D01*
X504331Y210118D01*
X503057Y209978D01*
X478103Y234932D01*
Y242200D01*
X479276Y242686D01*
X497789Y224173D01*
D02*
G37*
G36*
X152289Y208244D02*
X152368Y207847D01*
X151566Y206869D01*
X150755Y206840D01*
X149681Y207885D01*
Y241554D01*
X149385Y243041D01*
X148543Y244301D01*
X144320Y248524D01*
X143060Y249366D01*
X141573Y249661D01*
X123383D01*
X122581Y250662D01*
X122610Y250931D01*
X122834Y252636D01*
X122607Y254360D01*
X121942Y255967D01*
X120883Y257346D01*
X108851Y269379D01*
X107852Y270145D01*
X108283Y271415D01*
X152289D01*
Y208244D01*
D02*
G37*
G36*
X141911Y239945D02*
Y205704D01*
X142207Y204217D01*
X143049Y202957D01*
X143482Y202524D01*
X143064Y201146D01*
X142740Y201081D01*
X136981Y206841D01*
Y217713D01*
X136685Y219200D01*
X135843Y220460D01*
X134355Y221948D01*
X133095Y222790D01*
X131608Y223086D01*
X126336D01*
X125535Y224086D01*
X125564Y224356D01*
X125788Y226060D01*
X125561Y227784D01*
X124895Y229391D01*
X123837Y230771D01*
X113986Y240622D01*
X114511Y241892D01*
X139964D01*
X141911Y239945D01*
D02*
G37*
G36*
X129211Y205232D02*
X129507Y203745D01*
X130349Y202485D01*
X135244Y197590D01*
X134758Y196417D01*
X124118D01*
X123595Y197687D01*
X124165Y199063D01*
X124392Y200788D01*
X124165Y202512D01*
X123499Y204119D01*
X122441Y205499D01*
X115900Y212039D01*
X114802Y212882D01*
X113540Y214143D01*
X114026Y215316D01*
X129211D01*
Y205232D01*
D02*
G37*
G36*
X506419Y195628D02*
X507679Y194786D01*
X509166Y194490D01*
X512085D01*
X512572Y193317D01*
X505514Y186259D01*
X504467Y184896D01*
X504297Y184685D01*
X503023Y184544D01*
X473277Y214290D01*
Y227111D01*
X474450Y227597D01*
X506419Y195628D01*
D02*
G37*
G36*
X152008Y183410D02*
X144949Y176351D01*
X117170D01*
X116574Y177621D01*
X117274Y178534D01*
X117940Y180141D01*
X118167Y181865D01*
X117976Y183313D01*
X118721Y184583D01*
X151522D01*
X152008Y183410D01*
D02*
G37*
G36*
X504828Y171751D02*
X506089Y170909D01*
X507575Y170613D01*
X513609D01*
X514095Y169440D01*
X506338Y161684D01*
X505280Y160304D01*
X504614Y158697D01*
X504543Y158161D01*
X503634Y157047D01*
X501989D01*
X468705Y190331D01*
Y206215D01*
X469878Y206702D01*
X504828Y171751D01*
D02*
G37*
G36*
X164708Y179346D02*
X135043Y149681D01*
X125319D01*
X124518Y150681D01*
X124547Y150951D01*
X124771Y152655D01*
X124544Y154379D01*
X123878Y155986D01*
X122820Y157366D01*
X112874Y167311D01*
X113400Y168581D01*
X146558D01*
X148045Y168877D01*
X149305Y169719D01*
X160105Y180519D01*
X164222D01*
X164708Y179346D01*
D02*
G37*
G36*
X497633Y150415D02*
X498893Y149573D01*
X500380Y149277D01*
X502025D01*
X503935Y147367D01*
X505195Y146525D01*
X506682Y146229D01*
X514488D01*
X515014Y144959D01*
X503505Y133450D01*
X502458Y132087D01*
X502288Y131876D01*
X501014Y131735D01*
X464133Y168616D01*
Y182256D01*
X465306Y182742D01*
X497633Y150415D01*
D02*
G37*
G36*
X137280Y140741D02*
X132382Y135844D01*
X131540Y134584D01*
X131244Y133097D01*
Y108048D01*
X130244Y107247D01*
X129974Y107276D01*
X128270Y107500D01*
X126546Y107273D01*
X125254Y106738D01*
X98644D01*
X91224Y114157D01*
Y118783D01*
X92363Y119344D01*
X92553Y119199D01*
X94160Y118533D01*
X95884Y118306D01*
X100838D01*
X102562Y118533D01*
X104169Y119199D01*
X105549Y120257D01*
X106608Y121637D01*
X107273Y123244D01*
X107500Y124968D01*
X107273Y126692D01*
X106608Y128299D01*
X105549Y129679D01*
X104169Y130737D01*
X102562Y131403D01*
X100838Y131630D01*
X98644D01*
X91478Y138795D01*
Y141911D01*
X136652D01*
X136654Y141912D01*
X137280Y140741D01*
D02*
G37*
G36*
X502628Y119134D02*
X503888Y118292D01*
X505375Y117996D01*
X511791D01*
X512277Y116823D01*
X502781Y107327D01*
X501735Y105963D01*
X501564Y105752D01*
X500290Y105611D01*
X460069Y145833D01*
Y160034D01*
X461242Y160520D01*
X502628Y119134D01*
D02*
G37*
G36*
X501904Y93010D02*
X503164Y92168D01*
X504651Y91872D01*
X516656D01*
X517141Y90699D01*
X514973Y88531D01*
X513914Y87151D01*
X513249Y85544D01*
X513022Y83820D01*
Y82042D01*
X513249Y80318D01*
X513434Y79871D01*
X512729Y78815D01*
X487463D01*
X456005Y110273D01*
Y137250D01*
X457178Y137736D01*
X501904Y93010D01*
D02*
G37*
%LPC*%
G36*
X239558Y320907D02*
X236454D01*
X233455Y320104D01*
X230767Y318552D01*
X228572Y316357D01*
X227020Y313668D01*
X226216Y310670D01*
Y307565D01*
X227020Y304567D01*
X228572Y301878D01*
X230767Y299683D01*
X233455Y298131D01*
X236454Y297327D01*
X239558D01*
X242557Y298131D01*
X245245Y299683D01*
X247440Y301878D01*
X248993Y304567D01*
X249796Y307565D01*
Y310670D01*
X248993Y313668D01*
X247440Y316357D01*
X245245Y318552D01*
X242557Y320104D01*
X239558Y320907D01*
D02*
G37*
%LPD*%
D13*
X85930Y74676D02*
X97360Y63246D01*
X144526Y64734D02*
Y129032D01*
X97360Y63246D02*
X143038D01*
X144526Y64734D01*
X405063Y349757D02*
X427020D01*
X345020Y319757D02*
X345108Y319845D01*
X113192Y489496D02*
X114500Y488188D01*
X144526Y129032D02*
X177800Y162306D01*
X133641Y92456D02*
X135129Y93944D01*
Y133097D01*
X93804Y92456D02*
X133641D01*
X91098Y95162D02*
X93804Y92456D01*
X135129Y133097D02*
X172466Y170434D01*
X66684Y112276D02*
X83798Y95162D01*
X165934Y325120D02*
X188468D01*
X164882Y324068D02*
X165934Y325120D01*
X188468D02*
X190718Y322870D01*
Y216372D02*
Y322870D01*
Y216372D02*
X192206Y214884D01*
X293660D01*
X114681Y346281D02*
X195108D01*
X196596Y220436D02*
Y344793D01*
X195108Y346281D02*
X196596Y344793D01*
Y220436D02*
X198084Y218948D01*
X289596D01*
X205450Y223012D02*
X284890D01*
X203962Y224500D02*
X205450Y223012D01*
X202474Y372364D02*
X203962Y370876D01*
Y224500D02*
Y370876D01*
X141018Y372364D02*
X202474D01*
X162778Y324068D02*
X164882D01*
X161036Y322326D02*
X162778Y324068D01*
X139724Y371070D02*
X141018Y372364D01*
X66938Y74676D02*
Y86868D01*
Y74676D02*
X85930D01*
X83798Y95162D02*
X91098D01*
X66684Y112276D02*
Y112776D01*
X66938Y137414D02*
X75320Y145796D01*
X66938Y163322D02*
X76082Y172466D01*
X66938Y213368D02*
Y213868D01*
Y188468D02*
X74656D01*
X66938Y213368D02*
X76145Y204161D01*
X66684Y232351D02*
X68657Y230378D01*
X66684Y232351D02*
Y239268D01*
Y239522D01*
X65922Y256032D02*
X66176Y255778D01*
X65922Y256032D02*
Y264922D01*
X74656Y188468D02*
X76144Y189956D01*
Y195125D01*
X77781Y196762D01*
X106053D01*
X85598Y204216D02*
X88988Y200826D01*
X76145Y204161D02*
X76200Y204216D01*
X85598D01*
X86106Y230378D02*
X94322Y222162D01*
X68657Y230378D02*
X86106D01*
X83820Y255778D02*
X91782Y247816D01*
X66176Y255778D02*
X83820D01*
X82042Y279654D02*
X86396Y275300D01*
X75320Y145796D02*
X136652D01*
X76082Y172466D02*
X146558D01*
X107743Y195327D02*
X114602Y188468D01*
X107487Y195327D02*
X107743D01*
X106053Y196762D02*
X107487Y195327D01*
X108349Y200469D02*
X116285Y192532D01*
X108093Y200469D02*
X108349D01*
X107736Y200826D02*
X108093Y200469D01*
X88988Y200826D02*
X107736D01*
X146558Y172466D02*
X158496Y184404D01*
X133096Y205232D02*
X141732Y196596D01*
X145796Y205704D02*
X148808Y202692D01*
X156174Y208244D02*
X157662Y206756D01*
X133096Y205232D02*
Y217713D01*
X131608Y219201D02*
X133096Y217713D01*
X108761Y219201D02*
X131608D01*
X105800Y222162D02*
X108761Y219201D01*
X94322Y222162D02*
X105800D01*
X145796Y205704D02*
Y241554D01*
X86396Y275300D02*
X154686D01*
X156174Y208244D02*
Y273812D01*
X141573Y245777D02*
X145796Y241554D01*
X113331Y245777D02*
X141573D01*
X111292Y247816D02*
X113331Y245777D01*
X91782Y247816D02*
X111292D01*
X154686Y275300D02*
X156174Y273812D01*
X65414Y366268D02*
Y366522D01*
X64398Y332808D02*
Y340360D01*
X76257Y358228D02*
X80176D01*
X75728Y358757D02*
X76257Y358228D01*
X65414Y358757D02*
X75728D01*
X65414D02*
Y366268D01*
X66684Y279654D02*
X82042D01*
X66430Y279908D02*
X66684Y279654D01*
X66430Y279908D02*
Y288798D01*
X80518Y305816D02*
X88392Y297942D01*
X66539Y305816D02*
X80518D01*
X64906Y307449D02*
X66539Y305816D01*
X64906Y307449D02*
Y315468D01*
X93980Y323762D02*
X110118D01*
X87796Y329946D02*
X93980Y323762D01*
X111458Y349504D02*
X114681Y346281D01*
X88900Y349504D02*
X111458D01*
X80176Y358228D02*
X88900Y349504D01*
X65922Y383649D02*
X67809Y381762D01*
X65922Y383649D02*
Y390652D01*
X65668Y417076D02*
X73673Y409071D01*
X65668Y417076D02*
Y417576D01*
X119610Y371070D02*
X139724D01*
X115522Y375158D02*
X119610Y371070D01*
X91466Y375158D02*
X115522D01*
X84862Y381762D02*
X91466Y375158D01*
X67809Y381762D02*
X84862D01*
X87753Y409071D02*
X95758Y401066D01*
X73673Y409071D02*
X87753D01*
X116538Y297942D02*
X121111Y293369D01*
X88392Y297942D02*
X116538D01*
X113593Y320287D02*
X124005D01*
X126044Y322326D01*
X110118Y323762D02*
X113593Y320287D01*
X126044Y322326D02*
X161036D01*
X67260Y329946D02*
X87796D01*
X64398Y332808D02*
X67260Y329946D01*
X562474Y76418D02*
Y90170D01*
X560986Y74930D02*
X562474Y76418D01*
X452120Y108664D02*
X485854Y74930D01*
X560986D01*
X521921Y95757D02*
X524628Y98464D01*
X504651Y95757D02*
X521921D01*
X524628Y98464D02*
X534416D01*
X87536Y463768D02*
X91536Y467768D01*
X358518Y368261D02*
Y390588D01*
X360942Y393012D01*
Y393699D01*
X45930Y473456D02*
X46476Y472910D01*
X95758Y401066D02*
X363982D01*
X534416Y98464D02*
X541108Y105156D01*
X561724D02*
X563626Y107058D01*
X541108Y105156D02*
X561724D01*
X562982Y114808D02*
X563626Y114164D01*
Y107058D02*
Y114164D01*
X518366Y123190D02*
X541014D01*
X565150Y132375D02*
Y140072D01*
X541014Y123190D02*
X550199Y132375D01*
X565150D01*
X506682Y150114D02*
X538226D01*
X566674Y157902D02*
Y164202D01*
X538226Y150114D02*
X546014Y157902D01*
X566674D01*
X503634Y153162D02*
X506682Y150114D01*
X500380Y153162D02*
X503634D01*
X562138Y182626D02*
X563626Y184114D01*
X537083Y174498D02*
X545211Y182626D01*
X563626Y184114D02*
Y192142D01*
X545211Y182626D02*
X562138D01*
X563662Y207772D02*
X565150Y209260D01*
X531368Y198375D02*
X540765Y207772D01*
X565150Y209260D02*
Y216272D01*
X540765Y207772D02*
X563662D01*
X509166Y198375D02*
X531368D01*
X563408Y233680D02*
X564896Y235168D01*
X527256Y233680D02*
X563408D01*
X564896Y235168D02*
Y241926D01*
X516333Y222757D02*
X527256Y233680D01*
X563490Y259806D02*
Y267970D01*
X543814Y258318D02*
X562002D01*
X535432Y249936D02*
X543814Y258318D01*
X562002D02*
X563490Y259806D01*
X563626Y285460D02*
Y294014D01*
X562138Y283972D02*
X563626Y285460D01*
X516333Y273557D02*
X526748Y283972D01*
X562138D01*
X563998Y311368D02*
Y319786D01*
X562510Y309880D02*
X563998Y311368D01*
X535831Y301539D02*
X544172Y309880D01*
X562510D01*
X526240Y334264D02*
X563662D01*
X565150Y335752D02*
Y343018D01*
X563662Y334264D02*
X565150Y335752D01*
X516333Y324357D02*
X526240Y334264D01*
X565440Y359918D02*
X566928Y361406D01*
X535674Y352021D02*
X543571Y359918D01*
X566928Y361406D02*
Y367148D01*
X543571Y359918D02*
X565440D01*
X563998Y386552D02*
Y394970D01*
X526240Y385064D02*
X562510D01*
X516333Y375157D02*
X526240Y385064D01*
X562510D02*
X563998Y386552D01*
X564388Y411444D02*
Y419980D01*
X562900Y409956D02*
X564388Y411444D01*
X516333Y400557D02*
X525732Y409956D01*
X562900D01*
X564170Y435864D02*
X565658Y437352D01*
X530695Y428376D02*
X538183Y435864D01*
X564170D01*
X565658Y437352D02*
Y444110D01*
X413642Y374561D02*
X441109D01*
X413518Y374437D02*
X413642Y374561D01*
X334010Y428244D02*
X338582Y423672D01*
X304038Y418065D02*
X314217Y428244D01*
X334010D01*
X304038Y416814D02*
Y418065D01*
X374979Y436372D02*
X377773Y433578D01*
X304641Y435864D02*
X305149Y436372D01*
X350048Y432308D02*
X357124Y425232D01*
X306832Y432308D02*
X350048D01*
X273438Y435864D02*
X304641D01*
X305149Y436372D02*
X374979D01*
X291338Y416814D02*
X306832Y432308D01*
X357124Y410718D02*
Y425232D01*
X377773Y433578D02*
X378460D01*
Y390906D02*
Y407670D01*
Y390906D02*
X378518Y390848D01*
X460153Y339598D02*
X469646D01*
X456852Y342899D02*
X460153Y339598D01*
X453475Y342899D02*
X456852D01*
X451613Y344761D02*
X453475Y342899D01*
X427018Y344761D02*
X451613D01*
X451791Y338835D02*
X455169D01*
X450865Y339761D02*
X451791Y338835D01*
X427018Y339761D02*
X450865D01*
X455169Y338835D02*
X489204Y304800D01*
X452385Y334761D02*
X483616Y303530D01*
X427018Y334761D02*
X452385D01*
X413518Y368261D02*
Y374437D01*
X371856Y413548D02*
X373344Y415036D01*
X371856Y398939D02*
X372812Y397983D01*
Y378092D02*
Y397983D01*
X371856Y398939D02*
Y413548D01*
X373344Y415036D02*
X445459D01*
X373518Y368261D02*
Y377386D01*
X372812Y378092D02*
X373518Y377386D01*
X384224Y407628D02*
X386806Y410210D01*
X384224Y378092D02*
Y407628D01*
X383518Y377386D02*
X384224Y378092D01*
X383518Y368261D02*
Y377386D01*
X386806Y410210D02*
X470077D01*
X378518Y368261D02*
Y390848D01*
X242824Y416560D02*
X244251Y417987D01*
X258438Y434864D02*
Y435864D01*
X244251Y420677D02*
X258438Y434864D01*
X244251Y417987D02*
Y420677D01*
X485845Y455422D02*
X498525D01*
X445459Y415036D02*
X485845Y455422D01*
X470077Y410210D02*
X494207Y434340D01*
X500171Y428376D01*
X530695D01*
X497001Y406146D02*
X502590Y400557D01*
X388518Y404658D02*
X390006Y406146D01*
X388518Y368261D02*
Y404658D01*
X390006Y406146D02*
X497001D01*
X502590Y400557D02*
X516333D01*
X395006Y400558D02*
X467614D01*
X393518Y368261D02*
Y399070D01*
X467614Y400558D02*
X486156Y382016D01*
X393518Y399070D02*
X395006Y400558D01*
X398518Y368261D02*
Y394498D01*
X400006Y395986D02*
X462256D01*
X506222Y352021D01*
X398518Y394498D02*
X400006Y395986D01*
X459740Y390906D02*
X483362Y367284D01*
X403518Y368261D02*
Y389418D01*
X405006Y390906D01*
X459740D01*
X408518Y368261D02*
Y383576D01*
X458724Y385064D02*
X479298Y364490D01*
X410006Y385064D02*
X458724D01*
X408518Y383576D02*
X410006Y385064D01*
X325374Y162306D02*
X361442Y198374D01*
Y228134D01*
X177800Y162306D02*
X325374D01*
X324104Y170434D02*
X354330Y200660D01*
X172466Y170434D02*
X324104D01*
X354330Y200660D02*
Y226769D01*
X346964Y203200D02*
Y225151D01*
X168656Y177800D02*
X321564D01*
X346964Y203200D01*
X158496Y184404D02*
X320040D01*
X340868Y205232D01*
Y224802D01*
X136652Y145796D02*
X168656Y177800D01*
X305562Y198120D02*
X320802Y213360D01*
X114602Y188468D02*
X313944D01*
X302768Y202692D02*
X314706Y214630D01*
X141732Y196596D02*
X304074D01*
X157662Y206756D02*
X298704D01*
X313944Y188468D02*
X333756Y208280D01*
X298704Y206756D02*
X308610Y216662D01*
X308864Y192532D02*
X327660Y211328D01*
X333756Y208280D02*
Y223437D01*
X116285Y192532D02*
X308864D01*
X304074Y196596D02*
X305562Y198084D01*
Y198120D01*
X148808Y202692D02*
X302768D01*
X121111Y293369D02*
X161562D01*
X163050Y291881D01*
Y217501D02*
Y291881D01*
X169730Y210820D02*
X295343D01*
X163050Y217501D02*
X169730Y210820D01*
X327660Y211328D02*
Y223089D01*
X320802Y213360D02*
Y221978D01*
X314706Y214630D02*
Y221630D01*
X308610Y216662D02*
Y221281D01*
X284890Y223012D02*
X327492Y265614D01*
X289596Y218948D02*
X292608Y221960D01*
X295343Y210820D02*
X300736Y216213D01*
X293660Y214884D02*
X296672Y217896D01*
X300736Y216213D02*
Y220709D01*
X292608Y221960D02*
Y224949D01*
X300736Y220709D02*
X357201Y277173D01*
X296672Y217896D02*
Y223266D01*
X292608Y224949D02*
X292862Y225203D01*
X452120Y108664D02*
Y290068D01*
X456184Y144224D02*
Y291846D01*
Y144224D02*
X504651Y95757D01*
X442427Y299761D02*
X452120Y290068D01*
X427018Y299761D02*
X442427D01*
X443269Y304761D02*
X456184Y291846D01*
X427018Y304761D02*
X443269D01*
X564252Y140970D02*
X565150Y140072D01*
X517057Y121881D02*
X518366Y123190D01*
X460248Y167007D02*
X505375Y121881D01*
X517057D01*
X460248Y167007D02*
Y293624D01*
X464820Y188722D02*
Y295402D01*
Y188722D02*
X500380Y153162D01*
X444111Y309761D02*
X460248Y293624D01*
X427018Y309761D02*
X444111D01*
X563744Y167132D02*
X566674Y164202D01*
X445461Y314761D02*
X464820Y295402D01*
X427018Y314761D02*
X445461D01*
X563490Y192278D02*
X563626Y192142D01*
X507575Y174498D02*
X537083D01*
X469392Y212681D02*
Y297434D01*
Y212681D02*
X507575Y174498D01*
X474218Y233323D02*
Y299212D01*
Y233323D02*
X509166Y198375D01*
X447065Y319761D02*
X469392Y297434D01*
X427018Y319761D02*
X447065D01*
X563236Y218186D02*
X565150Y216272D01*
X448669Y324761D02*
X474218Y299212D01*
X427018Y324761D02*
X448669D01*
X563236Y243586D02*
X564896Y241926D01*
X500633Y226775D02*
X504651Y222757D01*
X516333D01*
X500633Y226775D02*
Y226823D01*
X478790Y248666D02*
X500633Y226823D01*
X478790Y248666D02*
Y300990D01*
X450019Y329761D02*
X478790Y300990D01*
X427018Y329761D02*
X450019D01*
X507139Y249936D02*
X535432D01*
X483616Y273459D02*
X507139Y249936D01*
X483616Y273459D02*
Y303530D01*
X563626Y294014D02*
X563998Y294386D01*
X489204Y285750D02*
X497332Y277622D01*
X500586D01*
X504651Y273557D01*
X516333D01*
X489204Y285750D02*
Y304800D01*
X479298Y324612D02*
Y364490D01*
Y324612D02*
X497840Y306070D01*
X507233Y301539D02*
X535831D01*
X502702Y306070D02*
X507233Y301539D01*
X497840Y306070D02*
X502702D01*
X564252Y343916D02*
X565150Y343018D01*
X504651Y324357D02*
X516333D01*
X483362Y345646D02*
Y367284D01*
Y345646D02*
X504651Y324357D01*
X563744Y370332D02*
X566928Y367148D01*
X506222Y352021D02*
X535674D01*
X497792Y382016D02*
X504651Y375157D01*
X516333D01*
X486156Y382016D02*
X497792D01*
X563490Y420878D02*
X564388Y419980D01*
X563744Y446024D02*
X565658Y444110D01*
X563626Y463768D02*
Y472304D01*
X562138Y462280D02*
X563626Y463768D01*
X527256Y462280D02*
X562138D01*
X563490Y472440D02*
X563626Y472304D01*
X516333Y451357D02*
X527256Y462280D01*
X502590Y451357D02*
X516333D01*
X498525Y455422D02*
X502590Y451357D01*
X449160Y354757D02*
X455684Y348233D01*
X427020Y354757D02*
X449160D01*
X363982Y401066D02*
X368518Y396530D01*
Y368261D02*
Y396530D01*
X327492Y265614D02*
Y276929D01*
X327406Y277015D02*
Y302969D01*
Y277015D02*
X327492Y276929D01*
X344930Y309673D02*
X345018Y309761D01*
X331470Y278698D02*
X331556Y278612D01*
X331470Y278698D02*
Y301286D01*
X331556Y263931D02*
Y278612D01*
X292862Y225237D02*
X331556Y263931D01*
X334110Y309673D02*
X344930D01*
X327406Y302969D02*
X334110Y309673D01*
X292862Y225203D02*
Y225237D01*
X296672Y223266D02*
X339344Y265938D01*
X331470Y301286D02*
X334857Y304673D01*
X344930D02*
X345018Y304761D01*
X334857Y304673D02*
X344930D01*
X339344Y265938D02*
Y299549D01*
X339557Y299761D01*
X345018D01*
X361442Y228134D02*
X395324Y262016D01*
X354330Y226769D02*
X391260Y263699D01*
X346964Y225151D02*
X387196Y265383D01*
X340868Y224802D02*
X383132Y267066D01*
X333756Y223437D02*
X367030Y256711D01*
X358518Y277386D02*
Y286261D01*
X358306Y277173D02*
X358518Y277386D01*
X357201Y277173D02*
X358306D01*
X308610Y221281D02*
X362812Y275483D01*
X314706Y221630D02*
X366876Y273799D01*
X320802Y221978D02*
X370940Y272116D01*
X327660Y223089D02*
X375004Y270433D01*
X367030Y256711D02*
X367030D01*
X379068Y268749D01*
X391260Y263699D02*
Y264447D01*
X379068Y269497D02*
X380004Y270433D01*
X363518Y277137D02*
Y286261D01*
X375004Y270433D02*
Y271180D01*
X375940Y272116D01*
X383132Y267813D02*
X384068Y268749D01*
X395324Y262763D02*
X396260Y263699D01*
X370940Y272116D02*
Y272863D01*
X371876Y273799D01*
X387196Y266130D02*
X388132Y267066D01*
X366876Y273799D02*
Y274547D01*
X383132Y267066D02*
Y267813D01*
X391260Y264447D02*
X392196Y265383D01*
X387196D02*
Y266130D01*
X379068Y268749D02*
Y269497D01*
X366876Y274547D02*
X367812Y275483D01*
X395324Y262016D02*
Y262763D01*
X362812Y276431D02*
X363518Y277137D01*
X362812Y275483D02*
Y276431D01*
X392196Y265383D02*
Y266130D01*
X396260Y264447D02*
X397196Y265383D01*
X388132Y267813D02*
X389068Y268749D01*
X367812Y275483D02*
Y276431D01*
X380004Y270433D02*
Y271180D01*
X375940Y272863D02*
X376876Y273799D01*
X371876Y274547D02*
X372812Y275483D01*
X388132Y267066D02*
Y267813D01*
X392196Y266130D02*
X393132Y267066D01*
X384068Y269497D02*
X385004Y270433D01*
X384068Y268749D02*
Y269497D01*
X367812Y276431D02*
X368518Y277137D01*
Y286261D01*
X396260Y263699D02*
Y264447D01*
X380004Y271180D02*
X380940Y272116D01*
X371876Y273799D02*
Y274547D01*
X375940Y272116D02*
Y272863D01*
X385004Y271180D02*
X385940Y272116D01*
X393132Y267066D02*
Y267712D01*
X380940Y272863D02*
X381876Y273799D01*
X385004Y270433D02*
Y271180D01*
X373518Y277137D02*
Y286261D01*
X397196Y266029D02*
X403430Y272263D01*
X376876Y274547D02*
X377812Y275483D01*
X372812Y276431D02*
X373518Y277137D01*
X376876Y273799D02*
Y274547D01*
X380940Y272116D02*
Y272863D01*
X389068Y268749D02*
Y269497D01*
X393132Y267712D02*
X398430Y273010D01*
X372812Y275483D02*
Y276431D01*
X389068Y269497D02*
X390004Y270433D01*
X397196Y265383D02*
Y266029D01*
X327433Y314757D02*
X345020D01*
X383430Y275799D02*
Y286173D01*
X377812Y276431D02*
X378518Y277137D01*
X390004Y270878D02*
X393430Y274304D01*
X381876Y274245D02*
X383430Y275799D01*
X377812Y275483D02*
Y276431D01*
X388430Y275051D02*
Y286173D01*
X385940Y272116D02*
Y272561D01*
X390004Y270433D02*
Y270878D01*
X385940Y272561D02*
X388430Y275051D01*
X378518Y277137D02*
Y286261D01*
X381876Y273799D02*
Y274245D01*
X383430Y286173D02*
X383518Y286261D01*
X388430Y286173D02*
X388518Y286261D01*
X393430Y274304D02*
Y286173D01*
X393518Y286261D01*
X398430Y273010D02*
Y286173D01*
X398518Y286261D01*
X403430Y272263D02*
Y286173D01*
X403518Y286261D01*
X401836Y303014D02*
Y311149D01*
X401507Y346201D02*
X405063Y349757D01*
X400820Y346201D02*
X401507D01*
X363520Y350481D02*
X369070Y344931D01*
X363520Y350481D02*
Y368257D01*
X282889Y278891D02*
X286699Y282701D01*
X282202Y278891D02*
X282889D01*
X286699Y282701D02*
X294410D01*
X286410Y283664D02*
Y296601D01*
Y297601D02*
X300180Y311371D01*
Y315371D01*
X304410Y319601D01*
X286410Y296601D02*
Y297601D01*
X300180Y323831D02*
Y331501D01*
X296910Y334771D02*
X300180Y331501D01*
Y323831D02*
X304410Y319601D01*
X296410Y334771D02*
X296910D01*
X378782Y319845D02*
X378976Y320039D01*
X345108Y319845D02*
X378782D01*
X401328Y259333D02*
Y260098D01*
X406154Y264925D01*
Y269239D01*
X413432Y276097D02*
Y286169D01*
X406154Y269239D02*
X406575D01*
X413432Y286169D02*
X413520Y286257D01*
X406575Y269239D02*
X413432Y276097D01*
X322588Y311149D02*
X323825D01*
X327433Y314757D01*
X327527Y324757D02*
X345020D01*
X323571Y320801D02*
X327527Y324757D01*
X322334Y320801D02*
X323571D01*
X321826Y341121D02*
Y341375D01*
Y341121D02*
X328190Y334757D01*
X345020D01*
X304410Y282701D02*
X305304Y281807D01*
Y272165D02*
Y281807D01*
Y272165D02*
X306198Y271271D01*
X286410Y319601D02*
Y334771D01*
X304410Y282701D02*
Y296601D01*
X401836Y311149D02*
X408518Y304467D01*
Y286261D02*
Y304467D01*
X245002Y462534D02*
X245358Y462178D01*
X244850Y486054D02*
X245002Y485902D01*
X244850Y486054D02*
Y486156D01*
X171692Y466496D02*
X171794Y466598D01*
X88348Y488442D02*
X89402Y489496D01*
D17*
X65668Y417576D02*
D03*
X82668D02*
D03*
X83938Y86868D02*
D03*
X66938D02*
D03*
X66938Y188468D02*
D03*
X83938D02*
D03*
X66684Y112776D02*
D03*
X83684D02*
D03*
X66938Y137414D02*
D03*
X83938D02*
D03*
X66938Y163322D02*
D03*
X83938D02*
D03*
X64906Y315468D02*
D03*
X81906D02*
D03*
X65922Y264922D02*
D03*
X82922D02*
D03*
X66430Y288798D02*
D03*
X83430D02*
D03*
X66684Y239522D02*
D03*
X83684D02*
D03*
X66938Y213868D02*
D03*
X83938D02*
D03*
X64398Y340360D02*
D03*
X81398D02*
D03*
X65922Y390652D02*
D03*
X82922D02*
D03*
X65414Y366522D02*
D03*
X82414D02*
D03*
X546490Y472440D02*
D03*
X563490D02*
D03*
X546744Y446024D02*
D03*
X563744D02*
D03*
X546490Y420878D02*
D03*
X563490D02*
D03*
X546998Y394970D02*
D03*
X563998D02*
D03*
X546744Y370332D02*
D03*
X563744D02*
D03*
X547252Y343916D02*
D03*
X564252D02*
D03*
X546998Y319786D02*
D03*
X563998D02*
D03*
X546998Y294386D02*
D03*
X563998D02*
D03*
X546490Y267970D02*
D03*
X563490D02*
D03*
X546236Y243586D02*
D03*
X563236D02*
D03*
X546236Y218186D02*
D03*
X563236D02*
D03*
X546490Y192278D02*
D03*
X563490D02*
D03*
X546744Y167132D02*
D03*
X563744D02*
D03*
X547252Y140970D02*
D03*
X564252D02*
D03*
X545982Y114808D02*
D03*
X562982D02*
D03*
X545474Y90170D02*
D03*
X562474D02*
D03*
D18*
X258438Y435864D02*
D03*
X273438D02*
D03*
X321198Y271271D02*
D03*
X306198D02*
D03*
D19*
X358518Y368261D02*
D03*
X363518D02*
D03*
X368518D02*
D03*
X373518D02*
D03*
X378518D02*
D03*
X383518D02*
D03*
X388518D02*
D03*
X393518D02*
D03*
X398518D02*
D03*
X403518D02*
D03*
X408518D02*
D03*
X413518D02*
D03*
Y286261D02*
D03*
X408518D02*
D03*
X403518D02*
D03*
X398518D02*
D03*
X393518D02*
D03*
X388518D02*
D03*
X383518D02*
D03*
X378518D02*
D03*
X373518D02*
D03*
X368518D02*
D03*
X363518D02*
D03*
X358518D02*
D03*
D20*
X427018Y354761D02*
D03*
Y349761D02*
D03*
Y344761D02*
D03*
Y339761D02*
D03*
Y334761D02*
D03*
Y329761D02*
D03*
Y324761D02*
D03*
Y319761D02*
D03*
Y314761D02*
D03*
Y309761D02*
D03*
Y304761D02*
D03*
Y299761D02*
D03*
X345018D02*
D03*
Y304761D02*
D03*
Y309761D02*
D03*
Y314761D02*
D03*
Y319761D02*
D03*
Y324761D02*
D03*
Y329761D02*
D03*
Y334761D02*
D03*
Y339761D02*
D03*
Y344761D02*
D03*
Y349761D02*
D03*
Y354761D02*
D03*
D21*
X304410Y296601D02*
D03*
Y319601D02*
D03*
X286410D02*
D03*
Y296601D02*
D03*
D22*
X296410Y334771D02*
D03*
X286410D02*
D03*
X294410Y282701D02*
D03*
X304410D02*
D03*
D23*
X245002Y485902D02*
D03*
X264002D02*
D03*
Y462534D02*
D03*
X245002D02*
D03*
D24*
X172460Y466344D02*
D03*
D25*
X114300Y443484D02*
D03*
X113960Y466344D02*
D03*
Y489344D02*
D03*
D26*
X68828Y462496D02*
D03*
Y489496D02*
D03*
X89402D02*
D03*
Y462496D02*
D03*
X48254Y489496D02*
D03*
Y462496D02*
D03*
D47*
X130048Y77978D02*
X137414Y85344D01*
X84873Y85433D02*
X92283Y78022D01*
X130003D02*
X130048Y77978D01*
X92283Y78022D02*
X130003D01*
X95884Y100076D02*
X127508D01*
X128270Y100838D01*
X83684Y112276D02*
X95884Y100076D01*
X83684Y112276D02*
Y112522D01*
X84873Y85433D02*
Y85933D01*
X83938Y86868D02*
X84873Y85933D01*
X95884Y124968D02*
X100838D01*
X83938Y136914D02*
X95884Y124968D01*
X83938Y136914D02*
Y137668D01*
Y163068D02*
X107696D01*
X83938Y188468D02*
X104902D01*
X83938Y213868D02*
X104394D01*
X83938Y239268D02*
X105918D01*
X83938Y264668D02*
X104140D01*
X107696Y163068D02*
X118109Y152655D01*
X104902Y188468D02*
X111505Y181865D01*
X111190Y207328D02*
X117730Y200788D01*
X104394Y213868D02*
X110934Y207328D01*
X111190D01*
X105918Y239268D02*
X119126Y226060D01*
X104140Y264668D02*
X116172Y252636D01*
X107950Y340360D02*
X121164Y327146D01*
X83349Y366268D02*
X104394D01*
X82333Y340360D02*
X107950D01*
X104394Y366268D02*
X117522Y353140D01*
X109728Y390652D02*
X122451Y377929D01*
X83857Y390652D02*
X109728D01*
X111252Y417576D02*
X120903Y407925D01*
X109728Y290068D02*
X117637Y282159D01*
X83938Y290068D02*
X109728D01*
X108712Y315468D02*
X123952Y300228D01*
X82841Y315468D02*
X108712D01*
X83603Y417576D02*
X111252D01*
X519684Y82042D02*
Y83820D01*
X525869Y90005D01*
X545809D01*
X546744Y90940D01*
Y91440D01*
X511049Y156973D02*
X520192Y166116D01*
Y420116D02*
X547252D01*
X507492Y407416D02*
X520192Y420116D01*
Y394716D02*
X547252D01*
X507492Y382016D02*
X520192Y394716D01*
X507492Y102616D02*
X520192Y115316D01*
X508216Y128740D02*
X520192Y140716D01*
X510225Y181549D02*
X520192Y191516D01*
X510258Y206982D02*
X520192Y216916D01*
X507492Y229616D02*
X520192Y242316D01*
X509626Y257150D02*
X520192Y267716D01*
X510074Y308398D02*
X520192Y318516D01*
X507492Y331216D02*
X520192Y343916D01*
X509756Y358880D02*
X520192Y369316D01*
X509911Y435235D02*
X520192Y445516D01*
X547252D01*
X520192Y470916D02*
X547252D01*
X520192Y318516D02*
X547252D01*
X520192Y293116D02*
X547252D01*
X520192Y369316D02*
X547252D01*
X520192Y216916D02*
X547252D01*
X520192Y191516D02*
X547252D01*
X520192Y267716D02*
X547252D01*
X520192Y242316D02*
X547252D01*
X520192Y166116D02*
X547252D01*
X520192Y140716D02*
X547252D01*
X520192Y115316D02*
X547252D01*
X507492Y458216D02*
X520192Y470916D01*
Y343916D02*
X547252D01*
X507492Y280416D02*
X520192Y293116D01*
X245358Y441198D02*
Y462178D01*
X264002Y462534D02*
Y485902D01*
X211576Y466598D02*
X231134Y486156D01*
X244850D01*
D48*
X44958Y488442D02*
X88348D01*
X24798Y489714D02*
X43092D01*
X26664Y463042D02*
X47708D01*
X89402Y489496D02*
X113192D01*
D49*
X41148Y86868D02*
X66938D01*
X41148Y112268D02*
X66176D01*
X39373Y137527D02*
X65163D01*
X39373Y213727D02*
X65163D01*
X41148Y163068D02*
X66938D01*
X41148Y188468D02*
X66176D01*
X66684Y239268D02*
X66938D01*
X41148D02*
X66684D01*
X41148Y264668D02*
X66176D01*
X41148Y366268D02*
X65414D01*
X39373Y289927D02*
X65163D01*
X37084Y315214D02*
X62874D01*
X41148Y391668D02*
X65414D01*
X41148Y417068D02*
X65414D01*
X37084Y340614D02*
X62112D01*
X565522Y395224D02*
X598932D01*
X567808Y472440D02*
X601218D01*
X566030Y445770D02*
X599440D01*
X565522Y420878D02*
X598932D01*
X565522Y370078D02*
X598932D01*
X565268Y343662D02*
X598678D01*
X567808Y320040D02*
X601218D01*
X567808Y294640D02*
X601218D01*
X565268Y267970D02*
X598678D01*
X567808Y243840D02*
X601218D01*
X565522Y218186D02*
X598932D01*
X564506Y192532D02*
X597916D01*
X567808Y167640D02*
X601218D01*
X564252Y141224D02*
X597662D01*
X565014Y114808D02*
X598424D01*
X597408Y90170D02*
X598424Y91186D01*
X562474Y90170D02*
X597408D01*
D50*
X93402Y466496D02*
X171692D01*
X48254Y463042D02*
X66758D01*
X76775Y443636D02*
X113532D01*
X70973Y449439D02*
Y461949D01*
X68828Y462496D02*
X70426D01*
X70973Y461949D01*
Y449439D02*
X76775Y443636D01*
X68282Y463042D02*
X68828Y462496D01*
D51*
X171794Y466598D02*
X211576D01*
X114500Y488188D02*
X141980D01*
D52*
X314714Y303112D02*
Y328002D01*
X314487Y299140D02*
Y302886D01*
X314714Y303112D01*
Y287407D02*
Y298913D01*
X314487Y299140D02*
X314714Y298913D01*
Y287407D02*
X319870Y282251D01*
X321198Y271271D02*
Y278667D01*
X319870Y279994D02*
Y282251D01*
Y279994D02*
X321198Y278667D01*
X306739Y365308D02*
X332290Y339758D01*
X345019D02*
X345020Y339757D01*
X332290Y339758D02*
X345019D01*
X289181Y341375D02*
X321826D01*
X240292Y355853D02*
X249747Y365308D01*
X306739D01*
X240292Y338829D02*
Y355853D01*
X308612Y369829D02*
X333684Y344758D01*
X345019D01*
X287911Y340106D02*
X289181Y341375D01*
X287911Y335773D02*
Y340106D01*
X286910Y334771D02*
X287911Y335773D01*
X240292Y369829D02*
X308612D01*
X345019Y344758D02*
X345020Y344757D01*
X314714Y328002D02*
X316470Y329757D01*
X345020D01*
X286410Y334771D02*
X286910D01*
D53*
X41148Y417068D02*
D03*
Y391668D02*
D03*
Y366268D02*
D03*
Y340868D02*
D03*
Y315468D02*
D03*
Y290068D02*
D03*
Y264668D02*
D03*
Y239268D02*
D03*
Y213868D02*
D03*
Y188468D02*
D03*
Y163068D02*
D03*
Y137668D02*
D03*
Y112268D02*
D03*
Y86868D02*
D03*
X598424Y91186D02*
D03*
Y116586D02*
D03*
Y141986D02*
D03*
Y167386D02*
D03*
Y192786D02*
D03*
Y218186D02*
D03*
Y243586D02*
D03*
Y268986D02*
D03*
Y294386D02*
D03*
Y319786D02*
D03*
Y345186D02*
D03*
Y370586D02*
D03*
Y395986D02*
D03*
Y421386D02*
D03*
Y446786D02*
D03*
Y472186D02*
D03*
D54*
X240292Y338829D02*
D03*
Y369829D02*
D03*
D55*
X238006Y309117D02*
D03*
D56*
Y258317D02*
D03*
D57*
X255524Y416560D02*
D03*
X242824D02*
D03*
X278638Y416814D02*
D03*
X291338D02*
D03*
X304038D02*
D03*
D58*
X230124Y416560D02*
D03*
X316738Y416814D02*
D03*
D59*
X26664Y463042D02*
D03*
D60*
Y488442D02*
D03*
D61*
X124206Y86614D02*
D03*
X137414Y85344D02*
D03*
X128270Y100838D02*
D03*
X117730Y200788D02*
D03*
X100838Y124968D02*
D03*
X111505Y181865D02*
D03*
X116172Y252636D02*
D03*
X124243Y288035D02*
D03*
X118109Y152655D02*
D03*
X119126Y226060D02*
D03*
X119228Y112141D02*
D03*
X123182Y260933D02*
D03*
X123308Y134060D02*
D03*
X124206Y183134D02*
D03*
Y162814D02*
D03*
Y213614D02*
D03*
Y239014D02*
D03*
Y365736D02*
D03*
Y416814D02*
D03*
X117522Y353140D02*
D03*
X120224Y391652D02*
D03*
X120903Y407925D02*
D03*
X121164Y327146D02*
D03*
X122451Y377929D02*
D03*
X123952Y300228D02*
D03*
X124206Y340614D02*
D03*
X124216Y314957D02*
D03*
X117637Y282159D02*
D03*
X519684Y82042D02*
D03*
X511049Y156973D02*
D03*
X441109Y374561D02*
D03*
X357124Y410718D02*
D03*
X338582Y423672D02*
D03*
X378460Y433578D02*
D03*
Y407670D02*
D03*
X469646Y339598D02*
D03*
X496316Y424688D02*
D03*
X507492Y102616D02*
D03*
X508216Y128740D02*
D03*
X510225Y181549D02*
D03*
X510258Y206982D02*
D03*
X507492Y229616D02*
D03*
X509626Y257150D02*
D03*
X510074Y308398D02*
D03*
X507492Y331216D02*
D03*
X509756Y358880D02*
D03*
X509911Y435235D02*
D03*
X452882Y363219D02*
D03*
X455684Y348233D02*
D03*
X322072Y300481D02*
D03*
X400820Y346201D02*
D03*
X401836Y311149D02*
D03*
X369070Y344931D02*
D03*
X210574Y351027D02*
D03*
X282202Y278891D02*
D03*
X378976Y320039D02*
D03*
X401328Y259333D02*
D03*
X413520D02*
D03*
X360942Y393699D02*
D03*
X322588Y311149D02*
D03*
X322334Y320801D02*
D03*
X496316Y475488D02*
D03*
X507492Y458216D02*
D03*
X496316Y450088D02*
D03*
X507492Y407416D02*
D03*
X496316Y399288D02*
D03*
X507492Y382016D02*
D03*
X496316Y373888D02*
D03*
Y348488D02*
D03*
Y323088D02*
D03*
Y297688D02*
D03*
X507492Y280416D02*
D03*
X496316Y272288D02*
D03*
Y246888D02*
D03*
Y221488D02*
D03*
Y196088D02*
D03*
Y170688D02*
D03*
Y145288D02*
D03*
Y119888D02*
D03*
X493522Y91440D02*
D03*
X211576Y466598D02*
D03*
X141980Y488188D02*
D03*
D62*
X245358Y441198D02*
D03*
M02*
