G04*
G04 #@! TF.GenerationSoftware,Altium Limited,Altium Designer,23.10.1 (27)*
G04*
G04 Layer_Color=8421504*
%FSLAX44Y44*%
%MOMM*%
G71*
G04*
G04 #@! TF.SameCoordinates,EDDF8714-B4F6-4BBB-B34A-9CA9A18AB3C3*
G04*
G04*
G04 #@! TF.FilePolarity,Positive*
G04*
G01*
G75*
%ADD17R,1.0000X1.1000*%
%ADD18R,0.7000X0.9000*%
%ADD19O,0.3000X2.1000*%
%ADD20O,2.1000X0.3000*%
%ADD21R,1.1000X1.3000*%
%ADD22R,0.6000X0.5000*%
%ADD23R,1.3000X1.6000*%
%ADD24R,2.2000X3.3000*%
%ADD25R,2.2000X1.0000*%
%ADD26R,1.7000X1.1000*%
D17*
X65668Y417576D02*
D03*
X82668D02*
D03*
X83938Y86868D02*
D03*
X66938D02*
D03*
X66938Y188468D02*
D03*
X83938D02*
D03*
X66684Y112776D02*
D03*
X83684D02*
D03*
X66938Y137414D02*
D03*
X83938D02*
D03*
X66938Y163322D02*
D03*
X83938D02*
D03*
X64906Y315468D02*
D03*
X81906D02*
D03*
X65922Y264922D02*
D03*
X82922D02*
D03*
X66430Y288798D02*
D03*
X83430D02*
D03*
X66684Y239522D02*
D03*
X83684D02*
D03*
X66938Y213868D02*
D03*
X83938D02*
D03*
X64398Y340360D02*
D03*
X81398D02*
D03*
X65922Y390652D02*
D03*
X82922D02*
D03*
X65414Y366522D02*
D03*
X82414D02*
D03*
X546490Y472440D02*
D03*
X563490D02*
D03*
X546744Y446024D02*
D03*
X563744D02*
D03*
X546490Y420878D02*
D03*
X563490D02*
D03*
X546998Y394970D02*
D03*
X563998D02*
D03*
X546744Y370332D02*
D03*
X563744D02*
D03*
X547252Y343916D02*
D03*
X564252D02*
D03*
X546998Y319786D02*
D03*
X563998D02*
D03*
X546998Y294386D02*
D03*
X563998D02*
D03*
X546490Y267970D02*
D03*
X563490D02*
D03*
X546236Y243586D02*
D03*
X563236D02*
D03*
X546236Y218186D02*
D03*
X563236D02*
D03*
X546490Y192278D02*
D03*
X563490D02*
D03*
X546744Y167132D02*
D03*
X563744D02*
D03*
X547252Y140970D02*
D03*
X564252D02*
D03*
X545982Y114808D02*
D03*
X562982D02*
D03*
X545474Y90170D02*
D03*
X562474D02*
D03*
D18*
X258438Y435864D02*
D03*
X273438D02*
D03*
X321198Y271271D02*
D03*
X306198D02*
D03*
D19*
X358518Y368261D02*
D03*
X363518D02*
D03*
X368518D02*
D03*
X373518D02*
D03*
X378518D02*
D03*
X383518D02*
D03*
X388518D02*
D03*
X393518D02*
D03*
X398518D02*
D03*
X403518D02*
D03*
X408518D02*
D03*
X413518D02*
D03*
Y286261D02*
D03*
X408518D02*
D03*
X403518D02*
D03*
X398518D02*
D03*
X393518D02*
D03*
X388518D02*
D03*
X383518D02*
D03*
X378518D02*
D03*
X373518D02*
D03*
X368518D02*
D03*
X363518D02*
D03*
X358518D02*
D03*
D20*
X427018Y354761D02*
D03*
Y349761D02*
D03*
Y344761D02*
D03*
Y339761D02*
D03*
Y334761D02*
D03*
Y329761D02*
D03*
Y324761D02*
D03*
Y319761D02*
D03*
Y314761D02*
D03*
Y309761D02*
D03*
Y304761D02*
D03*
Y299761D02*
D03*
X345018D02*
D03*
Y304761D02*
D03*
Y309761D02*
D03*
Y314761D02*
D03*
Y319761D02*
D03*
Y324761D02*
D03*
Y329761D02*
D03*
Y334761D02*
D03*
Y339761D02*
D03*
Y344761D02*
D03*
Y349761D02*
D03*
Y354761D02*
D03*
D21*
X304410Y296601D02*
D03*
Y319601D02*
D03*
X286410D02*
D03*
Y296601D02*
D03*
D22*
X296410Y334771D02*
D03*
X286410D02*
D03*
X294410Y282701D02*
D03*
X304410D02*
D03*
D23*
X245002Y485902D02*
D03*
X264002D02*
D03*
Y462534D02*
D03*
X245002D02*
D03*
D24*
X172460Y466344D02*
D03*
D25*
X114300Y443484D02*
D03*
X113960Y466344D02*
D03*
Y489344D02*
D03*
D26*
X68828Y462496D02*
D03*
Y489496D02*
D03*
X89402D02*
D03*
Y462496D02*
D03*
X48254Y489496D02*
D03*
Y462496D02*
D03*
M02*
