G04*
G04 #@! TF.GenerationSoftware,Altium Limited,Altium Designer,23.10.1 (27)*
G04*
G04 Layer_Color=8388736*
%FSLAX44Y44*%
%MOMM*%
G71*
G04*
G04 #@! TF.SameCoordinates,EDDF8714-B4F6-4BBB-B34A-9CA9A18AB3C3*
G04*
G04*
G04 #@! TF.FilePolarity,Negative*
G04*
G01*
G75*
%ADD27R,1.2032X1.3032*%
%ADD28R,0.9032X1.1032*%
%ADD29O,0.5032X2.3032*%
%ADD30O,2.3032X0.5032*%
%ADD31R,1.3032X1.5032*%
%ADD32R,0.8032X0.7032*%
%ADD33R,1.5032X1.8032*%
%ADD34R,2.4032X3.5032*%
%ADD35R,2.4032X1.2032*%
%ADD36R,1.9032X1.3032*%
G04:AMPARAMS|DCode=37|XSize=2.1082mm|YSize=1.7272mm|CornerRadius=0mm|HoleSize=0mm|Usage=FLASHONLY|Rotation=180.000|XOffset=0mm|YOffset=0mm|HoleType=Round|Shape=Octagon|*
%AMOCTAGOND37*
4,1,8,-1.0541,0.4318,-1.0541,-0.4318,-0.6223,-0.8636,0.6223,-0.8636,1.0541,-0.4318,1.0541,0.4318,0.6223,0.8636,-0.6223,0.8636,-1.0541,0.4318,0.0*
%
%ADD37OCTAGOND37*%

%ADD38C,1.5032*%
%ADD39C,2.0532*%
%ADD40R,2.0532X2.0532*%
%ADD41C,1.2032*%
%ADD42R,1.2032X1.2032*%
%ADD43C,1.7032*%
%ADD44R,1.7032X1.7032*%
%ADD45C,0.7112*%
%ADD46C,1.4732*%
D27*
X65668Y417576D02*
D03*
X82668D02*
D03*
X83938Y86868D02*
D03*
X66938D02*
D03*
X66938Y188468D02*
D03*
X83938D02*
D03*
X66684Y112776D02*
D03*
X83684D02*
D03*
X66938Y137414D02*
D03*
X83938D02*
D03*
X66938Y163322D02*
D03*
X83938D02*
D03*
X64906Y315468D02*
D03*
X81906D02*
D03*
X65922Y264922D02*
D03*
X82922D02*
D03*
X66430Y288798D02*
D03*
X83430D02*
D03*
X66684Y239522D02*
D03*
X83684D02*
D03*
X66938Y213868D02*
D03*
X83938D02*
D03*
X64398Y340360D02*
D03*
X81398D02*
D03*
X65922Y390652D02*
D03*
X82922D02*
D03*
X65414Y366522D02*
D03*
X82414D02*
D03*
X546490Y472440D02*
D03*
X563490D02*
D03*
X546744Y446024D02*
D03*
X563744D02*
D03*
X546490Y420878D02*
D03*
X563490D02*
D03*
X546998Y394970D02*
D03*
X563998D02*
D03*
X546744Y370332D02*
D03*
X563744D02*
D03*
X547252Y343916D02*
D03*
X564252D02*
D03*
X546998Y319786D02*
D03*
X563998D02*
D03*
X546998Y294386D02*
D03*
X563998D02*
D03*
X546490Y267970D02*
D03*
X563490D02*
D03*
X546236Y243586D02*
D03*
X563236D02*
D03*
X546236Y218186D02*
D03*
X563236D02*
D03*
X546490Y192278D02*
D03*
X563490D02*
D03*
X546744Y167132D02*
D03*
X563744D02*
D03*
X547252Y140970D02*
D03*
X564252D02*
D03*
X545982Y114808D02*
D03*
X562982D02*
D03*
X545474Y90170D02*
D03*
X562474D02*
D03*
D28*
X258438Y435864D02*
D03*
X273438D02*
D03*
X321198Y271271D02*
D03*
X306198D02*
D03*
D29*
X358518Y368261D02*
D03*
X363518D02*
D03*
X368518D02*
D03*
X373518D02*
D03*
X378518D02*
D03*
X383518D02*
D03*
X388518D02*
D03*
X393518D02*
D03*
X398518D02*
D03*
X403518D02*
D03*
X408518D02*
D03*
X413518D02*
D03*
Y286261D02*
D03*
X408518D02*
D03*
X403518D02*
D03*
X398518D02*
D03*
X393518D02*
D03*
X388518D02*
D03*
X383518D02*
D03*
X378518D02*
D03*
X373518D02*
D03*
X368518D02*
D03*
X363518D02*
D03*
X358518D02*
D03*
D30*
X427018Y354761D02*
D03*
Y349761D02*
D03*
Y344761D02*
D03*
Y339761D02*
D03*
Y334761D02*
D03*
Y329761D02*
D03*
Y324761D02*
D03*
Y319761D02*
D03*
Y314761D02*
D03*
Y309761D02*
D03*
Y304761D02*
D03*
Y299761D02*
D03*
X345018D02*
D03*
Y304761D02*
D03*
Y309761D02*
D03*
Y314761D02*
D03*
Y319761D02*
D03*
Y324761D02*
D03*
Y329761D02*
D03*
Y334761D02*
D03*
Y339761D02*
D03*
Y344761D02*
D03*
Y349761D02*
D03*
Y354761D02*
D03*
D31*
X304410Y296601D02*
D03*
Y319601D02*
D03*
X286410D02*
D03*
Y296601D02*
D03*
D32*
X296410Y334771D02*
D03*
X286410D02*
D03*
X294410Y282701D02*
D03*
X304410D02*
D03*
D33*
X245002Y485902D02*
D03*
X264002D02*
D03*
Y462534D02*
D03*
X245002D02*
D03*
D34*
X172460Y466344D02*
D03*
D35*
X114300Y443484D02*
D03*
X113960Y466344D02*
D03*
Y489344D02*
D03*
D36*
X68828Y462496D02*
D03*
Y489496D02*
D03*
X89402D02*
D03*
Y462496D02*
D03*
X48254Y489496D02*
D03*
Y462496D02*
D03*
D37*
X41148Y417068D02*
D03*
Y391668D02*
D03*
Y366268D02*
D03*
Y340868D02*
D03*
Y315468D02*
D03*
Y290068D02*
D03*
Y264668D02*
D03*
Y239268D02*
D03*
Y213868D02*
D03*
Y188468D02*
D03*
Y163068D02*
D03*
Y137668D02*
D03*
Y112268D02*
D03*
Y86868D02*
D03*
X598424Y91186D02*
D03*
Y116586D02*
D03*
Y141986D02*
D03*
Y167386D02*
D03*
Y192786D02*
D03*
Y218186D02*
D03*
Y243586D02*
D03*
Y268986D02*
D03*
Y294386D02*
D03*
Y319786D02*
D03*
Y345186D02*
D03*
Y370586D02*
D03*
Y395986D02*
D03*
Y421386D02*
D03*
Y446786D02*
D03*
Y472186D02*
D03*
D38*
X240292Y338829D02*
D03*
Y369829D02*
D03*
D39*
X238006Y309117D02*
D03*
D40*
Y258317D02*
D03*
D41*
X255524Y416560D02*
D03*
X242824D02*
D03*
X278638Y416814D02*
D03*
X291338D02*
D03*
X304038D02*
D03*
D42*
X230124Y416560D02*
D03*
X316738Y416814D02*
D03*
D43*
X26664Y463042D02*
D03*
D44*
Y488442D02*
D03*
D45*
X124206Y86614D02*
D03*
X137414Y85344D02*
D03*
X128270Y100838D02*
D03*
X117730Y200788D02*
D03*
X100838Y124968D02*
D03*
X111505Y181865D02*
D03*
X116172Y252636D02*
D03*
X124243Y288035D02*
D03*
X118109Y152655D02*
D03*
X119126Y226060D02*
D03*
X119228Y112141D02*
D03*
X123182Y260933D02*
D03*
X123308Y134060D02*
D03*
X124206Y183134D02*
D03*
Y162814D02*
D03*
Y213614D02*
D03*
Y239014D02*
D03*
Y365736D02*
D03*
Y416814D02*
D03*
X117522Y353140D02*
D03*
X120224Y391652D02*
D03*
X120903Y407925D02*
D03*
X121164Y327146D02*
D03*
X122451Y377929D02*
D03*
X123952Y300228D02*
D03*
X124206Y340614D02*
D03*
X124216Y314957D02*
D03*
X117637Y282159D02*
D03*
X519684Y82042D02*
D03*
X511049Y156973D02*
D03*
X441109Y374561D02*
D03*
X357124Y410718D02*
D03*
X338582Y423672D02*
D03*
X378460Y433578D02*
D03*
Y407670D02*
D03*
X469646Y339598D02*
D03*
X496316Y424688D02*
D03*
X507492Y102616D02*
D03*
X508216Y128740D02*
D03*
X510225Y181549D02*
D03*
X510258Y206982D02*
D03*
X507492Y229616D02*
D03*
X509626Y257150D02*
D03*
X510074Y308398D02*
D03*
X507492Y331216D02*
D03*
X509756Y358880D02*
D03*
X509911Y435235D02*
D03*
X452882Y363219D02*
D03*
X455684Y348233D02*
D03*
X322072Y300481D02*
D03*
X400820Y346201D02*
D03*
X401836Y311149D02*
D03*
X369070Y344931D02*
D03*
X210574Y351027D02*
D03*
X282202Y278891D02*
D03*
X378976Y320039D02*
D03*
X401328Y259333D02*
D03*
X413520D02*
D03*
X360942Y393699D02*
D03*
X322588Y311149D02*
D03*
X322334Y320801D02*
D03*
X496316Y475488D02*
D03*
X507492Y458216D02*
D03*
X496316Y450088D02*
D03*
X507492Y407416D02*
D03*
X496316Y399288D02*
D03*
X507492Y382016D02*
D03*
X496316Y373888D02*
D03*
Y348488D02*
D03*
Y323088D02*
D03*
Y297688D02*
D03*
X507492Y280416D02*
D03*
X496316Y272288D02*
D03*
Y246888D02*
D03*
Y221488D02*
D03*
Y196088D02*
D03*
Y170688D02*
D03*
Y145288D02*
D03*
Y119888D02*
D03*
X493522Y91440D02*
D03*
X211576Y466598D02*
D03*
X141980Y488188D02*
D03*
D46*
X245358Y441198D02*
D03*
M02*
