M48
;Layer_Color=9474304
;FILE_FORMAT=4:4
METRIC,LZ
;TYPE=PLATED
T01F00S00C0.2540
T02F00S00C0.6000
T03F00S00C0.7000
T04F00S00C0.7112
T05F00S00C0.9000
T06F00S00C1.0000
T07F00S00C1.1000
%
T01
X00124206Y00086614
X00137414Y00085344
X0012827Y00100838
X00119228Y00112141
X00123308Y0013406
X00100838Y00124968
X00496316Y00119888
X00508216Y0012874
X00507492Y00102616
X00493522Y0009144
X00519684Y00082042
X00511049Y00156973
X00510225Y00181549
X00496316Y00170688
Y00196088
X00510258Y00206982
X00507492Y00229616
X00496316Y00221488
Y00246888
X00509626Y0025715
X00507492Y00280416
X00496316Y00272288
Y00297688
X00510074Y00308398
X00507492Y00331216
X00496316Y00323088
Y00348488
X00509756Y0035888
X00507492Y00382016
X00496316Y00373888
Y00399288
X00507492Y00407416
X00496316Y00424688
X00509911Y00435235
X00507492Y00458216
X00496316Y00450088
Y00475488
X00452882Y00363219
X00455684Y00348233
X00469646Y00339598
X00441109Y00374561
X0040082Y00346201
X0036907Y00344931
X00378976Y00320039
X00401836Y00311149
X00401328Y00259333
X0041352
X00322072Y00300481
X00322588Y00311149
X00322334Y00320801
X00282202Y00278891
X00210574Y00351027
X00211576Y00466598
X00338582Y00423672
X00357124Y00410718
X00360942Y00393699
X0037846Y0040767
Y00433578
X00496316Y00145288
X00118109Y00152655
X00124206Y00162814
Y00183134
X00111505Y00181865
X0011773Y00200788
X00124206Y00213614
X00119126Y0022606
X00124206Y00239014
X00116172Y00252636
X00123182Y00260933
X00117637Y00282159
X00124243Y00288035
X00123952Y00300228
X00124216Y00314957
X00121164Y00327146
X00124206Y00340614
X00117522Y0035314
X00124206Y00365736
X00122451Y00377929
X00120224Y00391652
X00120903Y00407925
X00124206Y00416814
X0014198Y00488188
T02
X00230124Y0041656
X00242824
X00255524
X00278638Y00416814
X00291338
X00304038
X00316738
T03
X00240292Y00338829
Y00369829
T04
X00245358Y00441198
T05
X00026664Y00463042
Y00488442
T06
X00041148Y00086868
Y00112268
Y00137668
X00598424Y00141986
Y00116586
Y00091186
Y00167386
Y00192786
Y00218186
Y00243586
Y00268986
Y00294386
Y00319786
Y00345186
Y00370586
Y00395986
Y00421386
Y00446786
Y00472186
X00041148Y00417068
Y00391668
Y00366268
Y00340868
Y00315468
Y00290068
Y00264668
Y00239268
Y00213868
Y00188468
Y00163068
T07
X00238006Y00258317
Y00309117
M30
